font.ufo
<glyph name="exclam" format="2">
	<unicode hex="0021"/>
	<advance width="263"/>
	<outline>
		<contour>
			<point x="131" y="-12" type="curve" smooth="yes"/>
			<point x="160" y="-12"/>
			<point x="181" y="9"/>
			<point x="181" y="37" type="curve" smooth="yes"/>
			<point x="181" y="66"/>
			<point x="160" y="86"/>
			<point x="131" y="86" type="curve" smooth="yes"/>
			<point x="103" y="86"/>
			<point x="82" y="66"/>
			<point x="82" y="37" type="curve" smooth="yes"/>
			<point x="82" y="9"/>
			<point x="103" y="-12"/>
		</contour>
		<contour>
			<point x="131" y="690" type="curve" smooth="yes"/>
			<point x="108" y="690"/>
			<point x="94" y="675"/>
			<point x="94" y="647" type="curve" smooth="yes"/>
			<point x="94" y="620"/>
			<point x="98" y="506"/>
			<point x="105" y="386" type="curve" smooth="yes"/>
			<point x="112" y="190" type="line"/>
			<point x="149" y="190" type="line"/>
			<point x="156" y="386" type="line" smooth="yes"/>
			<point x="163" y="506"/>
			<point x="167" y="620"/>
			<point x="167" y="647" type="curve" smooth="yes"/>
			<point x="167" y="675"/>
			<point x="154" y="690"/>
		</contour>
	</outline>
</glyph>
<glyph name="numbersign" format="2">
	<unicode hex="0023"/>
	<advance width="515"/>
	<outline>
		<contour>
			<point x="86" y="0" type="line"/>
			<point x="124" y="0" type="line"/>
			<point x="222" y="651" type="line"/>
			<point x="184" y="651" type="line"/>
		</contour>
		<contour>
			<point x="24" y="246" type="line"/>
			<point x="24" y="197" type="line"/>
			<point x="459" y="197" type="line"/>
			<point x="459" y="246" type="line"/>
		</contour>
		<contour>
			<point x="492" y="421" type="line"/>
			<point x="492" y="469" type="line"/>
			<point x="57" y="469" type="line"/>
			<point x="57" y="421" type="line"/>
		</contour>
		<contour>
			<point x="288" y="0" type="line"/>
			<point x="326" y="0" type="line"/>
			<point x="425" y="651" type="line"/>
			<point x="386" y="651" type="line"/>
		</contour>
	</outline>
</glyph>
<glyph name="quotesingle" format="2">
	<unicode hex="0027"/>
	<advance width="162"/>
	<outline>
		<contour>
			<point x="81" y="746" type="curve" smooth="yes"/>
			<point x="59" y="746"/>
			<point x="46" y="732"/>
			<point x="46" y="703" type="curve" smooth="yes"/>
			<point x="46" y="672"/>
			<point x="53" y="594"/>
			<point x="59" y="527" type="curve" smooth="yes"/>
			<point x="64" y="454" type="line"/>
			<point x="98" y="454" type="line"/>
			<point x="104" y="527" type="line" smooth="yes"/>
			<point x="109" y="594"/>
			<point x="116" y="672"/>
			<point x="116" y="703" type="curve" smooth="yes"/>
			<point x="116" y="732"/>
			<point x="104" y="746"/>
		</contour>
	</outline>
</glyph>
<glyph name="parenleft" format="2">
	<unicode hex="0028"/>
	<advance width="364"/>
	<outline>
		<contour>
			<point x="152" y="279" type="curve" smooth="yes"/>
			<point x="152" y="448"/>
			<point x="203" y="591"/>
			<point x="315" y="743" type="curve"/>
			<point x="287" y="765" type="line"/>
			<point x="165" y="621"/>
			<point x="95" y="469"/>
			<point x="95" y="279" type="curve" smooth="yes"/>
			<point x="95" y="88"/>
			<point x="165" y="-64"/>
			<point x="287" y="-207" type="curve"/>
			<point x="315" y="-185" type="line"/>
			<point x="203" y="-33"/>
			<point x="152" y="110"/>
		</contour>
	</outline>
</glyph>
<glyph name="plus" format="2">
	<unicode hex="002B"/>
	<advance width="538"/>
	<outline>
		<contour>
			<point x="245" y="89" type="line"/>
			<point x="293" y="89" type="line"/>
			<point x="293" y="572" type="line"/>
			<point x="245" y="572" type="line"/>
		</contour>
		<contour>
			<point x="498" y="308" type="line"/>
			<point x="498" y="352" type="line"/>
			<point x="40" y="352" type="line"/>
			<point x="40" y="308" type="line"/>
		</contour>
	</outline>
</glyph>
<glyph name="comma" format="2">
	<unicode hex="002C"/>
	<advance width="299"/>
	<outline>
		<contour>
			<point x="199" y="6" type="curve" smooth="yes"/>
			<point x="199" y="33"/>
			<point x="196" y="58"/>
			<point x="191" y="77" type="curve"/>
			<point x="184" y="81"/>
			<point x="171" y="85"/>
			<point x="155" y="85" type="curve" smooth="yes"/>
			<point x="123" y="85"/>
			<point x="102" y="65"/>
			<point x="102" y="35" type="curve" smooth="yes"/>
			<point x="102" y="5"/>
			<point x="125" y="-11"/>
			<point x="144" y="-23" type="curve" smooth="yes"/>
			<point x="164" y="-35" type="line"/>
			<point x="152" y="-24" type="line"/>
			<point x="147" y="-83"/>
			<point x="113" y="-139"/>
			<point x="47" y="-183" type="curve"/>
			<point x="66" y="-206" type="line"/>
			<point x="145" y="-161"/>
			<point x="199" y="-91"/>
		</contour>
	</outline>
</glyph>
<glyph name="hyphen" format="2">
	<unicode hex="002D"/>
	<unicode hex="00AD"/>
	<unicode hex="2010"/>
	<advance width="323"/>
	<outline>
		<contour>
			<point x="40" y="235" type="line"/>
			<point x="283" y="235" type="line"/>
			<point x="283" y="284" type="line"/>
			<point x="40" y="284" type="line"/>
		</contour>
	</outline>
</glyph>
<glyph name="slash" format="2">
	<unicode hex="002F"/>
	<advance width="323"/>
	<outline>
		<contour>
			<point x="5" y="-160" type="line"/>
			<point x="53" y="-160" type="line"/>
			<point x="317" y="710" type="line"/>
			<point x="270" y="710" type="line"/>
		</contour>
	</outline>
</glyph>
<glyph name="zero" format="2">
	<unicode hex="0030"/>
	<advance width="543"/>
	<outline>
		<contour>
			<point x="271" y="-12" type="curve" smooth="yes"/>
			<point x="411" y="-12"/>
			<point x="488" y="122"/>
			<point x="488" y="328" type="curve" smooth="yes"/>
			<point x="488" y="534"/>
			<point x="411" y="663"/>
			<point x="271" y="663" type="curve" smooth="yes"/>
			<point x="132" y="663"/>
			<point x="55" y="527"/>
			<point x="55" y="323" type="curve" smooth="yes"/>
			<point x="55" y="118"/>
			<point x="132" y="-12"/>
		</contour>
		<contour>
			<point x="271" y="27" type="curve" smooth="yes"/>
			<point x="164" y="27"/>
			<point x="117" y="146"/>
			<point x="117" y="325" type="curve" smooth="yes"/>
			<point x="117" y="504"/>
			<point x="164" y="624"/>
			<point x="271" y="624" type="curve" smooth="yes"/>
			<point x="379" y="624"/>
			<point x="426" y="506"/>
			<point x="426" y="325" type="curve" smooth="yes"/>
			<point x="426" y="145"/>
			<point x="379" y="27"/>
		</contour>
	</outline>
</glyph>
<glyph name="one" format="2">
	<unicode hex="0031"/>
	<advance width="543"/>
	<outline>
		<contour>
			<point x="98" y="0" type="line"/>
			<point x="455" y="0" type="line"/>
			<point x="455" y="43" type="line"/>
			<point x="297" y="43" type="line"/>
			<point x="269" y="43" type="line"/>
			<point x="98" y="43" type="line"/>
		</contour>
		<contour>
			<point x="252" y="0" type="curve"/>
			<point x="314" y="0" type="line"/>
			<point x="314" y="101"/>
			<point x="314" y="203"/>
			<point x="314" y="304" type="curve" smooth="yes"/>
			<point x="314" y="370" type="line"/>
			<point x="314" y="658" type="line"/>
			<point x="287" y="658" type="line"/>
			<point x="96" y="601" type="line"/>
			<point x="96" y="561" type="line"/>
			<point x="252" y="598" type="line"/>
			<point x="252" y="304" type="line" smooth="yes"/>
			<point x="252" y="203"/>
			<point x="252" y="101"/>
		</contour>
	</outline>
</glyph>
<glyph name="less" format="2">
	<unicode hex="003C"/>
	<advance width="538"/>
	<outline>
		<contour>
			<point x="66" y="311" type="line"/>
			<point x="448" y="86" type="line"/>
			<point x="472" y="125" type="line"/>
			<point x="92" y="343" type="line"/>
			<point x="92" y="317" type="line"/>
			<point x="472" y="535" type="line"/>
			<point x="448" y="575" type="line"/>
			<point x="66" y="349" type="line"/>
		</contour>
	</outline>
</glyph>
<glyph name="question" format="2">
	<unicode hex="003F"/>
	<advance width="382"/>
	<outline>
		<contour>
			<point x="144" y="-12" type="curve" smooth="yes"/>
			<point x="172" y="-12"/>
			<point x="194" y="9"/>
			<point x="194" y="37" type="curve" smooth="yes"/>
			<point x="194" y="65"/>
			<point x="172" y="86"/>
			<point x="144" y="86" type="curve" smooth="yes"/>
			<point x="116" y="86"/>
			<point x="95" y="65"/>
			<point x="95" y="37" type="curve" smooth="yes"/>
			<point x="95" y="9"/>
			<point x="116" y="-12"/>
		</contour>
		<contour>
			<point x="338" y="494" type="curve" smooth="yes"/>
			<point x="338" y="596"/>
			<point x="239" y="662"/>
			<point x="101" y="690" type="curve"/>
			<point x="87" y="684"/>
			<point x="69" y="671"/>
			<point x="69" y="649" type="curve" smooth="yes"/>
			<point x="69" y="627"/>
			<point x="85" y="610"/>
			<point x="119" y="610" type="curve" smooth="yes"/>
			<point x="261" y="610" type="line"/>
			<point x="185" y="648" type="line"/>
			<point x="263" y="599"/>
			<point x="294" y="558"/>
			<point x="294" y="503" type="curve" smooth="yes"/>
			<point x="294" y="445"/>
			<point x="257" y="408"/>
			<point x="196" y="374" type="curve" smooth="yes"/>
			<point x="184" y="367" type="line" smooth="yes"/>
			<point x="132" y="338"/>
			<point x="110" y="315"/>
			<point x="110" y="275" type="curve" smooth="yes"/>
			<point x="110" y="256"/>
			<point x="114" y="237"/>
			<point x="120" y="211" type="curve" smooth="yes"/>
			<point x="125" y="182" type="line"/>
			<point x="161" y="182" type="line"/>
			<point x="158" y="226" type="line" smooth="yes"/>
			<point x="156" y="284"/>
			<point x="172" y="300"/>
			<point x="212" y="323" type="curve" smooth="yes"/>
			<point x="221" y="328" type="line" smooth="yes"/>
			<point x="292" y="368"/>
			<point x="338" y="414"/>
		</contour>
	</outline>
</glyph>
<glyph name="B" format="2">
	<unicode hex="0042"/>
	<advance width="651"/>
	<outline>
		<contour>
			<point x="45" y="0" type="line"/>
			<point x="178" y="0" type="line"/>
			<point x="178" y="43" type="line"/>
			<point x="167" y="43" type="line"/>
			<point x="45" y="43" type="line"/>
		</contour>
		<contour>
			<point x="156" y="0" type="curve"/>
			<point x="219" y="0" type="line"/>
			<point x="219" y="101"/>
			<point x="219" y="212"/>
			<point x="219" y="304" type="curve" smooth="yes"/>
			<point x="219" y="370" type="line" smooth="yes"/>
			<point x="219" y="472"/>
			<point x="219" y="572"/>
			<point x="219" y="674" type="curve"/>
			<point x="156" y="674" type="line"/>
			<point x="156" y="572"/>
			<point x="156" y="472"/>
			<point x="156" y="370" type="curve" smooth="yes"/>
			<point x="156" y="304" type="line" smooth="yes"/>
			<point x="156" y="212"/>
			<point x="156" y="101"/>
		</contour>
		<contour>
			<point x="197" y="0" type="line"/>
			<point x="329" y="0" type="line" smooth="yes"/>
			<point x="501" y="0"/>
			<point x="602" y="69"/>
			<point x="602" y="189" type="curve" smooth="yes"/>
			<point x="602" y="301"/>
			<point x="502" y="346"/>
			<point x="354" y="346" type="curve"/>
			<point x="354" y="359" type="line"/>
			<point x="480" y="361"/>
			<point x="563" y="410"/>
			<point x="563" y="514" type="curve" smooth="yes"/>
			<point x="563" y="612"/>
			<point x="482" y="674"/>
			<point x="334" y="674" type="curve" smooth="yes"/>
			<point x="197" y="674" type="line"/>
			<point x="197" y="632" type="line"/>
			<point x="323" y="632" type="line" smooth="yes"/>
			<point x="450" y="632"/>
			<point x="501" y="586"/>
			<point x="501" y="507" type="curve" smooth="yes"/>
			<point x="501" y="429"/>
			<point x="450" y="372"/>
			<point x="318" y="372" type="curve" smooth="yes"/>
			<point x="189" y="372" type="line"/>
			<point x="189" y="331" type="line"/>
			<point x="321" y="331" type="line" smooth="yes"/>
			<point x="472" y="331"/>
			<point x="538" y="280"/>
			<point x="538" y="187" type="curve" smooth="yes"/>
			<point x="538" y="95"/>
			<point x="469" y="42"/>
			<point x="318" y="42" type="curve" smooth="yes"/>
			<point x="197" y="42" type="line"/>
		</contour>
		<contour>
			<point x="45" y="631" type="line"/>
			<point x="167" y="631" type="line"/>
			<point x="178" y="631" type="line"/>
			<point x="178" y="674" type="line"/>
			<point x="45" y="674" type="line"/>
		</contour>
	</outline>
	<anchor name="aboveUC" x="322" y="694"/>
	<anchor name="belowLC" x="329" y="-20"/>
</glyph>
<glyph name="C" format="2">
	<unicode hex="0043"/>
	<advance width="705"/>
	<outline>
		<contour>
			<point x="424" y="-16" type="curve" smooth="yes"/>
			<point x="528" y="-16"/>
			<point x="607" y="8"/>
			<point x="644" y="31" type="curve"/>
			<point x="648" y="179" type="line"/>
			<point x="607" y="179" type="line"/>
			<point x="585" y="33" type="line"/>
			<point x="624" y="33" type="line"/>
			<point x="624" y="72" type="line"/>
			<point x="583" y="47"/>
			<point x="517" y="27"/>
			<point x="428" y="27" type="curve" smooth="yes"/>
			<point x="248" y="27"/>
			<point x="126" y="143"/>
			<point x="126" y="337" type="curve" smooth="yes"/>
			<point x="126" y="532"/>
			<point x="251" y="647"/>
			<point x="424" y="647" type="curve" smooth="yes"/>
			<point x="504" y="647"/>
			<point x="563" y="630"/>
			<point x="615" y="599" type="curve"/>
			<point x="615" y="638" type="line"/>
			<point x="575" y="638" type="line"/>
			<point x="597" y="497" type="line"/>
			<point x="639" y="497" type="line"/>
			<point x="635" y="641" type="line"/>
			<point x="587" y="668"/>
			<point x="515" y="690"/>
			<point x="424" y="690" type="curve" smooth="yes"/>
			<point x="215" y="690"/>
			<point x="61" y="553"/>
			<point x="61" y="335" type="curve" smooth="yes"/>
			<point x="61" y="116"/>
			<point x="212" y="-16"/>
		</contour>
	</outline>
	<anchor name="aboveUC" x="421" y="694"/>
	<anchor name="baseLC" x="425" y="0"/>
	<anchor name="belowLC" x="421" y="-20"/>
</glyph>
<glyph name="E" format="2">
	<unicode hex="0045"/>
	<advance width="669"/>
	<outline>
		<contour>
			<point x="46" y="0" type="line"/>
			<point x="180" y="0" type="line"/>
			<point x="180" y="43" type="line"/>
			<point x="172" y="43" type="line"/>
			<point x="46" y="43" type="line"/>
		</contour>
		<contour>
			<point x="158" y="0" type="curve"/>
			<point x="220" y="0" type="line"/>
			<point x="220" y="101"/>
			<point x="220" y="203"/>
			<point x="220" y="304" type="curve" smooth="yes"/>
			<point x="220" y="370" type="line" smooth="yes"/>
			<point x="220" y="472"/>
			<point x="220" y="572"/>
			<point x="220" y="674" type="curve"/>
			<point x="158" y="674" type="line"/>
			<point x="158" y="572"/>
			<point x="158" y="472"/>
			<point x="158" y="370" type="curve" smooth="yes"/>
			<point x="158" y="304" type="line" smooth="yes"/>
			<point x="158" y="203"/>
			<point x="158" y="101"/>
		</contour>
		<contour>
			<point x="188" y="0" type="line"/>
			<point x="601" y="0" type="line"/>
			<point x="609" y="187" type="line"/>
			<point x="566" y="187" type="line"/>
			<point x="541" y="14" type="line"/>
			<point x="571" y="43" type="line"/>
			<point x="188" y="43" type="line"/>
		</contour>
		<contour>
			<point x="191" y="323" type="line"/>
			<point x="440" y="323" type="line"/>
			<point x="440" y="364" type="line"/>
			<point x="191" y="364" type="line"/>
		</contour>
		<contour>
			<point x="426" y="227" type="line"/>
			<point x="467" y="227" type="line"/>
			<point x="467" y="460" type="line"/>
			<point x="426" y="460" type="line"/>
			<point x="412" y="353" type="line"/>
			<point x="412" y="333" type="line"/>
		</contour>
		<contour>
			<point x="46" y="631" type="line"/>
			<point x="172" y="631" type="line"/>
			<point x="180" y="631" type="line"/>
			<point x="180" y="674" type="line"/>
			<point x="46" y="674" type="line"/>
		</contour>
		<contour>
			<point x="549" y="496" type="line"/>
			<point x="591" y="496" type="line"/>
			<point x="581" y="674" type="line"/>
			<point x="188" y="674" type="line"/>
			<point x="188" y="631" type="line"/>
			<point x="553" y="631" type="line"/>
			<point x="521" y="660" type="line"/>
		</contour>
	</outline>
	<anchor name="aboveUC" x="364" y="694"/>
	<anchor name="belowLC" x="369" y="-20"/>
	<anchor name="ogonek" x="535" y="0"/>
</glyph>
<glyph name="G" format="2">
	<unicode hex="0047"/>
	<advance width="774"/>
	<outline>
		<contour>
			<point x="424" y="-16" type="curve" smooth="yes"/>
			<point x="524" y="-16"/>
			<point x="605" y="11"/>
			<point x="660" y="41" type="curve"/>
			<point x="660" y="93" type="line" smooth="yes"/>
			<point x="660" y="166"/>
			<point x="660" y="243"/>
			<point x="660" y="320" type="curve"/>
			<point x="598" y="320" type="line"/>
			<point x="598" y="243"/>
			<point x="598" y="166"/>
			<point x="598" y="93" type="curve" smooth="yes"/>
			<point x="598" y="44" type="line"/>
			<point x="621" y="74" type="line"/>
			<point x="571" y="46"/>
			<point x="513" y="27"/>
			<point x="428" y="27" type="curve" smooth="yes"/>
			<point x="245" y="27"/>
			<point x="126" y="143"/>
			<point x="126" y="337" type="curve" smooth="yes"/>
			<point x="126" y="532"/>
			<point x="252" y="647"/>
			<point x="427" y="647" type="curve" smooth="yes"/>
			<point x="513" y="647"/>
			<point x="577" y="627"/>
			<point x="632" y="594" type="curve"/>
			<point x="632" y="635" type="line"/>
			<point x="590" y="635" type="line"/>
			<point x="612" y="495" type="line"/>
			<point x="653" y="495" type="line"/>
			<point x="649" y="641" type="line"/>
			<point x="601" y="666"/>
			<point x="524" y="690"/>
			<point x="427" y="690" type="curve" smooth="yes"/>
			<point x="216" y="690"/>
			<point x="61" y="553"/>
			<point x="61" y="335" type="curve" smooth="yes"/>
			<point x="61" y="116"/>
			<point x="209" y="-16"/>
		</contour>
		<contour>
			<point x="474" y="279" type="line"/>
			<point x="617" y="279" type="line"/>
			<point x="643" y="279" type="line"/>
			<point x="740" y="279" type="line"/>
			<point x="740" y="320" type="line"/>
			<point x="474" y="320" type="line"/>
		</contour>
	</outline>
	<anchor name="aboveUC" x="430" y="694"/>
	<anchor name="belowLC" x="431" y="-20"/>
</glyph>
<glyph name="H" format="2">
	<unicode hex="0048"/>
	<advance width="845"/>
	<outline>
		<contour>
			<point x="45" y="0" type="line"/>
			<point x="330" y="0" type="line"/>
			<point x="330" y="43" type="line"/>
			<point x="202" y="43" type="line"/>
			<point x="173" y="43" type="line"/>
			<point x="45" y="43" type="line"/>
		</contour>
		<contour>
			<point x="156" y="0" type="curve"/>
			<point x="219" y="0" type="line"/>
			<point x="219" y="108"/>
			<point x="219" y="216"/>
			<point x="219" y="339" type="curve" smooth="yes"/>
			<point x="219" y="363" type="line" smooth="yes"/>
			<point x="219" y="469"/>
			<point x="219" y="571"/>
			<point x="219" y="674" type="curve"/>
			<point x="156" y="674" type="line"/>
			<point x="156" y="571"/>
			<point x="156" y="469"/>
			<point x="156" y="370" type="curve" smooth="yes"/>
			<point x="156" y="304" type="line" smooth="yes"/>
			<point x="156" y="213"/>
			<point x="156" y="107"/>
		</contour>
		<contour>
			<point x="191" y="330" type="line"/>
			<point x="654" y="330" type="line"/>
			<point x="654" y="373" type="line"/>
			<point x="191" y="373" type="line"/>
		</contour>
		<contour>
			<point x="515" y="0" type="line"/>
			<point x="800" y="0" type="line"/>
			<point x="800" y="43" type="line"/>
			<point x="672" y="43" type="line"/>
			<point x="643" y="43" type="line"/>
			<point x="515" y="43" type="line"/>
		</contour>
		<contour>
			<point x="626" y="0" type="curve"/>
			<point x="689" y="0" type="line"/>
			<point x="689" y="107"/>
			<point x="689" y="213"/>
			<point x="689" y="304" type="curve" smooth="yes"/>
			<point x="689" y="370" type="line" smooth="yes"/>
			<point x="689" y="469"/>
			<point x="689" y="571"/>
			<point x="689" y="674" type="curve"/>
			<point x="626" y="674" type="line"/>
			<point x="626" y="571"/>
			<point x="626" y="469"/>
			<point x="626" y="364" type="curve" smooth="yes"/>
			<point x="626" y="339" type="line" smooth="yes"/>
			<point x="626" y="216"/>
			<point x="626" y="108"/>
		</contour>
		<contour>
			<point x="45" y="631" type="line"/>
			<point x="173" y="631" type="line"/>
			<point x="202" y="631" type="line"/>
			<point x="330" y="631" type="line"/>
			<point x="330" y="674" type="line"/>
			<point x="45" y="674" type="line"/>
		</contour>
		<contour>
			<point x="515" y="631" type="line"/>
			<point x="643" y="631" type="line"/>
			<point x="672" y="631" type="line"/>
			<point x="800" y="631" type="line"/>
			<point x="800" y="674" type="line"/>
			<point x="515" y="674" type="line"/>
		</contour>
	</outline>
	<anchor name="aboveUC" x="423" y="694"/>
	<anchor name="belowLC" x="423" y="-20"/>
</glyph>
<glyph name="I" format="2">
	<unicode hex="0049"/>
	<advance width="375"/>
	<outline>
		<contour>
			<point x="45" y="0" type="line"/>
			<point x="330" y="0" type="line"/>
			<point x="330" y="43" type="line"/>
			<point x="202" y="43" type="line"/>
			<point x="173" y="43" type="line"/>
			<point x="45" y="43" type="line"/>
		</contour>
		<contour>
			<point x="156" y="0" type="curve"/>
			<point x="219" y="0" type="line"/>
			<point x="219" y="101"/>
			<point x="219" y="203"/>
			<point x="219" y="304" type="curve" smooth="yes"/>
			<point x="219" y="370" type="line" smooth="yes"/>
			<point x="219" y="472"/>
			<point x="219" y="572"/>
			<point x="219" y="674" type="curve"/>
			<point x="156" y="674" type="line"/>
			<point x="156" y="572"/>
			<point x="156" y="472"/>
			<point x="156" y="370" type="curve" smooth="yes"/>
			<point x="156" y="304" type="line" smooth="yes"/>
			<point x="156" y="203"/>
			<point x="156" y="101"/>
		</contour>
		<contour>
			<point x="45" y="631" type="line"/>
			<point x="173" y="631" type="line"/>
			<point x="202" y="631" type="line"/>
			<point x="330" y="631" type="line"/>
			<point x="330" y="674" type="line"/>
			<point x="45" y="674" type="line"/>
		</contour>
	</outline>
	<anchor name="aboveUC" x="188" y="694"/>
	<anchor name="belowLC" x="188" y="-20"/>
	<anchor name="ogonek" x="227" y="0"/>
</glyph>
<glyph name="L" format="2">
	<unicode hex="004C"/>
	<advance width="633"/>
	<outline>
		<contour>
			<point x="46" y="0" type="line"/>
			<point x="180" y="0" type="line"/>
			<point x="180" y="43" type="line"/>
			<point x="172" y="43" type="line"/>
			<point x="46" y="43" type="line"/>
		</contour>
		<contour>
			<point x="158" y="0" type="curve"/>
			<point x="220" y="0" type="line"/>
			<point x="220" y="101"/>
			<point x="220" y="203"/>
			<point x="220" y="304" type="curve" smooth="yes"/>
			<point x="220" y="370" type="line" smooth="yes"/>
			<point x="220" y="472"/>
			<point x="220" y="572"/>
			<point x="220" y="674" type="curve"/>
			<point x="158" y="674" type="line"/>
			<point x="158" y="572"/>
			<point x="158" y="472"/>
			<point x="158" y="370" type="curve" smooth="yes"/>
			<point x="158" y="304" type="line" smooth="yes"/>
			<point x="158" y="203"/>
			<point x="158" y="101"/>
		</contour>
		<contour>
			<point x="188" y="0" type="line"/>
			<point x="585" y="0" type="line"/>
			<point x="593" y="198" type="line"/>
			<point x="550" y="198" type="line"/>
			<point x="525" y="14" type="line"/>
			<point x="555" y="43" type="line"/>
			<point x="188" y="43" type="line"/>
		</contour>
		<contour>
			<point x="46" y="631" type="line"/>
			<point x="172" y="631" type="line"/>
			<point x="206" y="631" type="line"/>
			<point x="348" y="631" type="line"/>
			<point x="348" y="674" type="line"/>
			<point x="46" y="674" type="line"/>
		</contour>
	</outline>
	<anchor name="aboveUC" x="196" y="694"/>
	<anchor name="belowLC" x="317" y="-20"/>
</glyph>
<glyph name="M" format="2">
	<unicode hex="004D"/>
	<advance width="983"/>
	<outline>
		<contour>
			<point x="45" y="0" type="line"/>
			<point x="322" y="0" type="line"/>
			<point x="322" y="43" type="line"/>
			<point x="193" y="43" type="line"/>
			<point x="165" y="43" type="line"/>
			<point x="45" y="43" type="line"/>
		</contour>
		<contour>
			<point x="45" y="631" type="line"/>
			<point x="165" y="631" type="line"/>
			<point x="176" y="631" type="line"/>
			<point x="176" y="674" type="line"/>
			<point x="45" y="674" type="line"/>
		</contour>
		<contour>
			<point x="156" y="0" type="line"/>
			<point x="201" y="0" type="line"/>
			<point x="201" y="327" type="line"/>
			<point x="187" y="664" type="line"/>
			<point x="156" y="664" type="line"/>
		</contour>
		<contour>
			<point x="456" y="0" type="line"/>
			<point x="503" y="0" type="line"/>
			<point x="656" y="343" type="line"/>
			<point x="754" y="601" type="line"/>
			<point x="788" y="601" type="line"/>
			<point x="788" y="674" type="line"/>
			<point x="745" y="674" type="line"/>
			<point x="617" y="356" type="line"/>
			<point x="497" y="69" type="line"/>
			<point x="489" y="69" type="line"/>
			<point x="232" y="674" type="line"/>
			<point x="174" y="674" type="line"/>
			<point x="174" y="601" type="line"/>
			<point x="201" y="601" type="line"/>
		</contour>
		<contour>
			<point x="642" y="0" type="line"/>
			<point x="937" y="0" type="line"/>
			<point x="937" y="43" type="line"/>
			<point x="817" y="43" type="line"/>
			<point x="771" y="43" type="line"/>
			<point x="642" y="43" type="line"/>
		</contour>
		<contour>
			<point x="763" y="0" type="curve"/>
			<point x="825" y="0" type="line"/>
			<point x="825" y="103"/>
			<point x="825" y="206"/>
			<point x="825" y="309" type="curve" smooth="yes"/>
			<point x="825" y="368" type="line" smooth="yes"/>
			<point x="825" y="470"/>
			<point x="825" y="572"/>
			<point x="825" y="674" type="curve"/>
			<point x="765" y="674" type="line"/>
			<point x="763" y="327" type="line" smooth="yes"/>
			<point x="763" y="218"/>
			<point x="763" y="109"/>
		</contour>
		<contour>
			<point x="804" y="631" type="line"/>
			<point x="817" y="631" type="line"/>
			<point x="937" y="631" type="line"/>
			<point x="937" y="674" type="line"/>
			<point x="804" y="674" type="line"/>
		</contour>
	</outline>
	<anchor name="aboveUC" x="489" y="694"/>
	<anchor name="belowLC" x="480" y="-20"/>
</glyph>
<glyph name="O" format="2">
	<unicode hex="004F"/>
	<advance width="768"/>
	<outline>
		<contour>
			<point x="384" y="-16" type="curve" smooth="yes"/>
			<point x="581" y="-16"/>
			<point x="707" y="136"/>
			<point x="707" y="340" type="curve" smooth="yes"/>
			<point x="707" y="544"/>
			<point x="581" y="690"/>
			<point x="384" y="690" type="curve" smooth="yes"/>
			<point x="187" y="690"/>
			<point x="61" y="539"/>
			<point x="61" y="335" type="curve" smooth="yes"/>
			<point x="61" y="130"/>
			<point x="187" y="-16"/>
		</contour>
		<contour>
			<point x="384" y="27" type="curve" smooth="yes"/>
			<point x="218" y="27"/>
			<point x="126" y="162"/>
			<point x="126" y="337" type="curve" smooth="yes"/>
			<point x="126" y="513"/>
			<point x="218" y="647"/>
			<point x="384" y="647" type="curve" smooth="yes"/>
			<point x="550" y="647"/>
			<point x="642" y="513"/>
			<point x="642" y="337" type="curve" smooth="yes"/>
			<point x="642" y="162"/>
			<point x="550" y="27"/>
		</contour>
	</outline>
	<anchor name="aboveUC" x="384" y="694"/>
	<anchor name="belowLC" x="388" y="-20"/>
	<anchor name="hornLC" x="586" y="582"/>
	<anchor name="ogonek" x="482" y="0"/>
</glyph>
<glyph name="S" format="2">
	<unicode hex="0053"/>
	<advance width="571"/>
	<outline>
		<contour>
			<point x="260" y="-16" type="curve" smooth="yes"/>
			<point x="423" y="-16"/>
			<point x="507" y="63"/>
			<point x="507" y="169" type="curve" smooth="yes"/>
			<point x="507" y="277"/>
			<point x="428" y="324"/>
			<point x="313" y="368" type="curve" smooth="yes"/>
			<point x="280" y="381" type="line" smooth="yes"/>
			<point x="174" y="421"/>
			<point x="131" y="458"/>
			<point x="131" y="528" type="curve" smooth="yes"/>
			<point x="131" y="597"/>
			<point x="182" y="649"/>
			<point x="287" y="649" type="curve" smooth="yes"/>
			<point x="353" y="649"/>
			<point x="407" y="631"/>
			<point x="445" y="604" type="curve"/>
			<point x="445" y="642" type="line"/>
			<point x="414" y="642" type="line"/>
			<point x="434" y="507" type="line"/>
			<point x="475" y="507" type="line"/>
			<point x="475" y="642" type="line"/>
			<point x="434" y="667"/>
			<point x="372" y="690"/>
			<point x="287" y="690" type="curve" smooth="yes"/>
			<point x="155" y="690"/>
			<point x="70" y="623"/>
			<point x="70" y="520" type="curve" smooth="yes"/>
			<point x="70" y="416"/>
			<point x="149" y="367"/>
			<point x="264" y="323" type="curve" smooth="yes"/>
			<point x="297" y="310" type="line" smooth="yes"/>
			<point x="403" y="270"/>
			<point x="446" y="234"/>
			<point x="446" y="161" type="curve" smooth="yes"/>
			<point x="446" y="87"/>
			<point x="395" y="25"/>
			<point x="260" y="25" type="curve" smooth="yes"/>
			<point x="183" y="25"/>
			<point x="116" y="49"/>
			<point x="72" y="83" type="curve"/>
			<point x="72" y="39" type="line"/>
			<point x="108" y="39" type="line"/>
			<point x="89" y="179" type="line"/>
			<point x="48" y="179" type="line"/>
			<point x="48" y="36" type="line"/>
			<point x="89" y="13"/>
			<point x="164" y="-16"/>
		</contour>
	</outline>
	<anchor name="aboveUC" x="293" y="694"/>
	<anchor name="baseLC" x="261" y="0"/>
	<anchor name="belowLC" x="262" y="-20"/>
</glyph>
<glyph name="W" format="2">
	<unicode hex="0057"/>
	<advance width="1048"/>
	<outline>
		<contour>
			<point x="282" y="0" type="line"/>
			<point x="348" y="0" type="line"/>
			<point x="455" y="332" type="line"/>
			<point x="524" y="599" type="line"/>
			<point x="531" y="599" type="line"/>
			<point x="695" y="0" type="line"/>
			<point x="759" y="0" type="line"/>
			<point x="956" y="674" type="line"/>
			<point x="906" y="674" type="line"/>
			<point x="812" y="326" type="line"/>
			<point x="748" y="41" type="line"/>
			<point x="741" y="41" type="line"/>
			<point x="563" y="674" type="line"/>
			<point x="512" y="674" type="line"/>
			<point x="413" y="347" type="line"/>
			<point x="336" y="41" type="line"/>
			<point x="329" y="41" type="line"/>
			<point x="158" y="674" type="line"/>
			<point x="91" y="674" type="line"/>
		</contour>
		<contour>
			<point x="15" y="631" type="line"/>
			<point x="115" y="631" type="line"/>
			<point x="155" y="631" type="line"/>
			<point x="270" y="631" type="line"/>
			<point x="270" y="674" type="line"/>
			<point x="15" y="674" type="line"/>
		</contour>
		<contour>
			<point x="403" y="631" type="line"/>
			<point x="518" y="631" type="line"/>
			<point x="559" y="631" type="line"/>
			<point x="674" y="631" type="line"/>
			<point x="674" y="674" type="line"/>
			<point x="403" y="674" type="line"/>
		</contour>
		<contour>
			<point x="798" y="631" type="line"/>
			<point x="904" y="631" type="line"/>
			<point x="927" y="631" type="line"/>
			<point x="1027" y="631" type="line"/>
			<point x="1027" y="674" type="line"/>
			<point x="798" y="674" type="line"/>
		</contour>
	</outline>
	<anchor name="aboveUC" x="533" y="694"/>
	<anchor name="belowLC" x="526" y="-20"/>
</glyph>
<glyph name="bracketleft" format="2">
	<unicode hex="005B"/>
	<advance width="335"/>
	<outline>
		<contour>
			<point x="115" y="-160" type="curve"/>
			<point x="164" y="-160" type="line"/>
			<point x="164" y="-54"/>
			<point x="164" y="52"/>
			<point x="164" y="158" type="curve" smooth="yes"/>
			<point x="164" y="398" type="line" smooth="yes"/>
			<point x="164" y="504"/>
			<point x="164" y="610"/>
			<point x="164" y="716" type="curve"/>
			<point x="115" y="716" type="line"/>
			<point x="115" y="610"/>
			<point x="115" y="504"/>
			<point x="115" y="398" type="curve" smooth="yes"/>
			<point x="115" y="158" type="line" smooth="yes"/>
			<point x="115" y="52"/>
			<point x="115" y="-54"/>
		</contour>
		<contour>
			<point x="142" y="-160" type="line"/>
			<point x="283" y="-160" type="line"/>
			<point x="283" y="-119" type="line"/>
			<point x="153" y="-119" type="line"/>
			<point x="142" y="-119" type="line"/>
		</contour>
		<contour>
			<point x="142" y="675" type="line"/>
			<point x="153" y="675" type="line"/>
			<point x="283" y="675" type="line"/>
			<point x="283" y="716" type="line"/>
			<point x="142" y="716" type="line"/>
		</contour>
	</outline>
</glyph>
<glyph name="asciicircum" format="2">
	<unicode hex="005E"/>
	<advance width="533"/>
	<outline>
		<contour>
			<point x="73" y="216" type="line"/>
			<point x="113" y="194" type="line"/>
			<point x="285" y="486" type="line"/>
			<point x="248" y="486" type="line"/>
			<point x="419" y="194" type="line"/>
			<point x="460" y="216" type="line"/>
			<point x="288" y="500" type="line"/>
			<point x="244" y="500" type="line"/>
		</contour>
	</outline>
</glyph>
<glyph name="underscore" format="2">
	<unicode hex="005F"/>
	<advance width="511"/>
	<outline>
		<contour>
			<point x="-5" y="-48" type="line"/>
			<point x="516" y="-48" type="line"/>
			<point x="516" y="1" type="line"/>
			<point x="-5" y="1" type="line"/>
		</contour>
	</outline>
</glyph>
<glyph name="e" format="2">
	<unicode hex="0065"/>
	<advance width="559"/>
	<outline>
		<contour>
			<point x="303" y="-12" type="curve" smooth="yes"/>
			<point x="408" y="-12"/>
			<point x="463" y="33"/>
			<point x="500" y="83" type="curve"/>
			<point x="473" y="107" type="line"/>
			<point x="437" y="65"/>
			<point x="392" y="32"/>
			<point x="313" y="32" type="curve" smooth="yes"/>
			<point x="198" y="32"/>
			<point x="116" y="111"/>
			<point x="116" y="253" type="curve" smooth="yes"/>
			<point x="116" y="401"/>
			<point x="192" y="476"/>
			<point x="292" y="476" type="curve" smooth="yes"/>
			<point x="396" y="476"/>
			<point x="450" y="413"/>
			<point x="450" y="319" type="curve" smooth="yes"/>
			<point x="450" y="305"/>
			<point x="449" y="292"/>
			<point x="448" y="281" type="curve" smooth="yes"/>
			<point x="98" y="281" type="line"/>
			<point x="98" y="246" type="line"/>
			<point x="497" y="246" type="line"/>
			<point x="500" y="260"/>
			<point x="503" y="286"/>
			<point x="503" y="311" type="curve" smooth="yes"/>
			<point x="503" y="429"/>
			<point x="428" y="515"/>
			<point x="292" y="515" type="curve" smooth="yes"/>
			<point x="158" y="515"/>
			<point x="58" y="414"/>
			<point x="58" y="247" type="curve" smooth="yes"/>
			<point x="58" y="86"/>
			<point x="156" y="-12"/>
		</contour>
	</outline>
	<anchor name="aboveLC" x="301" y="523"/>
	<anchor name="belowLC" x="308" y="-20"/>
	<anchor name="ogonek" x="393" y="0"/>
</glyph>
<glyph name="f" format="2">
	<unicode hex="0066"/>
	<advance width="368"/>
	<outline>
		<contour>
			<point x="43" y="0" type="line"/>
			<point x="316" y="0" type="line"/>
			<point x="316" y="40" type="line"/>
			<point x="188" y="40" type="line"/>
			<point x="154" y="40" type="line"/>
			<point x="43" y="40" type="line"/>
		</contour>
		<contour>
			<point x="143" y="0" type="curve"/>
			<point x="199" y="0" type="line"/>
			<point x="199" y="73"/>
			<point x="199" y="147"/>
			<point x="199" y="220" type="curve" smooth="yes"/>
			<point x="199" y="489" type="line"/>
			<point x="199" y="577"/>
			<point x="211" y="623"/>
			<point x="242" y="670" type="curve" smooth="yes"/>
			<point x="260" y="698"/>
			<point x="282" y="713"/>
			<point x="309" y="724" type="curve"/>
			<point x="287" y="717" type="line"/>
			<point x="330" y="717" type="line"/>
			<point x="311" y="724" type="line"/>
			<point x="333" y="707" type="line" smooth="yes"/>
			<point x="362" y="685"/>
			<point x="379" y="672"/>
			<point x="406" y="672" type="curve" smooth="yes"/>
			<point x="432" y="672"/>
			<point x="444" y="688"/>
			<point x="446" y="704" type="curve"/>
			<point x="436" y="730"/>
			<point x="402" y="747"/>
			<point x="349" y="747" type="curve" smooth="yes"/>
			<point x="305" y="747"/>
			<point x="260" y="733"/>
			<point x="223" y="699" type="curve" smooth="yes"/>
			<point x="182" y="661"/>
			<point x="147" y="610"/>
			<point x="145" y="497" type="curve"/>
			<point x="144" y="482" type="line"/>
			<point x="157" y="504" type="line"/>
			<point x="42" y="495" type="line"/>
			<point x="42" y="462" type="line"/>
			<point x="143" y="462" type="line"/>
			<point x="143" y="220" type="line" smooth="yes"/>
			<point x="143" y="147"/>
			<point x="143" y="73"/>
		</contour>
		<contour>
			<point x="174" y="462" type="line"/>
			<point x="338" y="462" type="line"/>
			<point x="338" y="503" type="line"/>
			<point x="174" y="503" type="line"/>
		</contour>
	</outline>
	<anchor name="aboveLC" x="310" y="745"/>
	<anchor name="belowLC" x="171" y="-20"/>
</glyph>
<glyph name="i" format="2">
	<unicode hex="0069"/>
	<advance width="345"/>
	<outline>
		<contour>
			<point x="45" y="0" type="line"/>
			<point x="299" y="0" type="line"/>
			<point x="299" y="40" type="line"/>
			<point x="183" y="40" type="line"/>
			<point x="161" y="40" type="line"/>
			<point x="45" y="40" type="line"/>
		</contour>
		<contour>
			<point x="145" y="0" type="curve"/>
			<point x="200" y="0" type="line"/>
			<point x="200" y="73"/>
			<point x="200" y="147"/>
			<point x="200" y="220" type="curve" smooth="yes"/>
			<point x="200" y="400" type="line"/>
			<point x="200" y="503" type="line"/>
			<point x="175" y="503" type="line"/>
			<point x="41" y="478" type="line"/>
			<point x="41" y="444" type="line"/>
			<point x="145" y="444" type="line"/>
			<point x="145" y="387"/>
			<point x="145" y="331"/>
			<point x="145" y="273" type="curve" smooth="yes"/>
			<point x="145" y="220" type="line" smooth="yes"/>
			<point x="145" y="147"/>
			<point x="145" y="73"/>
		</contour>
		<contour>
			<point x="172" y="635" type="curve" smooth="yes"/>
			<point x="201" y="635"/>
			<point x="221" y="655"/>
			<point x="221" y="682" type="curve" smooth="yes"/>
			<point x="221" y="710"/>
			<point x="201" y="730"/>
			<point x="172" y="730" type="curve" smooth="yes"/>
			<point x="144" y="730"/>
			<point x="123" y="710"/>
			<point x="123" y="682" type="curve" smooth="yes"/>
			<point x="123" y="655"/>
			<point x="144" y="635"/>
		</contour>
	</outline>
	<anchor name="aboveLC" x="172" y="730"/>
	<anchor name="belowLC" x="179" y="-20"/>
	<anchor name="ogonek" x="194" y="0"/>
</glyph>
<glyph name="j" format="2">
	<unicode hex="006A"/>
	<advance width="315"/>
	<outline>
		<contour>
			<point x="16" y="-246" type="curve" smooth="yes"/>
			<point x="83" y="-246"/>
			<point x="122" y="-210"/>
			<point x="149" y="-154" type="curve" smooth="yes"/>
			<point x="176" y="-98"/>
			<point x="185" y="-24"/>
			<point x="185" y="91" type="curve" smooth="yes"/>
			<point x="185" y="400" type="line"/>
			<point x="185" y="503" type="line"/>
			<point x="161" y="503" type="line"/>
			<point x="27" y="478" type="line"/>
			<point x="27" y="444" type="line"/>
			<point x="130" y="444" type="line"/>
			<point x="130" y="387"/>
			<point x="130" y="331"/>
			<point x="130" y="273" type="curve" smooth="yes"/>
			<point x="130" y="91" type="line" smooth="yes"/>
			<point x="130" y="-16"/>
			<point x="123" y="-90"/>
			<point x="108" y="-135" type="curve" smooth="yes"/>
			<point x="93" y="-180"/>
			<point x="81" y="-196"/>
			<point x="56" y="-222" type="curve"/>
			<point x="73" y="-213" type="line"/>
			<point x="48" y="-213" type="line"/>
			<point x="70" y="-223" type="line"/>
			<point x="57" y="-205" type="line" smooth="yes"/>
			<point x="42" y="-185"/>
			<point x="25" y="-172"/>
			<point x="-5" y="-172" type="curve" smooth="yes"/>
			<point x="-37" y="-172"/>
			<point x="-52" y="-190"/>
			<point x="-57" y="-209" type="curve"/>
			<point x="-52" y="-221"/>
			<point x="-33" y="-246"/>
		</contour>
		<contour>
			<point x="158" y="635" type="curve" smooth="yes"/>
			<point x="186" y="635"/>
			<point x="207" y="655"/>
			<point x="207" y="682" type="curve" smooth="yes"/>
			<point x="207" y="710"/>
			<point x="186" y="730"/>
			<point x="158" y="730" type="curve" smooth="yes"/>
			<point x="129" y="730"/>
			<point x="109" y="710"/>
			<point x="109" y="682" type="curve" smooth="yes"/>
			<point x="109" y="655"/>
			<point x="129" y="635"/>
		</contour>
	</outline>
	<anchor name="aboveLC" x="160" y="730"/>
	<anchor name="belowLC" x="84" y="-254"/>
</glyph>
<glyph name="m" format="2">
	<unicode hex="006D"/>
	<advance width="1003"/>
	<outline>
		<contour>
			<point x="44" y="0" type="line"/>
			<point x="296" y="0" type="line"/>
			<point x="296" y="40" type="line"/>
			<point x="182" y="40" type="line"/>
			<point x="160" y="40" type="line"/>
			<point x="44" y="40" type="line"/>
		</contour>
		<contour>
			<point x="143" y="0" type="curve"/>
			<point x="199" y="0" type="line"/>
			<point x="199" y="73"/>
			<point x="199" y="147"/>
			<point x="199" y="220" type="curve" smooth="yes"/>
			<point x="199" y="405" type="line"/>
			<point x="193" y="405" type="line"/>
			<point x="185" y="503" type="line"/>
			<point x="160" y="503" type="line"/>
			<point x="40" y="478" type="line"/>
			<point x="40" y="444" type="line"/>
			<point x="143" y="444" type="line"/>
			<point x="143" y="387"/>
			<point x="143" y="331"/>
			<point x="143" y="273" type="curve" smooth="yes"/>
			<point x="143" y="220" type="line" smooth="yes"/>
			<point x="143" y="147"/>
			<point x="143" y="73"/>
		</contour>
		<contour>
			<point x="387" y="0" type="line"/>
			<point x="639" y="0" type="line"/>
			<point x="639" y="40" type="line"/>
			<point x="523" y="40" type="line"/>
			<point x="501" y="40" type="line"/>
			<point x="387" y="40" type="line"/>
		</contour>
		<contour>
			<point x="484" y="0" type="curve"/>
			<point x="540" y="0" type="line"/>
			<point x="540" y="73"/>
			<point x="540" y="147"/>
			<point x="540" y="220" type="curve" smooth="yes"/>
			<point x="540" y="355" type="line" smooth="yes"/>
			<point x="540" y="457"/>
			<point x="483" y="515"/>
			<point x="390" y="515" type="curve" smooth="yes"/>
			<point x="311" y="515"/>
			<point x="260" y="472"/>
			<point x="213" y="411" type="curve"/>
			<point x="183" y="411" type="line"/>
			<point x="183" y="368" type="line"/>
			<point x="254" y="428"/>
			<point x="308" y="466"/>
			<point x="376" y="466" type="curve" smooth="yes"/>
			<point x="447" y="466"/>
			<point x="484" y="427"/>
			<point x="484" y="341" type="curve" smooth="yes"/>
			<point x="484" y="220" type="line" smooth="yes"/>
			<point x="484" y="147"/>
			<point x="484" y="73"/>
		</contour>
		<contour>
			<point x="728" y="0" type="line"/>
			<point x="980" y="0" type="line"/>
			<point x="980" y="40" type="line"/>
			<point x="864" y="40" type="line"/>
			<point x="842" y="40" type="line"/>
			<point x="728" y="40" type="line"/>
		</contour>
		<contour>
			<point x="825" y="0" type="curve"/>
			<point x="881" y="0" type="line"/>
			<point x="881" y="73"/>
			<point x="881" y="147"/>
			<point x="881" y="220" type="curve" smooth="yes"/>
			<point x="881" y="355" type="line" smooth="yes"/>
			<point x="881" y="457"/>
			<point x="825" y="515"/>
			<point x="731" y="515" type="curve" smooth="yes"/>
			<point x="652" y="515"/>
			<point x="601" y="472"/>
			<point x="554" y="411" type="curve"/>
			<point x="524" y="411" type="line"/>
			<point x="524" y="368" type="line"/>
			<point x="595" y="428"/>
			<point x="649" y="466"/>
			<point x="717" y="466" type="curve" smooth="yes"/>
			<point x="788" y="466"/>
			<point x="825" y="427"/>
			<point x="825" y="341" type="curve" smooth="yes"/>
			<point x="825" y="220" type="line" smooth="yes"/>
			<point x="825" y="147"/>
			<point x="825" y="73"/>
		</contour>
	</outline>
	<anchor name="aboveLC" x="515" y="523"/>
	<anchor name="belowLC" x="516" y="-20"/>
</glyph>
<glyph name="r" format="2">
	<unicode hex="0072"/>
	<advance width="483"/>
	<outline>
		<contour>
			<point x="45" y="0" type="line"/>
			<point x="330" y="0" type="line"/>
			<point x="330" y="40" type="line"/>
			<point x="183" y="40" type="line"/>
			<point x="161" y="40" type="line"/>
			<point x="45" y="40" type="line"/>
		</contour>
		<contour>
			<point x="145" y="0" type="curve"/>
			<point x="200" y="0" type="line"/>
			<point x="200" y="73"/>
			<point x="200" y="147"/>
			<point x="200" y="220" type="curve" smooth="yes"/>
			<point x="200" y="375" type="line"/>
			<point x="193" y="375" type="line"/>
			<point x="188" y="503" type="line"/>
			<point x="163" y="503" type="line"/>
			<point x="41" y="478" type="line"/>
			<point x="41" y="444" type="line"/>
			<point x="145" y="444" type="line"/>
			<point x="145" y="387"/>
			<point x="145" y="331"/>
			<point x="145" y="273" type="curve" smooth="yes"/>
			<point x="145" y="220" type="line" smooth="yes"/>
			<point x="145" y="147"/>
			<point x="145" y="73"/>
		</contour>
		<contour>
			<point x="189" y="319" type="line"/>
			<point x="236" y="396"/>
			<point x="295" y="452"/>
			<point x="370" y="469" type="curve"/>
			<point x="326" y="470" type="line"/>
			<point x="343" y="454" type="line" smooth="yes"/>
			<point x="359" y="439"/>
			<point x="375" y="427"/>
			<point x="402" y="427" type="curve" smooth="yes"/>
			<point x="436" y="427"/>
			<point x="453" y="451"/>
			<point x="455" y="473" type="curve"/>
			<point x="447" y="492"/>
			<point x="423" y="511"/>
			<point x="375" y="511" type="curve" smooth="yes"/>
			<point x="303" y="511"/>
			<point x="256" y="457"/>
			<point x="210" y="378" type="curve"/>
			<point x="189" y="378" type="line"/>
		</contour>
	</outline>
	<anchor name="aboveLC" x="273" y="523"/>
	<anchor name="belowLC" x="171" y="-20"/>
</glyph>
<glyph name="u" format="2">
	<unicode hex="0075"/>
	<advance width="667"/>
	<outline>
		<contour>
			<point x="277" y="-12" type="curve" smooth="yes"/>
			<point x="359" y="-12"/>
			<point x="414" y="31"/>
			<point x="461" y="92" type="curve"/>
			<point x="491" y="92" type="line"/>
			<point x="491" y="135" type="line"/>
			<point x="420" y="75"/>
			<point x="362" y="37"/>
			<point x="291" y="37" type="curve" smooth="yes"/>
			<point x="217" y="37"/>
			<point x="176" y="76"/>
			<point x="176" y="165" type="curve" smooth="yes"/>
			<point x="176" y="399" type="line"/>
			<point x="176" y="503" type="line"/>
			<point x="151" y="503" type="line"/>
			<point x="13" y="489" type="line"/>
			<point x="13" y="456" type="line"/>
			<point x="145" y="445" type="line"/>
			<point x="121" y="477" type="line"/>
			<point x="121" y="151" type="line" smooth="yes"/>
			<point x="121" y="45"/>
			<point x="180" y="-12"/>
		</contour>
		<contour>
			<point x="484" y="-4" type="line"/>
			<point x="633" y="0" type="line"/>
			<point x="633" y="36" type="line"/>
			<point x="530" y="44" type="line"/>
			<point x="530" y="399" type="line"/>
			<point x="530" y="503" type="line"/>
			<point x="505" y="503" type="line"/>
			<point x="368" y="489" type="line"/>
			<point x="368" y="456" type="line"/>
			<point x="475" y="448" type="line"/>
			<point x="475" y="97" type="line"/>
			<point x="480" y="97" type="line"/>
		</contour>
	</outline>
	<anchor name="aboveLC" x="322" y="523"/>
	<anchor name="belowLC" x="332" y="-20"/>
	<anchor name="hornLC" x="501" y="456"/>
	<anchor name="ogonek" x="562" y="0"/>
</glyph>
<glyph name="x" format="2">
	<unicode hex="0078"/>
	<advance width="602"/>
	<outline>
		<contour>
			<point x="27" y="0" type="line"/>
			<point x="242" y="0" type="line"/>
			<point x="242" y="40" type="line"/>
			<point x="141" y="40" type="line"/>
			<point x="117" y="40" type="line"/>
			<point x="27" y="40" type="line"/>
		</contour>
		<contour>
			<point x="72" y="0" type="line"/>
			<point x="127" y="0" type="line"/>
			<point x="205" y="113" type="line"/>
			<point x="275" y="238" type="line"/>
			<point x="301" y="238" type="line"/>
			<point x="279" y="271" type="line"/>
		</contour>
		<contour>
			<point x="343" y="0" type="line"/>
			<point x="575" y="0" type="line"/>
			<point x="575" y="40" type="line"/>
			<point x="481" y="40" type="line"/>
			<point x="448" y="40" type="line"/>
			<point x="343" y="40" type="line"/>
		</contour>
		<contour>
			<point x="321" y="244" type="line"/>
			<point x="520" y="503" type="line"/>
			<point x="467" y="503" type="line"/>
			<point x="392" y="395" type="line"/>
			<point x="324" y="274" type="line"/>
			<point x="298" y="274" type="line"/>
		</contour>
		<contour>
			<point x="463" y="0" type="line"/>
			<point x="533" y="0" type="line"/>
			<point x="319" y="270" type="line"/>
			<point x="142" y="503" type="line"/>
			<point x="74" y="503" type="line"/>
			<point x="279" y="244" type="line"/>
		</contour>
		<contour>
			<point x="32" y="466" type="line"/>
			<point x="128" y="460" type="line"/>
			<point x="156" y="460" type="line"/>
			<point x="263" y="466" type="line"/>
			<point x="263" y="503" type="line"/>
			<point x="32" y="503" type="line"/>
		</contour>
		<contour>
			<point x="351" y="466" type="line"/>
			<point x="452" y="460" type="line"/>
			<point x="471" y="460" type="line"/>
			<point x="564" y="466" type="line"/>
			<point x="564" y="503" type="line"/>
			<point x="351" y="503" type="line"/>
		</contour>
	</outline>
	<anchor name="aboveLC" x="312" y="523"/>
	<anchor name="belowLC" x="289" y="-20"/>
</glyph>
<glyph name="z" format="2">
	<unicode hex="007A"/>
	<advance width="516"/>
	<outline>
		<contour>
			<point x="44" y="0" type="line"/>
			<point x="462" y="0" type="line"/>
			<point x="470" y="157" type="line"/>
			<point x="430" y="157" type="line"/>
			<point x="406" y="11" type="line"/>
			<point x="425" y="37" type="line"/>
			<point x="263" y="37" type="line"/>
			<point x="109" y="29" type="line"/>
			<point x="109" y="49" type="line"/>
			<point x="103" y="31" type="line"/>
			<point x="452" y="470" type="line"/>
			<point x="452" y="503" type="line"/>
			<point x="57" y="503" type="line"/>
			<point x="49" y="349" type="line"/>
			<point x="89" y="349" type="line"/>
			<point x="115" y="492" type="line"/>
			<point x="94" y="466" type="line"/>
			<point x="244" y="466" type="line"/>
			<point x="386" y="473" type="line"/>
			<point x="386" y="454" type="line"/>
			<point x="392" y="472" type="line"/>
			<point x="44" y="33" type="line"/>
		</contour>
	</outline>
	<anchor name="aboveLC" x="260" y="523"/>
	<anchor name="belowLC" x="257" y="-20"/>
</glyph>
<glyph name="braceleft" format="2">
	<unicode hex="007B"/>
	<advance width="377"/>
	<outline>
		<contour>
			<point x="54" y="261" type="line"/>
			<point x="144" y="248"/>
			<point x="173" y="219"/>
			<point x="173" y="169" type="curve" smooth="yes"/>
			<point x="173" y="115"/>
			<point x="125" y="48"/>
			<point x="125" y="-36" type="curve" smooth="yes"/>
			<point x="125" y="-112"/>
			<point x="176" y="-160"/>
			<point x="289" y="-160" type="curve" smooth="yes"/>
			<point x="332" y="-160" type="line"/>
			<point x="332" y="-123" type="line"/>
			<point x="300" y="-120" type="line" smooth="yes"/>
			<point x="213" y="-114"/>
			<point x="182" y="-85"/>
			<point x="182" y="-30" type="curve" smooth="yes"/>
			<point x="182" y="32"/>
			<point x="216" y="101"/>
			<point x="216" y="172" type="curve" smooth="yes"/>
			<point x="216" y="232"/>
			<point x="175" y="267"/>
			<point x="81" y="272" type="curve"/>
			<point x="81" y="284" type="line"/>
			<point x="175" y="289"/>
			<point x="216" y="324"/>
			<point x="216" y="384" type="curve" smooth="yes"/>
			<point x="216" y="455"/>
			<point x="182" y="524"/>
			<point x="182" y="586" type="curve" smooth="yes"/>
			<point x="182" y="641"/>
			<point x="213" y="670"/>
			<point x="300" y="676" type="curve" smooth="yes"/>
			<point x="332" y="679" type="line"/>
			<point x="332" y="716" type="line"/>
			<point x="289" y="716" type="line" smooth="yes"/>
			<point x="176" y="716"/>
			<point x="125" y="668"/>
			<point x="125" y="592" type="curve" smooth="yes"/>
			<point x="125" y="508"/>
			<point x="173" y="441"/>
			<point x="173" y="387" type="curve" smooth="yes"/>
			<point x="173" y="337"/>
			<point x="144" y="308"/>
			<point x="54" y="295" type="curve"/>
		</contour>
	</outline>
</glyph>
<glyph name="bar" format="2">
	<unicode hex="007C"/>
	<advance width="288"/>
	<outline>
		<contour>
			<point x="121" y="-230" type="line"/>
			<point x="167" y="-230" type="line"/>
			<point x="167" y="745" type="line"/>
			<point x="121" y="745" type="line"/>
		</contour>
	</outline>
</glyph>
<glyph name="asciitilde" format="2">
	<unicode hex="007E"/>
	<advance width="538"/>
	<outline>
		<contour>
			<point x="286" y="361" type="curve" smooth="yes"/>
			<point x="253" y="402"/>
			<point x="219" y="423"/>
			<point x="177" y="423" type="curve" smooth="yes"/>
			<point x="109" y="423"/>
			<point x="69" y="376"/>
			<point x="57" y="281" type="curve"/>
			<point x="97" y="273" type="line"/>
			<point x="108" y="351"/>
			<point x="132" y="378"/>
			<point x="171" y="378" type="curve" smooth="yes"/>
			<point x="200" y="378"/>
			<point x="221" y="363"/>
			<point x="252" y="327" type="curve" smooth="yes"/>
			<point x="285" y="286"/>
			<point x="319" y="265"/>
			<point x="362" y="265" type="curve" smooth="yes"/>
			<point x="429" y="265"/>
			<point x="469" y="312"/>
			<point x="481" y="407" type="curve"/>
			<point x="441" y="415" type="line"/>
			<point x="430" y="337"/>
			<point x="406" y="310"/>
			<point x="367" y="310" type="curve" smooth="yes"/>
			<point x="338" y="310"/>
			<point x="317" y="325"/>
		</contour>
	</outline>
</glyph>
<glyph name="brokenbar" format="2">
	<unicode hex="00A6"/>
	<advance width="288"/>
	<outline>
		<contour>
			<point x="121" y="-230" type="line"/>
			<point x="167" y="-230" type="line"/>
			<point x="167" y="188" type="line"/>
			<point x="121" y="188" type="line"/>
		</contour>
		<contour>
			<point x="167" y="327" type="line"/>
			<point x="167" y="745" type="line"/>
			<point x="121" y="745" type="line"/>
			<point x="121" y="327" type="line"/>
		</contour>
	</outline>
</glyph>
<glyph name="section" format="2">
	<unicode hex="00A7"/>
	<advance width="496"/>
	<outline>
		<contour>
			<point x="237" y="-101" type="curve" smooth="yes"/>
			<point x="340" y="-101"/>
			<point x="402" y="-43"/>
			<point x="402" y="39" type="curve" smooth="yes"/>
			<point x="402" y="92"/>
			<point x="379" y="128"/>
			<point x="328" y="160" type="curve"/>
			<point x="322" y="163" type="line"/>
			<point x="301" y="176"/>
			<point x="274" y="189"/>
			<point x="243" y="202" type="curve" smooth="yes"/>
			<point x="144" y="244"/>
			<point x="114" y="274"/>
			<point x="114" y="327" type="curve" smooth="yes"/>
			<point x="114" y="380"/>
			<point x="142" y="418"/>
			<point x="184" y="443" type="curve"/>
			<point x="152" y="467" type="line"/>
			<point x="152" y="435" type="line"/>
			<point x="102" y="413"/>
			<point x="62" y="381"/>
			<point x="62" y="316" type="curve" smooth="yes"/>
			<point x="62" y="239"/>
			<point x="115" y="204"/>
			<point x="221" y="159" type="curve" smooth="yes"/>
			<point x="320" y="116"/>
			<point x="351" y="84"/>
			<point x="351" y="29" type="curve" smooth="yes"/>
			<point x="351" y="-25"/>
			<point x="314" y="-70"/>
			<point x="236" y="-70" type="curve" smooth="yes"/>
			<point x="191" y="-70"/>
			<point x="160" y="-63"/>
			<point x="134" y="-51" type="curve"/>
			<point x="163" y="-75" type="line"/>
			<point x="137" y="-5" type="line" smooth="yes"/>
			<point x="128" y="23"/>
			<point x="115" y="32"/>
			<point x="95" y="32" type="curve" smooth="yes"/>
			<point x="78" y="32"/>
			<point x="67" y="23"/>
			<point x="63" y="7" type="curve"/>
			<point x="82" y="-60"/>
			<point x="146" y="-101"/>
		</contour>
		<contour>
			<point x="247" y="690" type="curve" smooth="yes"/>
			<point x="148" y="690"/>
			<point x="86" y="635"/>
			<point x="86" y="557" type="curve" smooth="yes"/>
			<point x="86" y="507"/>
			<point x="109" y="475"/>
			<point x="160" y="444" type="curve"/>
			<point x="165" y="442" type="line"/>
			<point x="187" y="429"/>
			<point x="213" y="416"/>
			<point x="245" y="403" type="curve" smooth="yes"/>
			<point x="344" y="361"/>
			<point x="374" y="331"/>
			<point x="374" y="278" type="curve" smooth="yes"/>
			<point x="374" y="225"/>
			<point x="346" y="187"/>
			<point x="304" y="162" type="curve"/>
			<point x="336" y="138" type="line"/>
			<point x="336" y="169" type="line"/>
			<point x="386" y="191"/>
			<point x="426" y="224"/>
			<point x="426" y="289" type="curve" smooth="yes"/>
			<point x="426" y="366"/>
			<point x="373" y="401"/>
			<point x="267" y="446" type="curve" smooth="yes"/>
			<point x="168" y="489"/>
			<point x="137" y="517"/>
			<point x="137" y="567" type="curve" smooth="yes"/>
			<point x="137" y="618"/>
			<point x="174" y="659"/>
			<point x="248" y="659" type="curve" smooth="yes"/>
			<point x="289" y="659"/>
			<point x="320" y="651"/>
			<point x="346" y="639" type="curve"/>
			<point x="317" y="663" type="line"/>
			<point x="343" y="593" type="line" smooth="yes"/>
			<point x="352" y="565"/>
			<point x="365" y="556"/>
			<point x="385" y="556" type="curve" smooth="yes"/>
			<point x="402" y="556"/>
			<point x="413" y="565"/>
			<point x="417" y="582" type="curve"/>
			<point x="398" y="648"/>
			<point x="334" y="690"/>
		</contour>
	</outline>
</glyph>
<glyph name="degree" format="2">
	<unicode hex="00B0"/>
	<advance width="350"/>
	<outline>
		<contour>
			<point x="175" y="457" type="curve" smooth="yes"/>
			<point x="119" y="457"/>
			<point x="79" y="499"/>
			<point x="79" y="556" type="curve" smooth="yes"/>
			<point x="79" y="614"/>
			<point x="119" y="656"/>
			<point x="175" y="656" type="curve" smooth="yes"/>
			<point x="231" y="656"/>
			<point x="271" y="614"/>
			<point x="271" y="556" type="curve" smooth="yes"/>
			<point x="271" y="499"/>
			<point x="231" y="457"/>
		</contour>
		<contour>
			<point x="175" y="423" type="curve" smooth="yes"/>
			<point x="252" y="423"/>
			<point x="310" y="476"/>
			<point x="310" y="556" type="curve" smooth="yes"/>
			<point x="310" y="637"/>
			<point x="252" y="690"/>
			<point x="175" y="690" type="curve" smooth="yes"/>
			<point x="97" y="690"/>
			<point x="40" y="637"/>
			<point x="40" y="556" type="curve" smooth="yes"/>
			<point x="40" y="476"/>
			<point x="97" y="423"/>
		</contour>
	</outline>
</glyph>
<glyph name="plusminus" format="2">
	<unicode hex="00B1"/>
	<advance width="538"/>
	<outline>
		<contour>
			<point x="245" y="100" type="line"/>
			<point x="293" y="100" type="line"/>
			<point x="293" y="560" type="line"/>
			<point x="245" y="560" type="line"/>
		</contour>
		<contour>
			<point x="498" y="308" type="line"/>
			<point x="498" y="352" type="line"/>
			<point x="40" y="352" type="line"/>
			<point x="40" y="308" type="line"/>
		</contour>
		<contour>
			<point x="498" y="0" type="line"/>
			<point x="498" y="45" type="line"/>
			<point x="40" y="45" type="line"/>
			<point x="40" y="0" type="line"/>
		</contour>
	</outline>
</glyph>
<glyph name="three.sups" format="2">
	<unicode hex="00B3"/>
	<advance width="376"/>
	<outline>
		<contour>
			<point x="177" y="420" type="curve" smooth="yes"/>
			<point x="280" y="420"/>
			<point x="336" y="473"/>
			<point x="336" y="542" type="curve" smooth="yes"/>
			<point x="336" y="614"/>
			<point x="283" y="644"/>
			<point x="193" y="647" type="curve"/>
			<point x="193" y="654" type="line"/>
			<point x="275" y="657"/>
			<point x="326" y="697"/>
			<point x="326" y="760" type="curve" smooth="yes"/>
			<point x="326" y="821"/>
			<point x="271" y="862"/>
			<point x="188" y="862" type="curve" smooth="yes"/>
			<point x="118" y="862"/>
			<point x="68" y="831"/>
			<point x="55" y="777" type="curve"/>
			<point x="58" y="765"/>
			<point x="66" y="754"/>
			<point x="84" y="754" type="curve" smooth="yes"/>
			<point x="101" y="754"/>
			<point x="112" y="764"/>
			<point x="118" y="788" type="curve" smooth="yes"/>
			<point x="130" y="839" type="line"/>
			<point x="98" y="816" type="line"/>
			<point x="120" y="827"/>
			<point x="144" y="833"/>
			<point x="175" y="833" type="curve" smooth="yes"/>
			<point x="239" y="833"/>
			<point x="270" y="802"/>
			<point x="270" y="753" type="curve" smooth="yes"/>
			<point x="270" y="702"/>
			<point x="238" y="665"/>
			<point x="157" y="665" type="curve" smooth="yes"/>
			<point x="134" y="665" type="line"/>
			<point x="134" y="634" type="line"/>
			<point x="159" y="634" type="line" smooth="yes"/>
			<point x="243" y="634"/>
			<point x="281" y="600"/>
			<point x="281" y="544" type="curve" smooth="yes"/>
			<point x="281" y="487"/>
			<point x="244" y="449"/>
			<point x="173" y="449" type="curve" smooth="yes"/>
			<point x="134" y="449"/>
			<point x="107" y="455"/>
			<point x="87" y="466" type="curve"/>
			<point x="118" y="441" type="line"/>
			<point x="106" y="493" type="line" smooth="yes"/>
			<point x="100" y="519"/>
			<point x="89" y="530"/>
			<point x="71" y="530" type="curve" smooth="yes"/>
			<point x="53" y="530"/>
			<point x="44" y="519"/>
			<point x="42" y="504" type="curve"/>
			<point x="55" y="450"/>
			<point x="101" y="420"/>
		</contour>
	</outline>
</glyph>
<glyph name="one.sups" format="2">
	<unicode hex="00B9"/>
	<advance width="278"/>
	<outline>
		<contour>
			<point x="38" y="410" type="line"/>
			<point x="255" y="410" type="line"/>
			<point x="255" y="445" type="line"/>
			<point x="161" y="445" type="line"/>
			<point x="138" y="445" type="line"/>
			<point x="38" y="445" type="line"/>
		</contour>
		<contour>
			<point x="123" y="410" type="line"/>
			<point x="176" y="410" type="line"/>
			<point x="176" y="851" type="line"/>
			<point x="155" y="851" type="line"/>
			<point x="37" y="815" type="line"/>
			<point x="37" y="783" type="line"/>
			<point x="123" y="801" type="line"/>
		</contour>
	</outline>
</glyph>
<glyph name="divide" format="2">
	<unicode hex="00F7"/>
	<advance width="538"/>
	<outline>
		<contour>
			<point x="269" y="98" type="curve" smooth="yes"/>
			<point x="295" y="98"/>
			<point x="314" y="117"/>
			<point x="314" y="141" type="curve" smooth="yes"/>
			<point x="314" y="166"/>
			<point x="295" y="184"/>
			<point x="269" y="184" type="curve" smooth="yes"/>
			<point x="243" y="184"/>
			<point x="224" y="166"/>
			<point x="224" y="141" type="curve" smooth="yes"/>
			<point x="224" y="117"/>
			<point x="243" y="98"/>
		</contour>
		<contour>
			<point x="269" y="480" type="curve" smooth="yes"/>
			<point x="295" y="480"/>
			<point x="314" y="500"/>
			<point x="314" y="523" type="curve" smooth="yes"/>
			<point x="314" y="549"/>
			<point x="295" y="567"/>
			<point x="269" y="567" type="curve" smooth="yes"/>
			<point x="243" y="567"/>
			<point x="224" y="549"/>
			<point x="224" y="523" type="curve" smooth="yes"/>
			<point x="224" y="500"/>
			<point x="243" y="480"/>
		</contour>
		<component base="minus"/>
	</outline>
</glyph>
<glyph name="oslash" format="2">
	<unicode hex="00F8"/>
	<advance width="608"/>
	<outline>
		<contour>
			<point x="529" y="492" type="line"/>
			<point x="503" y="515" type="line"/>
			<point x="79" y="8" type="line"/>
			<point x="105" y="-15" type="line"/>
		</contour>
		<contour>
			<point x="304" y="-12" type="curve" smooth="yes"/>
			<point x="435" y="-12"/>
			<point x="550" y="87"/>
			<point x="550" y="253" type="curve" smooth="yes"/>
			<point x="550" y="419"/>
			<point x="435" y="515"/>
			<point x="304" y="515" type="curve" smooth="yes"/>
			<point x="173" y="515"/>
			<point x="58" y="417"/>
			<point x="58" y="251" type="curve" smooth="yes"/>
			<point x="58" y="84"/>
			<point x="173" y="-12"/>
		</contour>
		<contour>
			<point x="304" y="26" type="curve" smooth="yes"/>
			<point x="196" y="26"/>
			<point x="115" y="105"/>
			<point x="115" y="253" type="curve" smooth="yes"/>
			<point x="115" y="400"/>
			<point x="196" y="477"/>
			<point x="304" y="477" type="curve" smooth="yes"/>
			<point x="412" y="477"/>
			<point x="493" y="398"/>
			<point x="493" y="249" type="curve" smooth="yes"/>
			<point x="493" y="103"/>
			<point x="412" y="26"/>
		</contour>
	</outline>
	<anchor name="aboveLC" x="304" y="523"/>
</glyph>
<glyph name="thorn" format="2">
	<unicode hex="00FE"/>
	<advance width="652"/>
	<outline>
		<contour>
			<point x="142" y="-234" type="curve"/>
			<point x="198" y="-234" type="line"/>
			<point x="198" y="-163"/>
			<point x="198" y="-91"/>
			<point x="198" y="-20" type="curve" smooth="yes"/>
			<point x="193" y="96" type="line"/>
			<point x="198" y="96" type="line"/>
			<point x="198" y="395" type="line"/>
			<point x="194" y="395" type="line"/>
			<point x="198" y="610" type="line"/>
			<point x="198" y="735" type="line"/>
			<point x="173" y="735" type="line"/>
			<point x="35" y="719" type="line"/>
			<point x="35" y="686" type="line"/>
			<point x="142" y="676" type="line"/>
			<point x="142" y="-14" type="line" smooth="yes"/>
			<point x="142" y="-87"/>
			<point x="142" y="-161"/>
		</contour>
		<contour>
			<point x="375" y="-12" type="curve" smooth="yes"/>
			<point x="500" y="-12"/>
			<point x="594" y="83"/>
			<point x="594" y="253" type="curve" smooth="yes"/>
			<point x="594" y="424"/>
			<point x="500" y="515"/>
			<point x="375" y="515" type="curve" smooth="yes"/>
			<point x="289" y="515"/>
			<point x="247" y="469"/>
			<point x="212" y="410" type="curve"/>
			<point x="181" y="410" type="line"/>
			<point x="181" y="348" type="line"/>
			<point x="237" y="427"/>
			<point x="283" y="471"/>
			<point x="360" y="471" type="curve" smooth="yes"/>
			<point x="463" y="471"/>
			<point x="535" y="399"/>
			<point x="535" y="251" type="curve" smooth="yes"/>
			<point x="535" y="102"/>
			<point x="463" y="31"/>
			<point x="360" y="31" type="curve" smooth="yes"/>
			<point x="283" y="31"/>
			<point x="237" y="75"/>
			<point x="181" y="153" type="curve"/>
			<point x="181" y="91" type="line"/>
			<point x="213" y="91" type="line"/>
			<point x="247" y="33"/>
			<point x="289" y="-12"/>
		</contour>
		<contour>
			<point x="43" y="-234" type="line"/>
			<point x="311" y="-234" type="line"/>
			<point x="311" y="-195" type="line"/>
			<point x="181" y="-195" type="line"/>
			<point x="159" y="-195" type="line"/>
			<point x="43" y="-195" type="line"/>
		</contour>
	</outline>
	<anchor name="aboveLC" x="171" y="745"/>
	<anchor name="belowLC" x="392" y="-20"/>
</glyph>
<glyph name="dcroat" format="2">
	<unicode hex="0111"/>
	<advance width="655"/>
	<outline>
		<contour>
			<point x="284" y="565" type="line"/>
			<point x="615" y="565" type="line"/>
			<point x="615" y="597" type="line"/>
			<point x="284" y="597" type="line"/>
		</contour>
		<contour>
			<point x="117" y="248" type="curve" smooth="yes"/>
			<point x="117" y="397"/>
			<point x="189" y="464"/>
			<point x="292" y="464" type="curve" smooth="yes"/>
			<point x="369" y="464"/>
			<point x="416" y="420"/>
			<point x="472" y="342" type="curve"/>
			<point x="472" y="404" type="line"/>
			<point x="440" y="404" type="line"/>
			<point x="405" y="461"/>
			<point x="363" y="507"/>
			<point x="278" y="507" type="curve" smooth="yes"/>
			<point x="153" y="507"/>
			<point x="58" y="416"/>
			<point x="58" y="245" type="curve" smooth="yes"/>
			<point x="58" y="75"/>
			<point x="153" y="-12"/>
			<point x="278" y="-12" type="curve" smooth="yes"/>
			<point x="363" y="-12"/>
			<point x="405" y="33"/>
			<point x="440" y="92" type="curve"/>
			<point x="472" y="92" type="line"/>
			<point x="472" y="155" type="line"/>
			<point x="416" y="76"/>
			<point x="369" y="32"/>
			<point x="292" y="32" type="curve" smooth="yes"/>
			<point x="189" y="32"/>
			<point x="117" y="100"/>
		</contour>
		<contour>
			<point x="612" y="0" type="line"/>
			<point x="612" y="37" type="line"/>
			<point x="510" y="45" type="line"/>
			<point x="510" y="621" type="line"/>
			<point x="510" y="735" type="line"/>
			<point x="485" y="735" type="line"/>
			<point x="348" y="719" type="line"/>
			<point x="348" y="686" type="line"/>
			<point x="455" y="676" type="line"/>
			<point x="458" y="382" type="line"/>
			<point x="455" y="382" type="line"/>
			<point x="455" y="105" type="line"/>
			<point x="457" y="105" type="line"/>
			<point x="462" y="-3" type="line"/>
		</contour>
	</outline>
</glyph>
<glyph name="eogonek" format="2">
	<unicode hex="0119"/>
	<advance width="559"/>
	<outline>
		<contour>
			<point x="380" y="-228" type="curve" smooth="yes"/>
			<point x="419" y="-228"/>
			<point x="439" y="-214"/>
			<point x="454" y="-204" type="curve"/>
			<point x="444" y="-177" type="line"/>
			<point x="430" y="-185"/>
			<point x="413" y="-190"/>
			<point x="391" y="-190" type="curve" smooth="yes"/>
			<point x="355" y="-190"/>
			<point x="329" y="-166"/>
			<point x="329" y="-122" type="curve" smooth="yes"/>
			<point x="329" y="-69"/>
			<point x="362" y="-33"/>
			<point x="417" y="5" type="curve" smooth="yes"/>
			<point x="451" y="30"/>
			<point x="482" y="58"/>
			<point x="500" y="83" type="curve"/>
			<point x="473" y="107" type="line"/>
			<point x="437" y="65"/>
			<point x="392" y="32"/>
			<point x="313" y="32" type="curve" smooth="yes"/>
			<point x="198" y="32"/>
			<point x="116" y="111"/>
			<point x="116" y="253" type="curve" smooth="yes"/>
			<point x="116" y="395"/>
			<point x="193" y="476"/>
			<point x="293" y="476" type="curve" smooth="yes"/>
			<point x="396" y="476"/>
			<point x="447" y="413"/>
			<point x="447" y="319" type="curve" smooth="yes"/>
			<point x="447" y="305"/>
			<point x="446" y="289"/>
			<point x="444" y="281" type="curve" smooth="yes"/>
			<point x="98" y="281" type="line"/>
			<point x="98" y="246" type="line"/>
			<point x="496" y="246" type="line"/>
			<point x="499" y="260"/>
			<point x="501" y="286"/>
			<point x="501" y="311" type="curve" smooth="yes"/>
			<point x="501" y="430"/>
			<point x="428" y="515"/>
			<point x="295" y="515" type="curve" smooth="yes"/>
			<point x="161" y="515"/>
			<point x="58" y="413"/>
			<point x="58" y="247" type="curve" smooth="yes"/>
			<point x="58" y="86"/>
			<point x="156" y="-12"/>
			<point x="303" y="-12" type="curve" smooth="yes"/>
			<point x="326" y="-12"/>
			<point x="350" y="-7"/>
			<point x="364" y="-2" type="curve"/>
			<point x="368" y="-11" type="line"/>
			<point x="324" y="-35"/>
			<point x="286" y="-74"/>
			<point x="286" y="-132" type="curve" smooth="yes"/>
			<point x="286" y="-194"/>
			<point x="325" y="-228"/>
		</contour>
	</outline>
	<anchor name="aboveLC" x="301" y="523"/>
</glyph>
<glyph name="Hbar" format="2">
	<unicode hex="0126"/>
	<advance width="845"/>
	<outline>
		<contour>
			<point x="156" y="0" type="curve"/>
			<point x="219" y="0" type="line"/>
			<point x="219" y="101"/>
			<point x="219" y="203"/>
			<point x="219" y="320" type="curve" smooth="yes"/>
			<point x="219" y="336" type="line" smooth="yes"/>
			<point x="219" y="471"/>
			<point x="219" y="572"/>
			<point x="219" y="674" type="curve"/>
			<point x="156" y="674" type="line"/>
			<point x="156" y="572"/>
			<point x="156" y="472"/>
			<point x="156" y="370" type="curve" smooth="yes"/>
			<point x="156" y="304" type="line" smooth="yes"/>
			<point x="156" y="203"/>
			<point x="156" y="101"/>
		</contour>
		<contour>
			<point x="626" y="0" type="curve"/>
			<point x="689" y="0" type="line"/>
			<point x="689" y="101"/>
			<point x="689" y="203"/>
			<point x="689" y="304" type="curve" smooth="yes"/>
			<point x="689" y="370" type="line" smooth="yes"/>
			<point x="689" y="472"/>
			<point x="689" y="572"/>
			<point x="689" y="674" type="curve"/>
			<point x="626" y="674" type="line"/>
			<point x="626" y="572"/>
			<point x="626" y="472"/>
			<point x="626" y="336" type="curve" smooth="yes"/>
			<point x="626" y="320" type="line" smooth="yes"/>
			<point x="626" y="203"/>
			<point x="626" y="101"/>
		</contour>
		<contour>
			<point x="45" y="0" type="line"/>
			<point x="330" y="0" type="line"/>
			<point x="330" y="43" type="line"/>
			<point x="202" y="43" type="line"/>
			<point x="173" y="43" type="line"/>
			<point x="45" y="43" type="line"/>
		</contour>
		<contour>
			<point x="45" y="631" type="line"/>
			<point x="173" y="631" type="line"/>
			<point x="202" y="631" type="line"/>
			<point x="330" y="631" type="line"/>
			<point x="330" y="674" type="line"/>
			<point x="45" y="674" type="line"/>
		</contour>
		<contour>
			<point x="515" y="0" type="line"/>
			<point x="800" y="0" type="line"/>
			<point x="800" y="43" type="line"/>
			<point x="672" y="43" type="line"/>
			<point x="643" y="43" type="line"/>
			<point x="515" y="43" type="line"/>
		</contour>
		<contour>
			<point x="515" y="631" type="line"/>
			<point x="643" y="631" type="line"/>
			<point x="672" y="631" type="line"/>
			<point x="800" y="631" type="line"/>
			<point x="800" y="674" type="line"/>
			<point x="515" y="674" type="line"/>
		</contour>
		<contour>
			<point x="45" y="475" type="line"/>
			<point x="800" y="475" type="line"/>
			<point x="800" y="513" type="line"/>
			<point x="45" y="513" type="line"/>
		</contour>
		<contour>
			<point x="191" y="303" type="line"/>
			<point x="654" y="303" type="line"/>
			<point x="654" y="346" type="line"/>
			<point x="191" y="346" type="line"/>
		</contour>
	</outline>
</glyph>
<glyph name="hbar" format="2">
	<unicode hex="0127"/>
	<advance width="675"/>
	<outline>
		<contour>
			<point x="145" y="0" type="curve"/>
			<point x="200" y="0" type="line"/>
			<point x="200" y="70"/>
			<point x="200" y="141"/>
			<point x="200" y="211" type="curve" smooth="yes"/>
			<point x="200" y="383" type="line"/>
			<point x="200" y="385" type="line"/>
			<point x="200" y="621" type="line"/>
			<point x="200" y="735" type="line"/>
			<point x="175" y="735" type="line"/>
			<point x="37" y="719" type="line"/>
			<point x="37" y="686" type="line"/>
			<point x="145" y="676" type="line"/>
			<point x="145" y="211" type="line" smooth="yes"/>
			<point x="145" y="141"/>
			<point x="145" y="70"/>
		</contour>
		<contour>
			<point x="45" y="0" type="line"/>
			<point x="299" y="0" type="line"/>
			<point x="299" y="40" type="line"/>
			<point x="183" y="40" type="line"/>
			<point x="161" y="40" type="line"/>
			<point x="45" y="40" type="line"/>
		</contour>
		<contour>
			<point x="401" y="0" type="line"/>
			<point x="653" y="0" type="line"/>
			<point x="653" y="40" type="line"/>
			<point x="537" y="40" type="line"/>
			<point x="516" y="40" type="line"/>
			<point x="401" y="40" type="line"/>
		</contour>
		<contour>
			<point x="40" y="561" type="line"/>
			<point x="371" y="561" type="line"/>
			<point x="371" y="593" type="line"/>
			<point x="40" y="593" type="line"/>
		</contour>
		<contour>
			<point x="499" y="0" type="curve"/>
			<point x="554" y="0" type="line"/>
			<point x="554" y="70"/>
			<point x="554" y="141"/>
			<point x="554" y="211" type="curve" smooth="yes"/>
			<point x="554" y="343" type="line" smooth="yes"/>
			<point x="554" y="449"/>
			<point x="495" y="506"/>
			<point x="398" y="506" type="curve" smooth="yes"/>
			<point x="316" y="506"/>
			<point x="263" y="463"/>
			<point x="218" y="402" type="curve"/>
			<point x="184" y="402" type="line"/>
			<point x="184" y="359" type="line"/>
			<point x="255" y="419"/>
			<point x="313" y="458"/>
			<point x="384" y="458" type="curve" smooth="yes"/>
			<point x="458" y="458"/>
			<point x="499" y="418"/>
			<point x="499" y="329" type="curve" smooth="yes"/>
			<point x="499" y="211" type="line" smooth="yes"/>
			<point x="499" y="141"/>
			<point x="499" y="70"/>
		</contour>
	</outline>
</glyph>
<glyph name="kgreenlandic" format="2">
	<unicode hex="0138"/>
	<advance width="635"/>
	<outline>
		<contour>
			<point x="45" y="0" type="line"/>
			<point x="299" y="0" type="line"/>
			<point x="299" y="40" type="line"/>
			<point x="183" y="40" type="line"/>
			<point x="161" y="40" type="line"/>
			<point x="45" y="40" type="line"/>
		</contour>
		<contour>
			<point x="145" y="0" type="curve"/>
			<point x="200" y="0" type="line"/>
			<point x="200" y="73"/>
			<point x="200" y="147"/>
			<point x="200" y="197" type="curve" smooth="yes"/>
			<point x="200" y="400" type="line"/>
			<point x="200" y="503" type="line"/>
			<point x="175" y="503" type="line"/>
			<point x="41" y="478" type="line"/>
			<point x="41" y="444" type="line"/>
			<point x="145" y="444" type="line"/>
			<point x="145" y="387"/>
			<point x="145" y="331"/>
			<point x="145" y="273" type="curve" smooth="yes"/>
			<point x="145" y="220" type="line" smooth="yes"/>
			<point x="145" y="147"/>
			<point x="145" y="73"/>
		</contour>
		<contour>
			<point x="188" y="149" type="line"/>
			<point x="553" y="503" type="line"/>
			<point x="495" y="503" type="line"/>
			<point x="214" y="217" type="line"/>
			<point x="188" y="217" type="line"/>
		</contour>
		<contour>
			<point x="473" y="0" type="line"/>
			<point x="613" y="0" type="line"/>
			<point x="613" y="38" type="line"/>
			<point x="502" y="43" type="line"/>
			<point x="522" y="30" type="line"/>
			<point x="341" y="329" type="line"/>
			<point x="301" y="295" type="line"/>
		</contour>
		<contour>
			<point x="471" y="460" type="line"/>
			<point x="487" y="460" type="line"/>
			<point x="601" y="466" type="line"/>
			<point x="601" y="503" type="line"/>
			<point x="352" y="503" type="line"/>
			<point x="352" y="466" type="line"/>
		</contour>
	</outline>
</glyph>
<glyph name="Lslash" format="2">
	<unicode hex="0141"/>
	<advance width="633"/>
	<outline>
		<contour>
			<point x="417" y="465" type="line"/>
			<point x="198" y="339" type="line"/>
			<point x="198" y="297" type="line"/>
			<point x="417" y="423" type="line"/>
		</contour>
		<contour>
			<point x="183" y="334" type="line"/>
			<point x="53" y="259" type="line"/>
			<point x="53" y="218" type="line"/>
			<point x="183" y="291" type="line"/>
		</contour>
		<component base="L"/>
	</outline>
</glyph>
<glyph name="Eng" format="2">
	<unicode hex="014A"/>
	<advance width="825"/>
	<outline>
		<contour>
			<point x="49" y="0" type="line"/>
			<point x="326" y="0" type="line"/>
			<point x="326" y="43" type="line"/>
			<point x="195" y="43" type="line"/>
			<point x="171" y="43" type="line"/>
			<point x="49" y="43" type="line"/>
		</contour>
		<contour>
			<point x="160" y="0" type="line"/>
			<point x="205" y="0" type="line"/>
			<point x="203" y="650" type="line"/>
			<point x="160" y="650" type="line"/>
		</contour>
		<contour>
			<point x="509" y="-125" type="curve" smooth="yes"/>
			<point x="559" y="-125"/>
			<point x="596" y="-104"/>
			<point x="623" y="-71" type="curve" smooth="yes"/>
			<point x="660" y="-28"/>
			<point x="678" y="31"/>
			<point x="678" y="144" type="curve" smooth="yes"/>
			<point x="678" y="674" type="line"/>
			<point x="632" y="674" type="line"/>
			<point x="635" y="129" type="line" smooth="yes"/>
			<point x="635" y="-2"/>
			<point x="611" y="-54"/>
			<point x="554" y="-90" type="curve"/>
			<point x="574" y="-87" type="line"/>
			<point x="533" y="-87" type="line"/>
			<point x="553" y="-92" type="line"/>
			<point x="542" y="-80" type="line" smooth="yes"/>
			<point x="527" y="-64"/>
			<point x="510" y="-54"/>
			<point x="485" y="-54" type="curve" smooth="yes"/>
			<point x="457" y="-54"/>
			<point x="438" y="-66"/>
			<point x="435" y="-88" type="curve"/>
			<point x="439" y="-112"/>
			<point x="465" y="-125"/>
		</contour>
		<contour>
			<point x="632" y="-3" type="line"/>
			<point x="654" y="-3" type="line"/>
			<point x="654" y="109" type="line"/>
			<point x="624" y="109" type="line"/>
			<point x="215" y="674" type="line"/>
			<point x="49" y="674" type="line"/>
			<point x="49" y="631" type="line"/>
			<point x="170" y="631" type="line"/>
			<point x="170" y="574" type="line"/>
			<point x="213" y="574" type="line"/>
		</contour>
		<contour>
			<point x="643" y="631" type="line"/>
			<point x="666" y="631" type="line"/>
			<point x="785" y="631" type="line"/>
			<point x="785" y="674" type="line"/>
			<point x="511" y="674" type="line"/>
			<point x="511" y="631" type="line"/>
		</contour>
	</outline>
</glyph>
<glyph name="oe" format="2">
	<unicode hex="0153"/>
	<advance width="980"/>
	<outline>
		<contour>
			<point x="301" y="-12" type="curve" smooth="yes"/>
			<point x="401" y="-12"/>
			<point x="486" y="53"/>
			<point x="509" y="143" type="curve"/>
			<point x="517" y="143" type="line"/>
			<point x="539" y="53"/>
			<point x="624" y="-12"/>
			<point x="726" y="-12" type="curve" smooth="yes"/>
			<point x="830" y="-12"/>
			<point x="889" y="34"/>
			<point x="925" y="83" type="curve"/>
			<point x="898" y="107" type="line"/>
			<point x="862" y="65"/>
			<point x="814" y="32"/>
			<point x="736" y="32" type="curve" smooth="yes"/>
			<point x="623" y="32"/>
			<point x="542" y="112"/>
			<point x="542" y="251" type="curve" smooth="yes"/>
			<point x="542" y="393"/>
			<point x="614" y="476"/>
			<point x="718" y="476" type="curve" smooth="yes"/>
			<point x="816" y="476"/>
			<point x="870" y="414"/>
			<point x="870" y="322" type="curve" smooth="yes"/>
			<point x="870" y="306"/>
			<point x="869" y="291"/>
			<point x="867" y="281" type="curve" smooth="yes"/>
			<point x="525" y="281" type="line"/>
			<point x="525" y="246" type="line"/>
			<point x="917" y="246" type="line"/>
			<point x="920" y="260"/>
			<point x="923" y="287"/>
			<point x="923" y="315" type="curve" smooth="yes"/>
			<point x="923" y="434"/>
			<point x="847" y="515"/>
			<point x="720" y="515" type="curve" smooth="yes"/>
			<point x="624" y="515"/>
			<point x="540" y="450"/>
			<point x="518" y="357" type="curve"/>
			<point x="509" y="357" type="line"/>
			<point x="486" y="450"/>
			<point x="400" y="515"/>
			<point x="301" y="515" type="curve" smooth="yes"/>
			<point x="172" y="515"/>
			<point x="58" y="417"/>
			<point x="58" y="251" type="curve" smooth="yes"/>
			<point x="58" y="83"/>
			<point x="171" y="-12"/>
		</contour>
		<contour>
			<point x="301" y="28" type="curve" smooth="yes"/>
			<point x="197" y="28"/>
			<point x="117" y="106"/>
			<point x="117" y="253" type="curve" smooth="yes"/>
			<point x="117" y="400"/>
			<point x="197" y="475"/>
			<point x="301" y="475" type="curve" smooth="yes"/>
			<point x="406" y="475"/>
			<point x="486" y="397"/>
			<point x="486" y="249" type="curve" smooth="yes"/>
			<point x="486" y="103"/>
			<point x="406" y="28"/>
		</contour>
	</outline>
	<anchor name="aboveLC" x="513" y="523"/>
</glyph>
<glyph name="tbar" format="2">
	<unicode hex="0167"/>
	<advance width="384"/>
	<outline>
		<contour>
			<point x="25" y="272" type="line"/>
			<point x="345" y="272" type="line"/>
			<point x="345" y="304" type="line"/>
			<point x="25" y="304" type="line"/>
		</contour>
		<component base="t"/>
	</outline>
</glyph>
<glyph name="Uogonek" format="2">
	<unicode hex="0172"/>
	<advance width="801"/>
	<outline>
		<contour>
			<point x="157" y="631" type="line"/>
			<point x="197" y="631" type="line"/>
			<point x="328" y="631" type="line"/>
			<point x="328" y="674" type="line"/>
			<point x="37" y="674" type="line"/>
			<point x="37" y="631" type="line"/>
		</contour>
		<contour>
			<point x="505" y="-228" type="curve" smooth="yes"/>
			<point x="544" y="-228"/>
			<point x="564" y="-214"/>
			<point x="579" y="-204" type="curve"/>
			<point x="569" y="-177" type="line"/>
			<point x="554" y="-185"/>
			<point x="537" y="-190"/>
			<point x="515" y="-190" type="curve" smooth="yes"/>
			<point x="480" y="-190"/>
			<point x="453" y="-165"/>
			<point x="453" y="-121" type="curve" smooth="yes"/>
			<point x="453" y="-71"/>
			<point x="480" y="-31"/>
			<point x="531" y="4" type="curve" smooth="yes"/>
			<point x="603" y="53"/>
			<point x="656" y="119"/>
			<point x="656" y="257" type="curve" smooth="yes"/>
			<point x="656" y="674" type="line"/>
			<point x="611" y="674" type="line"/>
			<point x="611" y="261" type="line" smooth="yes"/>
			<point x="611" y="96"/>
			<point x="531" y="27"/>
			<point x="410" y="27" type="curve" smooth="yes"/>
			<point x="289" y="27"/>
			<point x="208" y="96"/>
			<point x="208" y="261" type="curve" smooth="yes"/>
			<point x="208" y="360" type="line" smooth="yes"/>
			<point x="208" y="465"/>
			<point x="208" y="569"/>
			<point x="208" y="674" type="curve"/>
			<point x="146" y="674" type="line"/>
			<point x="146" y="569"/>
			<point x="146" y="465"/>
			<point x="146" y="360" type="curve" smooth="yes"/>
			<point x="146" y="253" type="line" smooth="yes"/>
			<point x="146" y="71"/>
			<point x="252" y="-15"/>
			<point x="398" y="-15" type="curve" smooth="yes"/>
			<point x="443" y="-15"/>
			<point x="474" y="-1"/>
			<point x="488" y="7" type="curve"/>
			<point x="493" y="-3" type="line"/>
			<point x="447" y="-33"/>
			<point x="411" y="-72"/>
			<point x="411" y="-132" type="curve" smooth="yes"/>
			<point x="411" y="-194"/>
			<point x="450" y="-228"/>
		</contour>
		<contour>
			<point x="622" y="631" type="line"/>
			<point x="645" y="631" type="line"/>
			<point x="764" y="631" type="line"/>
			<point x="764" y="674" type="line"/>
			<point x="492" y="674" type="line"/>
			<point x="492" y="631" type="line"/>
		</contour>
	</outline>
	<anchor name="aboveUC" x="416" y="694"/>
</glyph>
<glyph name="uogonek" format="2">
	<unicode hex="0173"/>
	<advance width="667"/>
	<outline>
		<contour>
			<point x="563" y="-228" type="curve" smooth="yes"/>
			<point x="602" y="-228"/>
			<point x="622" y="-214"/>
			<point x="637" y="-204" type="curve"/>
			<point x="627" y="-177" type="line"/>
			<point x="612" y="-185"/>
			<point x="595" y="-190"/>
			<point x="573" y="-190" type="curve" smooth="yes"/>
			<point x="538" y="-190"/>
			<point x="511" y="-165"/>
			<point x="511" y="-118" type="curve" smooth="yes"/>
			<point x="511" y="-66"/>
			<point x="541" y="-34"/>
			<point x="576" y="7" type="curve"/>
			<point x="543" y="7" type="line"/>
			<point x="543" y="-15" type="line"/>
			<point x="502" y="-40"/>
			<point x="469" y="-73"/>
			<point x="469" y="-133" type="curve" smooth="yes"/>
			<point x="469" y="-194"/>
			<point x="508" y="-228"/>
		</contour>
		<component base="u"/>
	</outline>
	<anchor name="aboveLC" x="322" y="523"/>
</glyph>
<glyph name="longs" format="2">
	<unicode hex="017F"/>
	<advance width="360"/>
	<outline>
		<contour>
			<point x="39" y="0" type="line"/>
			<point x="309" y="0" type="line"/>
			<point x="309" y="40" type="line"/>
			<point x="183" y="40" type="line"/>
			<point x="149" y="40" type="line"/>
			<point x="39" y="40" type="line"/>
		</contour>
		<contour>
			<point x="138" y="0" type="curve"/>
			<point x="194" y="0" type="line"/>
			<point x="194" y="73"/>
			<point x="194" y="147"/>
			<point x="194" y="220" type="curve" smooth="yes"/>
			<point x="194" y="489" type="line" smooth="yes"/>
			<point x="194" y="593"/>
			<point x="213" y="648"/>
			<point x="254" y="692" type="curve" smooth="yes"/>
			<point x="273" y="709"/>
			<point x="286" y="716"/>
			<point x="304" y="724" type="curve"/>
			<point x="282" y="717" type="line"/>
			<point x="325" y="717" type="line"/>
			<point x="306" y="724" type="line"/>
			<point x="328" y="707" type="line" smooth="yes"/>
			<point x="357" y="685"/>
			<point x="374" y="672"/>
			<point x="401" y="672" type="curve" smooth="yes"/>
			<point x="427" y="672"/>
			<point x="439" y="688"/>
			<point x="441" y="704" type="curve"/>
			<point x="431" y="730"/>
			<point x="397" y="747"/>
			<point x="344" y="747" type="curve" smooth="yes"/>
			<point x="300" y="747"/>
			<point x="259" y="733"/>
			<point x="224" y="704" type="curve" smooth="yes"/>
			<point x="176" y="664"/>
			<point x="138" y="601"/>
			<point x="138" y="481" type="curve" smooth="yes"/>
			<point x="138" y="220" type="line" smooth="yes"/>
			<point x="138" y="147"/>
			<point x="138" y="73"/>
		</contour>
	</outline>
</glyph>
<glyph name="Uhorn" format="2">
	<unicode hex="01AF"/>
	<advance width="801"/>
	<outline>
		<contour>
			<point x="404" y="-16" type="curve" smooth="yes"/>
			<point x="555" y="-16"/>
			<point x="656" y="74"/>
			<point x="656" y="257" type="curve" smooth="yes"/>
			<point x="656" y="674" type="line"/>
			<point x="611" y="674" type="line"/>
			<point x="611" y="261" type="line" smooth="yes"/>
			<point x="611" y="96"/>
			<point x="531" y="27"/>
			<point x="410" y="27" type="curve" smooth="yes"/>
			<point x="289" y="27"/>
			<point x="208" y="96"/>
			<point x="208" y="261" type="curve" smooth="yes"/>
			<point x="208" y="360" type="line" smooth="yes"/>
			<point x="208" y="465"/>
			<point x="208" y="569"/>
			<point x="208" y="674" type="curve"/>
			<point x="146" y="674" type="line"/>
			<point x="146" y="569"/>
			<point x="146" y="465"/>
			<point x="146" y="360" type="curve" smooth="yes"/>
			<point x="146" y="253" type="line" smooth="yes"/>
			<point x="146" y="71"/>
			<point x="252" y="-16"/>
		</contour>
		<contour>
			<point x="643" y="641" type="line"/>
			<point x="733" y="642"/>
			<point x="774" y="677"/>
			<point x="774" y="748" type="curve" smooth="yes"/>
			<point x="774" y="781"/>
			<point x="765" y="807"/>
			<point x="757" y="820" type="curve"/>
			<point x="751" y="822"/>
			<point x="742" y="826"/>
			<point x="733" y="826" type="curve" smooth="yes"/>
			<point x="713" y="826"/>
			<point x="701" y="816"/>
			<point x="701" y="796" type="curve" smooth="yes"/>
			<point x="701" y="772"/>
			<point x="727" y="755"/>
			<point x="727" y="721" type="curve" smooth="yes"/>
			<point x="727" y="694"/>
			<point x="702" y="674"/>
			<point x="643" y="674" type="curve"/>
		</contour>
		<contour>
			<point x="37" y="631" type="line"/>
			<point x="157" y="631" type="line"/>
			<point x="197" y="631" type="line"/>
			<point x="328" y="631" type="line"/>
			<point x="328" y="674" type="line"/>
			<point x="37" y="674" type="line"/>
		</contour>
		<contour>
			<point x="492" y="631" type="line"/>
			<point x="622" y="631" type="line"/>
			<point x="633" y="631" type="line"/>
			<point x="633" y="674" type="line"/>
			<point x="492" y="674" type="line"/>
		</contour>
	</outline>
	<anchor name="aboveUC" x="416" y="694"/>
	<anchor name="belowLC" x="405" y="-20"/>
</glyph>
<glyph name="schwa" format="2">
	<unicode hex="0259"/>
	<advance width="562"/>
	<outline>
		<contour>
			<point x="266" y="-12" type="curve" smooth="yes"/>
			<point x="417" y="-12"/>
			<point x="504" y="94"/>
			<point x="504" y="253" type="curve" smooth="yes"/>
			<point x="504" y="421"/>
			<point x="408" y="515"/>
			<point x="271" y="515" type="curve" smooth="yes"/>
			<point x="166" y="515"/>
			<point x="107" y="469"/>
			<point x="71" y="417" type="curve"/>
			<point x="99" y="393" type="line"/>
			<point x="137" y="443"/>
			<point x="183" y="471"/>
			<point x="269" y="471" type="curve" smooth="yes"/>
			<point x="369" y="471"/>
			<point x="446" y="400"/>
			<point x="446" y="251" type="curve" smooth="yes"/>
			<point x="446" y="103"/>
			<point x="384" y="28"/>
			<point x="266" y="28" type="curve" smooth="yes"/>
			<point x="151" y="28"/>
			<point x="94" y="105"/>
			<point x="94" y="195" type="curve" smooth="yes"/>
			<point x="94" y="210"/>
			<point x="95" y="223"/>
			<point x="97" y="234" type="curve" smooth="yes"/>
			<point x="464" y="234" type="line"/>
			<point x="464" y="270" type="line"/>
			<point x="47" y="270" type="line"/>
			<point x="44" y="248"/>
			<point x="42" y="227"/>
			<point x="42" y="203" type="curve" smooth="yes"/>
			<point x="42" y="79"/>
			<point x="117" y="-12"/>
		</contour>
	</outline>
	<anchor name="aboveLC" x="272" y="523"/>
	<anchor name="belowLC" x="276" y="-20"/>
</glyph>
<glyph name="h.sups" format="2">
	<unicode hex="02B0"/>
	<advance width="456"/>
	<outline>
		<contour>
			<point x="94" y="410" type="line"/>
			<point x="146" y="410" type="line"/>
			<point x="146" y="670" type="line"/>
			<point x="144" y="670" type="line"/>
			<point x="146" y="889" type="line"/>
			<point x="125" y="889" type="line"/>
			<point x="28" y="876" type="line"/>
			<point x="28" y="850" type="line"/>
			<point x="94" y="842" type="line"/>
		</contour>
		<contour>
			<point x="324" y="410" type="line"/>
			<point x="376" y="410" type="line"/>
			<point x="376" y="641" type="line" smooth="yes"/>
			<point x="376" y="711"/>
			<point x="338" y="750"/>
			<point x="274" y="750" type="curve" smooth="yes"/>
			<point x="220" y="750"/>
			<point x="186" y="719"/>
			<point x="161" y="681" type="curve"/>
			<point x="134" y="681" type="line"/>
			<point x="134" y="649" type="line"/>
			<point x="177" y="684"/>
			<point x="213" y="705"/>
			<point x="256" y="705" type="curve" smooth="yes"/>
			<point x="301" y="705"/>
			<point x="324" y="682"/>
			<point x="324" y="629" type="curve" smooth="yes"/>
		</contour>
		<contour>
			<point x="34" y="410" type="line"/>
			<point x="206" y="410" type="line"/>
			<point x="206" y="442" type="line"/>
			<point x="131" y="442" type="line"/>
			<point x="109" y="442" type="line"/>
			<point x="34" y="442" type="line"/>
		</contour>
		<contour>
			<point x="266" y="410" type="line"/>
			<point x="437" y="410" type="line"/>
			<point x="437" y="442" type="line"/>
			<point x="361" y="442" type="line"/>
			<point x="340" y="442" type="line"/>
			<point x="266" y="442" type="line"/>
		</contour>
	</outline>
</glyph>
<glyph name="j.sups" format="2">
	<unicode hex="02B2"/>
	<advance width="220"/>
	<outline>
		<contour>
			<point x="17" y="269" type="curve" smooth="yes"/>
			<point x="63" y="269"/>
			<point x="91" y="293"/>
			<point x="109" y="329" type="curve" smooth="yes"/>
			<point x="127" y="365"/>
			<point x="134" y="411"/>
			<point x="134" y="489" type="curve" smooth="yes"/>
			<point x="134" y="761" type="line"/>
			<point x="113" y="761" type="line"/>
			<point x="20" y="739" type="line"/>
			<point x="20" y="711" type="line"/>
			<point x="83" y="711" type="line"/>
			<point x="83" y="496" type="line" smooth="yes"/>
			<point x="83" y="421"/>
			<point x="80" y="374"/>
			<point x="73" y="341" type="curve" smooth="yes"/>
			<point x="65" y="314"/>
			<point x="59" y="304"/>
			<point x="46" y="288" type="curve"/>
			<point x="57" y="295" type="line"/>
			<point x="38" y="295" type="line"/>
			<point x="53" y="288" type="line"/>
			<point x="44" y="303" type="line" smooth="yes"/>
			<point x="34" y="319"/>
			<point x="21" y="330"/>
			<point x="-1" y="330" type="curve" smooth="yes"/>
			<point x="-24" y="330"/>
			<point x="-36" y="317"/>
			<point x="-39" y="300" type="curve"/>
			<point x="-34" y="287"/>
			<point x="-20" y="269"/>
		</contour>
		<contour>
			<point x="108" y="831" type="curve" smooth="yes"/>
			<point x="130" y="831"/>
			<point x="146" y="847"/>
			<point x="146" y="869" type="curve" smooth="yes"/>
			<point x="146" y="890"/>
			<point x="130" y="907"/>
			<point x="108" y="907" type="curve" smooth="yes"/>
			<point x="86" y="907"/>
			<point x="70" y="890"/>
			<point x="70" y="869" type="curve" smooth="yes"/>
			<point x="70" y="847"/>
			<point x="86" y="831"/>
		</contour>
	</outline>
</glyph>
<glyph name="r.sups" format="2">
	<unicode hex="02B3"/>
	<advance width="331"/>
	<outline>
		<contour>
			<point x="94" y="410" type="line"/>
			<point x="146" y="410" type="line"/>
			<point x="146" y="655" type="line"/>
			<point x="140" y="655" type="line"/>
			<point x="136" y="742" type="line"/>
			<point x="115" y="742" type="line"/>
			<point x="31" y="721" type="line"/>
			<point x="31" y="692" type="line"/>
			<point x="94" y="692" type="line"/>
		</contour>
		<contour>
			<point x="137" y="611" type="line"/>
			<point x="164" y="658"/>
			<point x="200" y="694"/>
			<point x="249" y="708" type="curve"/>
			<point x="218" y="708" type="line"/>
			<point x="228" y="698" type="line" smooth="yes"/>
			<point x="240" y="687"/>
			<point x="251" y="678"/>
			<point x="270" y="678" type="curve" smooth="yes"/>
			<point x="296" y="678"/>
			<point x="309" y="696"/>
			<point x="311" y="715" type="curve"/>
			<point x="305" y="732"/>
			<point x="289" y="747"/>
			<point x="257" y="747" type="curve" smooth="yes"/>
			<point x="210" y="747"/>
			<point x="182" y="713"/>
			<point x="154" y="658" type="curve"/>
			<point x="137" y="658" type="line"/>
		</contour>
		<contour>
			<point x="34" y="410" type="line"/>
			<point x="226" y="410" type="line"/>
			<point x="226" y="442" type="line"/>
			<point x="131" y="442" type="line"/>
			<point x="109" y="442" type="line"/>
			<point x="34" y="442" type="line"/>
		</contour>
	</outline>
</glyph>
<glyph name="w.sups" format="2">
	<unicode hex="02B7"/>
	<advance width="602"/>
	<outline>
		<contour>
			<point x="160" y="410" type="line"/>
			<point x="211" y="410" type="line"/>
			<point x="267" y="569" type="line"/>
			<point x="298" y="690" type="line"/>
			<point x="298" y="690" type="line"/>
			<point x="387" y="410" type="line"/>
			<point x="434" y="410" type="line"/>
			<point x="552" y="742" type="line"/>
			<point x="510" y="742" type="line"/>
			<point x="460" y="581" type="line"/>
			<point x="428" y="444" type="line"/>
			<point x="423" y="444" type="line"/>
			<point x="331" y="739" type="line"/>
			<point x="290" y="739" type="line"/>
			<point x="235" y="578" type="line"/>
			<point x="201" y="444" type="line"/>
			<point x="196" y="444" type="line"/>
			<point x="108" y="742" type="line"/>
			<point x="52" y="742" type="line"/>
		</contour>
		<contour>
			<point x="20" y="712" type="line"/>
			<point x="78" y="707" type="line"/>
			<point x="104" y="707" type="line"/>
			<point x="173" y="712" type="line"/>
			<point x="173" y="742" type="line"/>
			<point x="20" y="742" type="line"/>
		</contour>
		<contour>
			<point x="230" y="712" type="line"/>
			<point x="289" y="710" type="line"/>
			<point x="331" y="710" type="line"/>
			<point x="389" y="712" type="line"/>
			<point x="389" y="742" type="line"/>
			<point x="230" y="742" type="line"/>
		</contour>
		<contour>
			<point x="447" y="712" type="line"/>
			<point x="512" y="707" type="line"/>
			<point x="530" y="707" type="line"/>
			<point x="582" y="712" type="line"/>
			<point x="582" y="742" type="line"/>
			<point x="447" y="742" type="line"/>
		</contour>
	</outline>
</glyph>
<glyph name="y.sups" format="2">
	<unicode hex="02B8"/>
	<advance width="408"/>
	<outline>
		<contour>
			<point x="69" y="258" type="curve" smooth="yes"/>
			<point x="146" y="258"/>
			<point x="187" y="306"/>
			<point x="224" y="398" type="curve" smooth="yes"/>
			<point x="363" y="741" type="line"/>
			<point x="322" y="741" type="line"/>
			<point x="209" y="432" type="line"/>
			<point x="190" y="393" type="line" smooth="yes"/>
			<point x="164" y="336"/>
			<point x="144" y="304"/>
			<point x="111" y="281" type="curve"/>
			<point x="90" y="281" type="line"/>
			<point x="105" y="277" type="line"/>
			<point x="89" y="291" type="line" smooth="yes"/>
			<point x="74" y="305"/>
			<point x="60" y="314"/>
			<point x="39" y="314" type="curve" smooth="yes"/>
			<point x="17" y="314"/>
			<point x="6" y="302"/>
			<point x="2" y="289" type="curve"/>
			<point x="6" y="274"/>
			<point x="26" y="258"/>
		</contour>
		<contour>
			<point x="12" y="711" type="line"/>
			<point x="75" y="707" type="line"/>
			<point x="95" y="707" type="line"/>
			<point x="173" y="711" type="line"/>
			<point x="173" y="741" type="line"/>
			<point x="12" y="741" type="line"/>
		</contour>
		<contour>
			<point x="249" y="711" type="line"/>
			<point x="319" y="707" type="line"/>
			<point x="339" y="707" type="line"/>
			<point x="396" y="711" type="line"/>
			<point x="396" y="741" type="line"/>
			<point x="249" y="741" type="line"/>
		</contour>
		<contour>
			<point x="187" y="364" type="line"/>
			<point x="222" y="437" type="line"/>
			<point x="202" y="437" type="line"/>
			<point x="99" y="741" type="line"/>
			<point x="46" y="741" type="line"/>
		</contour>
	</outline>
</glyph>
<glyph name="ringhalfrightmod" format="2">
	<unicode hex="02BE"/>
	<advance width="162"/>
	<outline>
		<contour>
			<point x="29" y="561" type="line"/>
			<point x="91" y="561"/>
			<point x="134" y="594"/>
			<point x="134" y="654" type="curve" smooth="yes"/>
			<point x="134" y="713"/>
			<point x="91" y="747"/>
			<point x="29" y="747" type="curve"/>
			<point x="29" y="714" type="line"/>
			<point x="69" y="714"/>
			<point x="93" y="692"/>
			<point x="93" y="654" type="curve" smooth="yes"/>
			<point x="93" y="616"/>
			<point x="69" y="593"/>
			<point x="29" y="593" type="curve"/>
		</contour>
	</outline>
</glyph>
<glyph name="ringhalfleftmod" format="2">
	<unicode hex="02BF"/>
	<advance width="161"/>
	<outline>
		<contour>
			<point x="27" y="654" type="curve" smooth="yes"/>
			<point x="27" y="594"/>
			<point x="69" y="561"/>
			<point x="131" y="561" type="curve"/>
			<point x="131" y="593" type="line"/>
			<point x="91" y="593"/>
			<point x="67" y="616"/>
			<point x="67" y="654" type="curve" smooth="yes"/>
			<point x="67" y="692"/>
			<point x="91" y="714"/>
			<point x="131" y="714" type="curve"/>
			<point x="131" y="747" type="line"/>
			<point x="69" y="747"/>
			<point x="27" y="713"/>
		</contour>
	</outline>
</glyph>
<glyph name="verticallinemod" format="2">
	<unicode hex="02C8"/>
	<advance width="162"/>
	<outline>
		<contour>
			<point x="58" y="553" type="line"/>
			<point x="104" y="553" type="line"/>
			<point x="111" y="746" type="line"/>
			<point x="52" y="746" type="line"/>
		</contour>
	</outline>
</glyph>
<glyph name="l.sups" format="2">
	<unicode hex="02E1"/>
	<advance width="222"/>
	<outline>
		<contour>
			<point x="26" y="410" type="line"/>
			<point x="195" y="410" type="line"/>
			<point x="195" y="442" type="line"/>
			<point x="119" y="442" type="line"/>
			<point x="102" y="442" type="line"/>
			<point x="26" y="442" type="line"/>
		</contour>
		<contour>
			<point x="87" y="410" type="line"/>
			<point x="134" y="410" type="line"/>
			<point x="134" y="896" type="line"/>
			<point x="114" y="896" type="line"/>
			<point x="21" y="883" type="line"/>
			<point x="21" y="858" type="line"/>
			<point x="87" y="848" type="line"/>
		</contour>
	</outline>
</glyph>
<glyph name="s.sups" format="2">
	<unicode hex="02E2"/>
	<advance width="316"/>
	<outline>
		<contour>
			<point x="148" y="402" type="curve" smooth="yes"/>
			<point x="235" y="402"/>
			<point x="281" y="444"/>
			<point x="281" y="500" type="curve" smooth="yes"/>
			<point x="281" y="552"/>
			<point x="243" y="576"/>
			<point x="172" y="597" type="curve" smooth="yes"/>
			<point x="156" y="602" type="line" smooth="yes"/>
			<point x="105" y="618"/>
			<point x="82" y="634"/>
			<point x="82" y="664" type="curve" smooth="yes"/>
			<point x="82" y="694"/>
			<point x="106" y="720"/>
			<point x="161" y="720" type="curve" smooth="yes"/>
			<point x="195" y="720"/>
			<point x="221" y="713"/>
			<point x="245" y="703" type="curve"/>
			<point x="221" y="725" type="line"/>
			<point x="234" y="650" type="line"/>
			<point x="266" y="650" type="line"/>
			<point x="266" y="729" type="line"/>
			<point x="243" y="738"/>
			<point x="203" y="749"/>
			<point x="161" y="749" type="curve" smooth="yes"/>
			<point x="82" y="749"/>
			<point x="35" y="712"/>
			<point x="35" y="658" type="curve" smooth="yes"/>
			<point x="35" y="607"/>
			<point x="76" y="582"/>
			<point x="144" y="562" type="curve" smooth="yes"/>
			<point x="161" y="557" type="line" smooth="yes"/>
			<point x="214" y="540"/>
			<point x="234" y="524"/>
			<point x="234" y="494" type="curve" smooth="yes"/>
			<point x="234" y="462"/>
			<point x="211" y="431"/>
			<point x="148" y="431" type="curve" smooth="yes"/>
			<point x="106" y="431"/>
			<point x="70" y="443"/>
			<point x="49" y="452" type="curve"/>
			<point x="78" y="427" type="line"/>
			<point x="62" y="506" type="line"/>
			<point x="30" y="506" type="line"/>
			<point x="32" y="423" type="line"/>
			<point x="60" y="412"/>
			<point x="97" y="402"/>
		</contour>
	</outline>
</glyph>
<glyph name="x.sups" format="2">
	<unicode hex="02E3"/>
	<advance width="408"/>
	<outline>
		<contour>
			<point x="21" y="429" type="line"/>
			<point x="164" y="429" type="line"/>
			<point x="164" y="461" type="line"/>
			<point x="101" y="461" type="line"/>
			<point x="83" y="461" type="line"/>
			<point x="21" y="461" type="line"/>
		</contour>
		<contour>
			<point x="24" y="731" type="line"/>
			<point x="90" y="726" type="line"/>
			<point x="117" y="726" type="line"/>
			<point x="186" y="731" type="line"/>
			<point x="186" y="761" type="line"/>
			<point x="24" y="761" type="line"/>
		</contour>
		<contour>
			<point x="304" y="429" type="line"/>
			<point x="365" y="429" type="line"/>
			<point x="218" y="613" type="line"/>
			<point x="107" y="761" type="line"/>
			<point x="47" y="761" type="line"/>
			<point x="186" y="586" type="line"/>
		</contour>
		<contour>
			<point x="223" y="429" type="line"/>
			<point x="387" y="429" type="line"/>
			<point x="387" y="461" type="line"/>
			<point x="324" y="461" type="line"/>
			<point x="292" y="461" type="line"/>
			<point x="223" y="461" type="line"/>
		</contour>
		<contour>
			<point x="238" y="731" type="line"/>
			<point x="302" y="726" type="line"/>
			<point x="315" y="726" type="line"/>
			<point x="379" y="731" type="line"/>
			<point x="379" y="761" type="line"/>
			<point x="238" y="761" type="line"/>
		</contour>
		<contour>
			<point x="46" y="429" type="line"/>
			<point x="90" y="429" type="line"/>
			<point x="186" y="574" type="line"/>
			<point x="208" y="574" type="line"/>
			<point x="185" y="612" type="line"/>
		</contour>
		<contour>
			<point x="221" y="587" type="line"/>
			<point x="356" y="759" type="line"/>
			<point x="313" y="759" type="line"/>
			<point x="220" y="623" type="line"/>
			<point x="199" y="623" type="line"/>
		</contour>
	</outline>
</glyph>
<glyph name="gravecmb" format="2">
	<unicode hex="0300"/>
	<outline>
		<contour>
			<point x="52" y="600" type="line"/>
			<point x="22" y="643"/>
			<point x="-10" y="687"/>
			<point x="-41" y="731" type="curve" smooth="yes"/>
			<point x="-57" y="754"/>
			<point x="-69" y="765"/>
			<point x="-85" y="765" type="curve" smooth="yes"/>
			<point x="-102" y="765"/>
			<point x="-113" y="754"/>
			<point x="-113" y="738" type="curve" smooth="yes"/>
			<point x="-113" y="722"/>
			<point x="-105" y="712"/>
			<point x="-84" y="693" type="curve" smooth="yes"/>
			<point x="-47" y="655"/>
			<point x="-9" y="617"/>
			<point x="28" y="580" type="curve"/>
		</contour>
	</outline>
	<anchor name="_aboveLC" x="0" y="523"/>
	<anchor name="aboveLC" x="0" y="765"/>
</glyph>
<glyph name="tildecmb" format="2">
	<unicode hex="0303"/>
	<outline>
		<contour>
			<point x="-164" y="615" type="curve"/>
			<point x="-128" y="608" type="line"/>
			<point x="-119" y="669"/>
			<point x="-100" y="684"/>
			<point x="-71" y="684" type="curve" smooth="yes"/>
			<point x="-45" y="684"/>
			<point x="-28" y="662"/>
			<point x="-7" y="643" type="curve" smooth="yes"/>
			<point x="17" y="620"/>
			<point x="38" y="601"/>
			<point x="73" y="601" type="curve" smooth="yes"/>
			<point x="122" y="601"/>
			<point x="158" y="636"/>
			<point x="164" y="715" type="curve"/>
			<point x="128" y="722" type="line"/>
			<point x="119" y="661"/>
			<point x="100" y="646"/>
			<point x="72" y="646" type="curve" smooth="yes"/>
			<point x="45" y="646"/>
			<point x="28" y="668"/>
			<point x="7" y="687" type="curve" smooth="yes"/>
			<point x="-17" y="710"/>
			<point x="-38" y="729"/>
			<point x="-72" y="729" type="curve" smooth="yes"/>
			<point x="-121" y="729"/>
			<point x="-158" y="695"/>
		</contour>
	</outline>
	<anchor name="_aboveLC" x="0" y="523"/>
	<anchor name="aboveLC" x="0" y="723"/>
</glyph>
<glyph name="brevecmb" format="2">
	<unicode hex="0306"/>
	<outline>
		<contour>
			<point x="0" y="600" type="curve" smooth="yes"/>
			<point x="87" y="600"/>
			<point x="135" y="660"/>
			<point x="148" y="743" type="curve"/>
			<point x="118" y="748" type="line"/>
			<point x="102" y="684"/>
			<point x="65" y="642"/>
			<point x="0" y="642" type="curve" smooth="yes"/>
			<point x="-65" y="642"/>
			<point x="-102" y="684"/>
			<point x="-118" y="748" type="curve"/>
			<point x="-148" y="743" type="line"/>
			<point x="-135" y="660"/>
			<point x="-87" y="600"/>
		</contour>
	</outline>
	<anchor name="_aboveLC" x="0" y="523"/>
	<anchor name="aboveLC" x="0" y="748"/>
</glyph>
<glyph name="dotaccentcmb" format="2">
	<unicode hex="0307"/>
	<outline>
		<contour>
			<point x="0" y="635" type="curve" smooth="yes"/>
			<point x="29" y="635"/>
			<point x="49" y="655"/>
			<point x="49" y="682" type="curve" smooth="yes"/>
			<point x="49" y="710"/>
			<point x="29" y="730"/>
			<point x="0" y="730" type="curve" smooth="yes"/>
			<point x="-29" y="730"/>
			<point x="-49" y="710"/>
			<point x="-49" y="682" type="curve" smooth="yes"/>
			<point x="-49" y="655"/>
			<point x="-29" y="635"/>
		</contour>
	</outline>
	<anchor name="_aboveLC" x="0" y="523"/>
	<anchor name="aboveLC" x="0" y="730"/>
</glyph>
<glyph name="dieresiscmb" format="2">
	<unicode hex="0308"/>
	<outline>
		<contour>
			<point x="-99" y="637" type="curve" smooth="yes"/>
			<point x="-73" y="637"/>
			<point x="-54" y="656"/>
			<point x="-54" y="682" type="curve" smooth="yes"/>
			<point x="-54" y="708"/>
			<point x="-73" y="727"/>
			<point x="-99" y="727" type="curve" smooth="yes"/>
			<point x="-125" y="727"/>
			<point x="-144" y="708"/>
			<point x="-144" y="682" type="curve" smooth="yes"/>
			<point x="-144" y="656"/>
			<point x="-125" y="637"/>
		</contour>
		<contour>
			<point x="99" y="637" type="curve" smooth="yes"/>
			<point x="125" y="637"/>
			<point x="144" y="656"/>
			<point x="144" y="682" type="curve" smooth="yes"/>
			<point x="144" y="708"/>
			<point x="125" y="727"/>
			<point x="99" y="727" type="curve" smooth="yes"/>
			<point x="73" y="727"/>
			<point x="54" y="708"/>
			<point x="54" y="682" type="curve" smooth="yes"/>
			<point x="54" y="656"/>
			<point x="73" y="637"/>
		</contour>
	</outline>
	<anchor name="_aboveLC" x="0" y="523"/>
	<anchor name="aboveLC" x="0" y="727"/>
</glyph>
<glyph name="hoicmb" format="2">
	<unicode hex="0309"/>
	<outline>
		<contour>
			<point x="-19" y="553" type="line"/>
			<point x="44" y="560"/>
			<point x="80" y="589"/>
			<point x="80" y="641" type="curve" smooth="yes"/>
			<point x="80" y="694"/>
			<point x="41" y="730"/>
			<point x="-38" y="738" type="curve"/>
			<point x="-45" y="695" type="line"/>
			<point x="17" y="687"/>
			<point x="37" y="665"/>
			<point x="37" y="635" type="curve" smooth="yes"/>
			<point x="37" y="605"/>
			<point x="17" y="587"/>
			<point x="-27" y="581" type="curve"/>
		</contour>
	</outline>
	<anchor name="_aboveLC" x="0" y="523"/>
	<anchor name="aboveLC" x="0" y="738"/>
</glyph>
<glyph name="ringcmb" format="2">
	<unicode hex="030A"/>
	<outline>
		<contour>
			<point x="0" y="612" type="curve" smooth="yes"/>
			<point x="-38" y="612"/>
			<point x="-61" y="639"/>
			<point x="-61" y="674" type="curve" smooth="yes"/>
			<point x="-61" y="709"/>
			<point x="-38" y="736"/>
			<point x="0" y="736" type="curve" smooth="yes"/>
			<point x="38" y="736"/>
			<point x="63" y="709"/>
			<point x="63" y="674" type="curve" smooth="yes"/>
			<point x="63" y="639"/>
			<point x="38" y="612"/>
		</contour>
		<contour>
			<point x="0" y="581" type="curve" smooth="yes"/>
			<point x="58" y="581"/>
			<point x="99" y="620"/>
			<point x="99" y="674" type="curve" smooth="yes"/>
			<point x="99" y="727"/>
			<point x="58" y="767"/>
			<point x="0" y="767" type="curve" smooth="yes"/>
			<point x="-58" y="767"/>
			<point x="-97" y="727"/>
			<point x="-97" y="674" type="curve" smooth="yes"/>
			<point x="-97" y="620"/>
			<point x="-58" y="581"/>
		</contour>
	</outline>
	<anchor name="_aboveLC" x="0" y="523"/>
	<anchor name="aboveLC" x="0" y="767"/>
</glyph>
<glyph name="hungarumlautcmb" format="2">
	<unicode hex="030B"/>
	<outline>
		<contour>
			<point x="-117" y="591" type="line"/>
			<point x="-89" y="576" type="line"/>
			<point x="-12" y="694" type="line" smooth="yes"/>
			<point x="1" y="714"/>
			<point x="8" y="726"/>
			<point x="8" y="740" type="curve" smooth="yes"/>
			<point x="8" y="754"/>
			<point x="-2" y="766"/>
			<point x="-20" y="766" type="curve" smooth="yes"/>
			<point x="-39" y="766"/>
			<point x="-49" y="754"/>
			<point x="-61" y="725" type="curve" smooth="yes"/>
		</contour>
		<contour>
			<point x="36" y="591" type="line"/>
			<point x="64" y="576" type="line"/>
			<point x="141" y="694" type="line" smooth="yes"/>
			<point x="154" y="714"/>
			<point x="161" y="726"/>
			<point x="161" y="740" type="curve" smooth="yes"/>
			<point x="161" y="754"/>
			<point x="151" y="766"/>
			<point x="133" y="766" type="curve" smooth="yes"/>
			<point x="114" y="766"/>
			<point x="104" y="754"/>
			<point x="92" y="725" type="curve" smooth="yes"/>
		</contour>
	</outline>
	<anchor name="_aboveLC" x="0" y="523"/>
	<anchor name="aboveLC" x="0" y="766"/>
</glyph>
<glyph name="caroncmb" format="2">
	<unicode hex="030C"/>
	<outline>
		<contour>
			<point x="-111" y="750" type="line"/>
			<point x="-135" y="731" type="line"/>
			<point x="-18" y="589" type="line"/>
			<point x="18" y="589" type="line"/>
			<point x="135" y="731" type="line"/>
			<point x="111" y="750" type="line"/>
			<point x="-23" y="621" type="line"/>
			<point x="23" y="621" type="line"/>
		</contour>
	</outline>
	<anchor name="_aboveLC" x="0" y="523"/>
	<anchor name="aboveLC" x="0" y="750"/>
</glyph>
<glyph name="horncmb" format="2">
	<unicode hex="031B"/>
	<outline>
		<contour>
			<point x="0" y="503" type="line"/>
			<point x="86" y="515"/>
			<point x="119" y="572"/>
			<point x="119" y="641" type="curve" smooth="yes"/>
			<point x="119" y="679"/>
			<point x="111" y="706"/>
			<point x="102" y="720" type="curve"/>
			<point x="96" y="724"/>
			<point x="88" y="726"/>
			<point x="79" y="726" type="curve" smooth="yes"/>
			<point x="58" y="726"/>
			<point x="47" y="714"/>
			<point x="47" y="696" type="curve" smooth="yes"/>
			<point x="47" y="671"/>
			<point x="73" y="655"/>
			<point x="73" y="614" type="curve" smooth="yes"/>
			<point x="73" y="571"/>
			<point x="51" y="536"/>
			<point x="0" y="529" type="curve"/>
		</contour>
	</outline>
	<anchor name="_hornLC" x="0" y="503"/>
</glyph>
<glyph name="cedillacmb" format="2">
	<unicode hex="0327"/>
	<outline>
		<contour>
			<point x="-26" y="-92" type="line"/>
			<point x="39" y="-95"/>
			<point x="59" y="-116"/>
			<point x="59" y="-146" type="curve" smooth="yes"/>
			<point x="59" y="-177"/>
			<point x="39" y="-196"/>
			<point x="0" y="-196" type="curve" smooth="yes"/>
			<point x="-22" y="-196"/>
			<point x="-40" y="-192"/>
			<point x="-55" y="-187" type="curve"/>
			<point x="-64" y="-217" type="line"/>
			<point x="-52" y="-222"/>
			<point x="-30" y="-228"/>
			<point x="2" y="-228" type="curve" smooth="yes"/>
			<point x="67" y="-228"/>
			<point x="106" y="-194"/>
			<point x="106" y="-145" type="curve" smooth="yes"/>
			<point x="106" y="-97"/>
			<point x="67" y="-69"/>
			<point x="-4" y="-66" type="curve"/>
			<point x="5" y="-85" type="line"/>
			<point x="18" y="1" type="line"/>
			<point x="-11" y="1" type="line"/>
		</contour>
	</outline>
	<anchor name="_baseLC" x="0" y="0"/>
</glyph>
<glyph name="ogonekcmb" format="2">
	<unicode hex="0328"/>
	<outline>
		<contour>
			<point x="6" y="-228" type="curve" smooth="yes"/>
			<point x="45" y="-228"/>
			<point x="65" y="-214"/>
			<point x="80" y="-204" type="curve"/>
			<point x="70" y="-177" type="line"/>
			<point x="56" y="-185"/>
			<point x="39" y="-190"/>
			<point x="16" y="-190" type="curve" smooth="yes"/>
			<point x="-19" y="-190"/>
			<point x="-45" y="-165"/>
			<point x="-45" y="-122" type="curve" smooth="yes"/>
			<point x="-45" y="-66"/>
			<point x="-16" y="-34"/>
			<point x="19" y="7" type="curve"/>
			<point x="-13" y="7" type="line"/>
			<point x="-13" y="-15" type="line"/>
			<point x="-55" y="-40"/>
			<point x="-88" y="-73"/>
			<point x="-88" y="-133" type="curve" smooth="yes"/>
			<point x="-88" y="-194"/>
			<point x="-49" y="-228"/>
		</contour>
	</outline>
	<anchor name="_ogonek" x="0" y="0"/>
</glyph>
<glyph name="Xi" format="2">
	<unicode hex="039E"/>
	<advance width="617"/>
	<outline>
		<contour>
			<point x="52" y="0" type="line"/>
			<point x="565" y="0" type="line"/>
			<point x="572" y="177" type="line"/>
			<point x="529" y="177" type="line"/>
			<point x="506" y="14" type="line"/>
			<point x="535" y="47" type="line"/>
			<point x="82" y="47" type="line"/>
			<point x="111" y="14" type="line"/>
			<point x="88" y="177" type="line"/>
			<point x="45" y="177" type="line"/>
		</contour>
		<contour>
			<point x="147" y="236" type="line"/>
			<point x="185" y="236" type="line"/>
			<point x="199" y="333" type="line"/>
			<point x="199" y="353" type="line"/>
			<point x="185" y="451" type="line"/>
			<point x="147" y="451" type="line"/>
		</contour>
		<contour>
			<point x="171" y="323" type="line"/>
			<point x="446" y="323" type="line"/>
			<point x="446" y="364" type="line"/>
			<point x="171" y="364" type="line"/>
		</contour>
		<contour>
			<point x="432" y="236" type="line"/>
			<point x="471" y="236" type="line"/>
			<point x="471" y="451" type="line"/>
			<point x="432" y="451" type="line"/>
			<point x="418" y="353" type="line"/>
			<point x="418" y="333" type="line"/>
		</contour>
		<contour>
			<point x="57" y="510" type="line"/>
			<point x="100" y="510" type="line"/>
			<point x="127" y="660" type="line"/>
			<point x="96" y="628" type="line"/>
			<point x="521" y="628" type="line"/>
			<point x="490" y="660" type="line"/>
			<point x="517" y="510" type="line"/>
			<point x="560" y="510" type="line"/>
			<point x="549" y="674" type="line"/>
			<point x="68" y="674" type="line"/>
		</contour>
	</outline>
</glyph>
<glyph name="Sigma" format="2">
	<unicode hex="03A3"/>
	<advance width="565"/>
	<outline>
		<contour>
			<point x="20" y="0" type="line"/>
			<point x="517" y="0" type="line"/>
			<point x="525" y="191" type="line"/>
			<point x="482" y="191" type="line"/>
			<point x="457" y="14" type="line"/>
			<point x="487" y="55" type="line"/>
			<point x="68" y="55" type="line"/>
			<point x="68" y="74" type="line"/>
			<point x="61" y="57" type="line"/>
			<point x="211" y="204" type="line"/>
			<point x="343" y="352" type="line"/>
			<point x="102" y="638" type="line"/>
			<point x="108" y="620" type="line"/>
			<point x="108" y="641" type="line"/>
			<point x="294" y="634" type="line"/>
			<point x="474" y="634" type="line"/>
			<point x="443" y="660" type="line"/>
			<point x="470" y="501" type="line"/>
			<point x="512" y="501" type="line"/>
			<point x="502" y="674" type="line"/>
			<point x="33" y="674" type="line"/>
			<point x="33" y="628" type="line"/>
			<point x="296" y="321" type="line"/>
			<point x="296" y="359" type="line"/>
			<point x="20" y="49" type="line"/>
		</contour>
	</outline>
</glyph>
<glyph name="Phi" format="2">
	<unicode hex="03A6"/>
	<advance width="724"/>
	<outline>
		<contour>
			<point x="45" y="342" type="curve" smooth="yes"/>
			<point x="45" y="208"/>
			<point x="148" y="131"/>
			<point x="321" y="131" type="curve" smooth="yes"/>
			<point x="343" y="131" type="line"/>
			<point x="343" y="169" type="line"/>
			<point x="323" y="169" type="line" smooth="yes"/>
			<point x="187" y="169"/>
			<point x="106" y="232"/>
			<point x="106" y="343" type="curve" smooth="yes"/>
			<point x="106" y="453"/>
			<point x="187" y="518"/>
			<point x="323" y="518" type="curve" smooth="yes"/>
			<point x="343" y="518" type="line"/>
			<point x="343" y="556" type="line"/>
			<point x="321" y="556" type="line"/>
			<point x="148" y="556"/>
			<point x="45" y="476"/>
		</contour>
		<contour>
			<point x="381" y="131" type="line"/>
			<point x="402" y="131" type="line" smooth="yes"/>
			<point x="576" y="131"/>
			<point x="678" y="212"/>
			<point x="678" y="346" type="curve" smooth="yes"/>
			<point x="678" y="480"/>
			<point x="576" y="556"/>
			<point x="402" y="556" type="curve"/>
			<point x="381" y="556" type="line"/>
			<point x="381" y="518" type="line"/>
			<point x="401" y="518" type="line" smooth="yes"/>
			<point x="537" y="518"/>
			<point x="617" y="455"/>
			<point x="617" y="345" type="curve" smooth="yes"/>
			<point x="617" y="235"/>
			<point x="537" y="169"/>
			<point x="401" y="169" type="curve" smooth="yes"/>
			<point x="381" y="169" type="line"/>
		</contour>
		<contour>
			<point x="332" y="0" type="curve"/>
			<point x="392" y="0" type="line"/>
			<point x="392" y="101"/>
			<point x="392" y="203"/>
			<point x="392" y="304" type="curve" smooth="yes"/>
			<point x="392" y="370" type="line" smooth="yes"/>
			<point x="392" y="472"/>
			<point x="392" y="580"/>
			<point x="392" y="682" type="curve"/>
			<point x="332" y="682" type="line"/>
			<point x="332" y="580"/>
			<point x="332" y="472"/>
			<point x="332" y="370" type="curve" smooth="yes"/>
			<point x="332" y="304" type="line" smooth="yes"/>
			<point x="332" y="203"/>
			<point x="332" y="101"/>
		</contour>
		<contour>
			<point x="218" y="639" type="line"/>
			<point x="347" y="639" type="line"/>
			<point x="376" y="639" type="line"/>
			<point x="506" y="639" type="line"/>
			<point x="506" y="682" type="line"/>
			<point x="218" y="682" type="line"/>
		</contour>
		<contour>
			<point x="218" y="0" type="line"/>
			<point x="506" y="0" type="line"/>
			<point x="506" y="43" type="line"/>
			<point x="376" y="43" type="line"/>
			<point x="347" y="43" type="line"/>
			<point x="218" y="43" type="line"/>
		</contour>
	</outline>
</glyph>
<glyph name="Psi" format="2">
	<unicode hex="03A8"/>
	<advance width="811"/>
	<outline>
		<contour>
			<point x="405" y="249" type="curve" smooth="yes"/>
			<point x="587" y="249"/>
			<point x="659" y="315"/>
			<point x="676" y="458" type="curve" smooth="yes"/>
			<point x="687" y="546" type="line" smooth="yes"/>
			<point x="695" y="610"/>
			<point x="719" y="630"/>
			<point x="766" y="631" type="curve" smooth="yes"/>
			<point x="788" y="633" type="line"/>
			<point x="788" y="674" type="line"/>
			<point x="755" y="674" type="line" smooth="yes"/>
			<point x="674" y="674"/>
			<point x="636" y="643"/>
			<point x="627" y="552" type="curve" smooth="yes"/>
			<point x="617" y="450" type="line" smooth="yes"/>
			<point x="605" y="344"/>
			<point x="551" y="287"/>
			<point x="405" y="287" type="curve" smooth="yes"/>
			<point x="260" y="287"/>
			<point x="206" y="344"/>
			<point x="194" y="450" type="curve" smooth="yes"/>
			<point x="184" y="552" type="line" smooth="yes"/>
			<point x="175" y="643"/>
			<point x="137" y="674"/>
			<point x="56" y="674" type="curve" smooth="yes"/>
			<point x="23" y="674" type="line"/>
			<point x="23" y="633" type="line"/>
			<point x="44" y="631" type="line" smooth="yes"/>
			<point x="92" y="630"/>
			<point x="116" y="610"/>
			<point x="124" y="546" type="curve" smooth="yes"/>
			<point x="134" y="458" type="line" smooth="yes"/>
			<point x="152" y="315"/>
			<point x="224" y="249"/>
		</contour>
		<contour>
			<point x="374" y="0" type="curve"/>
			<point x="437" y="0" type="line"/>
			<point x="437" y="101"/>
			<point x="437" y="203"/>
			<point x="437" y="304" type="curve" smooth="yes"/>
			<point x="437" y="370" type="line" smooth="yes"/>
			<point x="437" y="472"/>
			<point x="437" y="572"/>
			<point x="437" y="674" type="curve"/>
			<point x="374" y="674" type="line"/>
			<point x="374" y="572"/>
			<point x="374" y="472"/>
			<point x="374" y="370" type="curve" smooth="yes"/>
			<point x="374" y="304" type="line" smooth="yes"/>
			<point x="374" y="203"/>
			<point x="374" y="101"/>
		</contour>
		<contour>
			<point x="257" y="0" type="line"/>
			<point x="554" y="0" type="line"/>
			<point x="554" y="43" type="line"/>
			<point x="420" y="43" type="line"/>
			<point x="391" y="43" type="line"/>
			<point x="257" y="43" type="line"/>
		</contour>
		<contour>
			<point x="271" y="631" type="line"/>
			<point x="391" y="631" type="line"/>
			<point x="420" y="631" type="line"/>
			<point x="540" y="631" type="line"/>
			<point x="540" y="674" type="line"/>
			<point x="271" y="674" type="line"/>
		</contour>
	</outline>
</glyph>
<glyph name="Omega" format="2">
	<unicode hex="03A9"/>
	<unicode hex="2126"/>
	<advance width="756"/>
	<outline>
		<contour>
			<point x="52" y="0" type="line"/>
			<point x="307" y="0" type="line"/>
			<point x="307" y="143" type="line"/>
			<point x="198" y="193"/>
			<point x="132" y="266"/>
			<point x="132" y="398" type="curve" smooth="yes"/>
			<point x="132" y="539"/>
			<point x="226" y="651"/>
			<point x="378" y="651" type="curve" smooth="yes"/>
			<point x="530" y="651"/>
			<point x="624" y="539"/>
			<point x="624" y="398" type="curve" smooth="yes"/>
			<point x="624" y="266"/>
			<point x="557" y="193"/>
			<point x="449" y="143" type="curve"/>
			<point x="449" y="0" type="line"/>
			<point x="704" y="0" type="line"/>
			<point x="719" y="158" type="line"/>
			<point x="677" y="158" type="line"/>
			<point x="645" y="8" type="line"/>
			<point x="685" y="45" type="line"/>
			<point x="471" y="45" type="line"/>
			<point x="493" y="16" type="line"/>
			<point x="493" y="124" type="line"/>
			<point x="586" y="158"/>
			<point x="689" y="244"/>
			<point x="689" y="395" type="curve" smooth="yes"/>
			<point x="689" y="563"/>
			<point x="563" y="690"/>
			<point x="378" y="690" type="curve" smooth="yes"/>
			<point x="192" y="690"/>
			<point x="67" y="563"/>
			<point x="67" y="395" type="curve" smooth="yes"/>
			<point x="67" y="244"/>
			<point x="170" y="158"/>
			<point x="263" y="124" type="curve"/>
			<point x="263" y="16" type="line"/>
			<point x="285" y="45" type="line"/>
			<point x="71" y="45" type="line"/>
			<point x="111" y="8" type="line"/>
			<point x="79" y="158" type="line"/>
			<point x="37" y="158" type="line"/>
		</contour>
	</outline>
</glyph>
<glyph name="alpha" format="2">
	<unicode hex="03B1"/>
	<advance width="634"/>
	<outline>
		<contour>
			<point x="265" y="-12" type="curve" smooth="yes"/>
			<point x="376" y="-12"/>
			<point x="422" y="56"/>
			<point x="443" y="108" type="curve"/>
			<point x="460" y="108" type="line"/>
			<point x="463" y="19"/>
			<point x="504" y="-9"/>
			<point x="554" y="-9" type="curve" smooth="yes"/>
			<point x="587" y="-9"/>
			<point x="612" y="5"/>
			<point x="627" y="22" type="curve"/>
			<point x="608" y="51" type="line"/>
			<point x="596" y="42"/>
			<point x="583" y="35"/>
			<point x="563" y="35" type="curve" smooth="yes"/>
			<point x="530" y="35"/>
			<point x="502" y="55"/>
			<point x="502" y="119" type="curve" smooth="yes"/>
			<point x="501" y="186"/>
			<point x="510" y="332"/>
			<point x="531" y="501" type="curve"/>
			<point x="516" y="512" type="line"/>
			<point x="467" y="496" type="line"/>
			<point x="461" y="374" type="line"/>
			<point x="448" y="205" type="line"/>
			<point x="438" y="89"/>
			<point x="362" y="31"/>
			<point x="277" y="31" type="curve" smooth="yes"/>
			<point x="178" y="31"/>
			<point x="118" y="105"/>
			<point x="118" y="236" type="curve" smooth="yes"/>
			<point x="118" y="375"/>
			<point x="173" y="475"/>
			<point x="283" y="475" type="curve" smooth="yes"/>
			<point x="375" y="475"/>
			<point x="445" y="420"/>
			<point x="474" y="313" type="curve"/>
			<point x="476" y="410" type="line"/>
			<point x="448" y="410" type="line"/>
			<point x="422" y="466"/>
			<point x="372" y="515"/>
			<point x="274" y="515" type="curve" smooth="yes"/>
			<point x="137" y="515"/>
			<point x="58" y="395"/>
			<point x="58" y="233" type="curve" smooth="yes"/>
			<point x="58" y="72"/>
			<point x="146" y="-12"/>
		</contour>
	</outline>
	<anchor name="aboveLC" x="317" y="523"/>
	<anchor name="belowLC" x="317" y="-20"/>
</glyph>
<glyph name="beta" format="2">
	<unicode hex="03B2"/>
	<advance width="609"/>
	<outline>
		<contour>
			<point x="108" y="-181" type="line"/>
			<point x="121" y="-192" type="line"/>
			<point x="172" y="-176" type="line"/>
			<point x="165" y="68" type="line"/>
			<point x="170" y="68" type="line"/>
			<point x="170" y="523" type="line" smooth="yes"/>
			<point x="170" y="674"/>
			<point x="241" y="709"/>
			<point x="321" y="709" type="curve" smooth="yes"/>
			<point x="400" y="709"/>
			<point x="451" y="664"/>
			<point x="451" y="578" type="curve" smooth="yes"/>
			<point x="451" y="491"/>
			<point x="403" y="437"/>
			<point x="269" y="406" type="curve"/>
			<point x="272" y="365" type="line"/>
			<point x="432" y="373"/>
			<point x="492" y="304"/>
			<point x="492" y="200" type="curve" smooth="yes"/>
			<point x="492" y="97"/>
			<point x="423" y="32"/>
			<point x="326" y="32" type="curve" smooth="yes"/>
			<point x="258" y="32"/>
			<point x="204" y="53"/>
			<point x="154" y="111" type="curve"/>
			<point x="154" y="63" type="line"/>
			<point x="182" y="63" type="line"/>
			<point x="210" y="17"/>
			<point x="262" y="-12"/>
			<point x="338" y="-12" type="curve" smooth="yes"/>
			<point x="460" y="-12"/>
			<point x="550" y="69"/>
			<point x="550" y="197" type="curve" smooth="yes"/>
			<point x="550" y="325"/>
			<point x="463" y="395"/>
			<point x="312" y="387" type="curve"/>
			<point x="312" y="400" type="line"/>
			<point x="445" y="421"/>
			<point x="509" y="478"/>
			<point x="509" y="580" type="curve" smooth="yes"/>
			<point x="509" y="689"/>
			<point x="434" y="747"/>
			<point x="325" y="747" type="curve" smooth="yes"/>
			<point x="216" y="747"/>
			<point x="115" y="699"/>
			<point x="115" y="509" type="curve" smooth="yes"/>
			<point x="115" y="-19" type="line"/>
		</contour>
	</outline>
</glyph>
<glyph name="gamma" format="2">
	<unicode hex="03B3"/>
	<advance width="554"/>
	<outline>
		<contour>
			<point x="247" y="-189" type="line"/>
			<point x="266" y="-200" type="line"/>
			<point x="316" y="-183" type="line"/>
			<point x="308" y="27" type="line"/>
			<point x="294" y="27" type="line"/>
			<point x="269" y="167"/>
			<point x="229" y="297"/>
			<point x="192" y="400" type="curve" smooth="yes"/>
			<point x="164" y="478"/>
			<point x="140" y="510"/>
			<point x="88" y="510" type="curve" smooth="yes"/>
			<point x="53" y="510"/>
			<point x="28" y="493"/>
			<point x="12" y="481" type="curve"/>
			<point x="27" y="451" type="line"/>
			<point x="35" y="456"/>
			<point x="52" y="466"/>
			<point x="73" y="466" type="curve" smooth="yes"/>
			<point x="99" y="466"/>
			<point x="112" y="450"/>
			<point x="137" y="386" type="curve" smooth="yes"/>
			<point x="177" y="280"/>
			<point x="222" y="150"/>
			<point x="262" y="-11" type="curve"/>
			<point x="259" y="39" type="line"/>
		</contour>
		<contour>
			<point x="304" y="-15" type="line"/>
			<point x="414" y="147"/>
			<point x="509" y="328"/>
			<point x="509" y="464" type="curve" smooth="yes"/>
			<point x="509" y="483"/>
			<point x="507" y="500"/>
			<point x="506" y="510" type="curve"/>
			<point x="501" y="511"/>
			<point x="495" y="512"/>
			<point x="482" y="512" type="curve" smooth="yes"/>
			<point x="451" y="512"/>
			<point x="431" y="495"/>
			<point x="431" y="459" type="curve" smooth="yes"/>
			<point x="431" y="428"/>
			<point x="443" y="393"/>
			<point x="463" y="319" type="curve"/>
			<point x="463" y="389" type="line"/>
			<point x="426" y="258"/>
			<point x="373" y="154"/>
			<point x="289" y="14" type="curve"/>
		</contour>
	</outline>
</glyph>
<glyph name="delta" format="2">
	<unicode hex="03B4"/>
	<advance width="577"/>
	<outline>
		<contour>
			<point x="287" y="-12" type="curve" smooth="yes"/>
			<point x="427" y="-12"/>
			<point x="519" y="77"/>
			<point x="519" y="216" type="curve" smooth="yes"/>
			<point x="519" y="343"/>
			<point x="438" y="413"/>
			<point x="329" y="471" type="curve" smooth="yes"/>
			<point x="219" y="529"/>
			<point x="185" y="561"/>
			<point x="185" y="617" type="curve" smooth="yes"/>
			<point x="185" y="673"/>
			<point x="231" y="717"/>
			<point x="329" y="717" type="curve" smooth="yes"/>
			<point x="361" y="717"/>
			<point x="393" y="713"/>
			<point x="416" y="709" type="curve"/>
			<point x="416" y="725" type="line"/>
			<point x="354" y="731" type="line"/>
			<point x="397" y="683" type="line" smooth="yes"/>
			<point x="417" y="659"/>
			<point x="435" y="648"/>
			<point x="459" y="648" type="curve" smooth="yes"/>
			<point x="484" y="648"/>
			<point x="496" y="663"/>
			<point x="499" y="682" type="curve"/>
			<point x="475" y="719"/>
			<point x="408" y="747"/>
			<point x="324" y="747" type="curve" smooth="yes"/>
			<point x="200" y="747"/>
			<point x="138" y="686"/>
			<point x="138" y="604" type="curve" smooth="yes"/>
			<point x="138" y="522"/>
			<point x="197" y="482"/>
			<point x="289" y="435" type="curve" smooth="yes"/>
			<point x="382" y="389"/>
			<point x="460" y="328"/>
			<point x="460" y="216" type="curve" smooth="yes"/>
			<point x="460" y="102"/>
			<point x="397" y="28"/>
			<point x="287" y="28" type="curve" smooth="yes"/>
			<point x="177" y="28"/>
			<point x="117" y="104"/>
			<point x="117" y="208" type="curve" smooth="yes"/>
			<point x="117" y="312"/>
			<point x="181" y="398"/>
			<point x="340" y="444" type="curve"/>
			<point x="274" y="460" type="line"/>
			<point x="274" y="433" type="line"/>
			<point x="129" y="402"/>
			<point x="58" y="320"/>
			<point x="58" y="205" type="curve" smooth="yes"/>
			<point x="58" y="77"/>
			<point x="147" y="-12"/>
		</contour>
	</outline>
</glyph>
<glyph name="epsilon" format="2">
	<unicode hex="03B5"/>
	<advance width="477"/>
	<outline>
		<contour>
			<point x="244" y="-12" type="curve" smooth="yes"/>
			<point x="346" y="-12"/>
			<point x="405" y="26"/>
			<point x="445" y="62" type="curve"/>
			<point x="423" y="89" type="line"/>
			<point x="383" y="59"/>
			<point x="335" y="29"/>
			<point x="255" y="29" type="curve" smooth="yes"/>
			<point x="162" y="29"/>
			<point x="107" y="66"/>
			<point x="107" y="135" type="curve" smooth="yes"/>
			<point x="107" y="204"/>
			<point x="163" y="245"/>
			<point x="250" y="245" type="curve" smooth="yes"/>
			<point x="278" y="245"/>
			<point x="306" y="245"/>
			<point x="334" y="245" type="curve"/>
			<point x="334" y="286" type="line"/>
			<point x="307" y="286"/>
			<point x="280" y="286"/>
			<point x="253" y="286" type="curve" smooth="yes"/>
			<point x="169" y="286"/>
			<point x="121" y="324"/>
			<point x="121" y="383" type="curve" smooth="yes"/>
			<point x="121" y="441"/>
			<point x="166" y="482"/>
			<point x="254" y="482" type="curve" smooth="yes"/>
			<point x="306" y="482"/>
			<point x="340" y="474"/>
			<point x="372" y="466" type="curve"/>
			<point x="346" y="484" type="line"/>
			<point x="293" y="493" type="line"/>
			<point x="317" y="461" type="line" smooth="yes"/>
			<point x="338" y="433"/>
			<point x="358" y="421"/>
			<point x="385" y="421" type="curve" smooth="yes"/>
			<point x="411" y="421"/>
			<point x="425" y="437"/>
			<point x="428" y="458" type="curve"/>
			<point x="401" y="491"/>
			<point x="341" y="515"/>
			<point x="248" y="515" type="curve" smooth="yes"/>
			<point x="135" y="515"/>
			<point x="66" y="460"/>
			<point x="66" y="382" type="curve" smooth="yes"/>
			<point x="66" y="303"/>
			<point x="135" y="273"/>
			<point x="202" y="270" type="curve"/>
			<point x="202" y="259" type="line"/>
			<point x="124" y="252"/>
			<point x="50" y="220"/>
			<point x="50" y="128" type="curve" smooth="yes"/>
			<point x="50" y="36"/>
			<point x="129" y="-12"/>
		</contour>
	</outline>
	<anchor name="aboveLC" x="265" y="523"/>
	<anchor name="belowLC" x="251" y="-20"/>
</glyph>
<glyph name="eta" format="2">
	<unicode hex="03B7"/>
	<advance width="632"/>
	<outline>
		<contour>
			<point x="129" y="1" type="line"/>
			<point x="143" y="-9" type="line"/>
			<point x="193" y="7" type="line"/>
			<point x="190" y="393" type="line"/>
			<point x="184" y="393" type="line" smooth="yes"/>
			<point x="181" y="480"/>
			<point x="149" y="514"/>
			<point x="93" y="514" type="curve" smooth="yes"/>
			<point x="58" y="514"/>
			<point x="35" y="499"/>
			<point x="17" y="485" type="curve"/>
			<point x="32" y="455" type="line"/>
			<point x="40" y="460"/>
			<point x="58" y="469"/>
			<point x="80" y="469" type="curve" smooth="yes"/>
			<point x="112" y="469"/>
			<point x="134" y="452"/>
			<point x="134" y="400" type="curve" smooth="yes"/>
			<point x="134" y="159" type="line"/>
		</contour>
		<contour>
			<point x="470" y="-181" type="line"/>
			<point x="484" y="-192" type="line"/>
			<point x="534" y="-176" type="line"/>
			<point x="531" y="352" type="line" smooth="yes"/>
			<point x="531" y="457"/>
			<point x="474" y="515"/>
			<point x="381" y="515" type="curve" smooth="yes"/>
			<point x="303" y="515"/>
			<point x="251" y="469"/>
			<point x="204" y="401" type="curve"/>
			<point x="174" y="401" type="line"/>
			<point x="174" y="358" type="line"/>
			<point x="245" y="426"/>
			<point x="300" y="466"/>
			<point x="367" y="466" type="curve" smooth="yes"/>
			<point x="437" y="466"/>
			<point x="475" y="427"/>
			<point x="475" y="338" type="curve" smooth="yes"/>
			<point x="475" y="-19" type="line"/>
		</contour>
	</outline>
	<anchor name="aboveLC" x="334" y="523"/>
	<anchor name="belowLC" x="154" y="-20"/>
</glyph>
<glyph name="theta" format="2">
	<unicode hex="03B8"/>
	<advance width="534"/>
	<outline>
		<contour>
			<point x="267" y="-12" type="curve" smooth="yes"/>
			<point x="387" y="-12"/>
			<point x="471" y="118"/>
			<point x="471" y="394" type="curve" smooth="yes"/>
			<point x="471" y="642"/>
			<point x="397" y="747"/>
			<point x="267" y="747" type="curve" smooth="yes"/>
			<point x="147" y="747"/>
			<point x="63" y="629"/>
			<point x="63" y="352" type="curve" smooth="yes"/>
			<point x="63" y="103"/>
			<point x="135" y="-12"/>
		</contour>
		<contour>
			<point x="267" y="28" type="curve" smooth="yes"/>
			<point x="175" y="28"/>
			<point x="117" y="128"/>
			<point x="117" y="375" type="curve" smooth="yes"/>
			<point x="117" y="616"/>
			<point x="175" y="707"/>
			<point x="267" y="707" type="curve" smooth="yes"/>
			<point x="360" y="707"/>
			<point x="416" y="614"/>
			<point x="416" y="371" type="curve" smooth="yes"/>
			<point x="416" y="129"/>
			<point x="359" y="28"/>
		</contour>
		<contour>
			<point x="104" y="353" type="line"/>
			<point x="430" y="353" type="line"/>
			<point x="430" y="392" type="line"/>
			<point x="104" y="392" type="line"/>
		</contour>
	</outline>
</glyph>
<glyph name="kappa" format="2">
	<unicode hex="03BA"/>
	<advance width="596"/>
	<outline>
		<contour>
			<point x="142" y="-9" type="line"/>
			<point x="188" y="7" type="line"/>
			<point x="190" y="52"/>
			<point x="191" y="112"/>
			<point x="192" y="171" type="curve"/>
			<point x="182" y="171" type="line"/>
			<point x="188" y="251"/>
			<point x="192" y="333"/>
			<point x="192" y="413" type="curve" smooth="yes"/>
			<point x="192" y="484"/>
			<point x="156" y="514"/>
			<point x="98" y="514" type="curve" smooth="yes"/>
			<point x="60" y="514"/>
			<point x="36" y="497"/>
			<point x="20" y="485" type="curve"/>
			<point x="35" y="455" type="line"/>
			<point x="43" y="460"/>
			<point x="60" y="469"/>
			<point x="82" y="469" type="curve" smooth="yes"/>
			<point x="115" y="469"/>
			<point x="137" y="455"/>
			<point x="137" y="408" type="curve" smooth="yes"/>
			<point x="137" y="146" type="line"/>
			<point x="128" y="1" type="line"/>
		</contour>
		<contour>
			<point x="181" y="105" type="line"/>
			<point x="218" y="176"/>
			<point x="254" y="231"/>
			<point x="300" y="292" type="curve"/>
			<point x="351" y="359"/>
			<point x="415" y="420"/>
			<point x="474" y="465" type="curve"/>
			<point x="419" y="432" type="line"/>
			<point x="495" y="432" type="line" smooth="yes"/>
			<point x="540" y="432"/>
			<point x="560" y="451"/>
			<point x="560" y="476" type="curve" smooth="yes"/>
			<point x="560" y="496"/>
			<point x="546" y="507"/>
			<point x="534" y="512" type="curve"/>
			<point x="499" y="509"/>
			<point x="459" y="497"/>
			<point x="402" y="448" type="curve" smooth="yes"/>
			<point x="339" y="392"/>
			<point x="256" y="299"/>
			<point x="200" y="185" type="curve"/>
			<point x="175" y="185" type="line"/>
		</contour>
		<contour>
			<point x="500" y="-9" type="curve" smooth="yes"/>
			<point x="532" y="-9"/>
			<point x="558" y="8"/>
			<point x="576" y="31" type="curve"/>
			<point x="560" y="56" type="line"/>
			<point x="547" y="47"/>
			<point x="532" y="40"/>
			<point x="514" y="40" type="curve" smooth="yes"/>
			<point x="463" y="40"/>
			<point x="431" y="82"/>
			<point x="304" y="317" type="curve"/>
			<point x="283" y="287" type="line"/>
			<point x="395" y="44"/>
			<point x="427" y="-9"/>
		</contour>
	</outline>
</glyph>
<glyph name="lambda" format="2">
	<unicode hex="03BB"/>
	<advance width="577"/>
	<outline>
		<contour>
			<point x="43" y="-1" type="line"/>
			<point x="92" y="-8" type="line"/>
			<point x="265" y="419" type="line"/>
			<point x="291" y="419" type="line"/>
			<point x="263" y="499" type="line"/>
			<point x="38" y="9" type="line"/>
		</contour>
		<contour>
			<point x="479" y="-13" type="curve" smooth="yes"/>
			<point x="518" y="-13"/>
			<point x="545" y="8"/>
			<point x="565" y="34" type="curve"/>
			<point x="547" y="60" type="line"/>
			<point x="531" y="50"/>
			<point x="515" y="42"/>
			<point x="490" y="42" type="curve" smooth="yes"/>
			<point x="446" y="42"/>
			<point x="429" y="78"/>
			<point x="401" y="164" type="curve" smooth="yes"/>
			<point x="253" y="610" type="line" smooth="yes"/>
			<point x="223" y="705"/>
			<point x="195" y="747"/>
			<point x="133" y="747" type="curve" smooth="yes"/>
			<point x="91" y="747"/>
			<point x="61" y="725"/>
			<point x="38" y="696" type="curve"/>
			<point x="56" y="670" type="line"/>
			<point x="75" y="684"/>
			<point x="93" y="692"/>
			<point x="122" y="692" type="curve" smooth="yes"/>
			<point x="173" y="692"/>
			<point x="196" y="667"/>
			<point x="223" y="588" type="curve" smooth="yes"/>
			<point x="285" y="405" type="line"/>
			<point x="361" y="141" type="line" smooth="yes"/>
			<point x="390" y="40"/>
			<point x="411" y="-13"/>
		</contour>
	</outline>
</glyph>
<glyph name="nu" format="2">
	<unicode hex="03BD"/>
	<advance width="562"/>
	<outline>
		<contour>
			<point x="247" y="-4" type="curve"/>
			<point x="293" y="-6" type="line"/>
			<point x="408" y="147"/>
			<point x="517" y="328"/>
			<point x="517" y="464" type="curve" smooth="yes"/>
			<point x="517" y="483"/>
			<point x="516" y="500"/>
			<point x="514" y="509" type="curve"/>
			<point x="509" y="511"/>
			<point x="504" y="512"/>
			<point x="491" y="512" type="curve" smooth="yes"/>
			<point x="460" y="512"/>
			<point x="439" y="495"/>
			<point x="439" y="459" type="curve" smooth="yes"/>
			<point x="439" y="428"/>
			<point x="452" y="393"/>
			<point x="472" y="319" type="curve"/>
			<point x="472" y="394" type="line"/>
			<point x="445" y="294"/>
			<point x="400" y="212"/>
			<point x="366" y="155" type="curve"/>
			<point x="291" y="27" type="line"/>
			<point x="285" y="27" type="line"/>
			<point x="263" y="167"/>
			<point x="229" y="297"/>
			<point x="192" y="400" type="curve" smooth="yes"/>
			<point x="164" y="478"/>
			<point x="140" y="510"/>
			<point x="88" y="510" type="curve" smooth="yes"/>
			<point x="53" y="510"/>
			<point x="28" y="493"/>
			<point x="12" y="481" type="curve"/>
			<point x="27" y="451" type="line"/>
			<point x="35" y="456"/>
			<point x="52" y="466"/>
			<point x="73" y="466" type="curve" smooth="yes"/>
			<point x="99" y="466"/>
			<point x="112" y="450"/>
			<point x="137" y="386" type="curve" smooth="yes"/>
			<point x="177" y="280"/>
			<point x="215" y="155"/>
		</contour>
	</outline>
</glyph>
<glyph name="xi" format="2">
	<unicode hex="03BE"/>
	<advance width="462"/>
	<outline>
		<contour>
			<point x="332" y="-207" type="curve"/>
			<point x="372" y="-207" type="line"/>
			<point x="393" y="-172"/>
			<point x="417" y="-133"/>
			<point x="417" y="-81" type="curve" smooth="yes"/>
			<point x="417" y="-11"/>
			<point x="376" y="24"/>
			<point x="285" y="50" type="curve" smooth="yes"/>
			<point x="162" y="84"/>
			<point x="111" y="119"/>
			<point x="111" y="199" type="curve" smooth="yes"/>
			<point x="111" y="278"/>
			<point x="162" y="357"/>
			<point x="312" y="357" type="curve" smooth="yes"/>
			<point x="342" y="357"/>
			<point x="377" y="354"/>
			<point x="393" y="352" type="curve"/>
			<point x="393" y="404" type="line"/>
			<point x="373" y="403"/>
			<point x="343" y="401"/>
			<point x="318" y="401" type="curve" smooth="yes"/>
			<point x="192" y="401"/>
			<point x="144" y="452"/>
			<point x="144" y="529" type="curve" smooth="yes"/>
			<point x="144" y="606"/>
			<point x="195" y="673"/>
			<point x="433" y="696" type="curve"/>
			<point x="433" y="735" type="line"/>
			<point x="61" y="741" type="line"/>
			<point x="61" y="688" type="line"/>
			<point x="331" y="707" type="line"/>
			<point x="331" y="686" type="line"/>
			<point x="341" y="697" type="line"/>
			<point x="164" y="676"/>
			<point x="92" y="623"/>
			<point x="92" y="528" type="curve" smooth="yes"/>
			<point x="92" y="431"/>
			<point x="164" y="387"/>
			<point x="280" y="382" type="curve"/>
			<point x="280" y="370" type="line"/>
			<point x="123" y="365"/>
			<point x="56" y="290"/>
			<point x="56" y="193" type="curve" smooth="yes"/>
			<point x="56" y="91"/>
			<point x="130" y="40"/>
			<point x="257" y="4" type="curve" smooth="yes"/>
			<point x="343" y="-20"/>
			<point x="369" y="-44"/>
			<point x="369" y="-94" type="curve" smooth="yes"/>
			<point x="369" y="-134"/>
			<point x="353" y="-167"/>
		</contour>
	</outline>
</glyph>
<glyph name="sigma.end" format="2">
	<unicode hex="03C2"/>
	<advance width="492"/>
	<outline>
		<contour>
			<point x="345" y="-207" type="curve"/>
			<point x="385" y="-207" type="line"/>
			<point x="407" y="-172"/>
			<point x="431" y="-127"/>
			<point x="431" y="-75" type="curve" smooth="yes"/>
			<point x="431" y="-5"/>
			<point x="389" y="30"/>
			<point x="296" y="58" type="curve" smooth="yes"/>
			<point x="163" y="99"/>
			<point x="114" y="156"/>
			<point x="114" y="271" type="curve" smooth="yes"/>
			<point x="114" y="385"/>
			<point x="182" y="485"/>
			<point x="311" y="485" type="curve" smooth="yes"/>
			<point x="356" y="485"/>
			<point x="377" y="479"/>
			<point x="407" y="472" type="curve"/>
			<point x="324" y="499" type="line"/>
			<point x="352" y="461" type="line" smooth="yes"/>
			<point x="374" y="433"/>
			<point x="393" y="421"/>
			<point x="420" y="421" type="curve" smooth="yes"/>
			<point x="447" y="421"/>
			<point x="460" y="437"/>
			<point x="463" y="458" type="curve"/>
			<point x="439" y="491"/>
			<point x="386" y="515"/>
			<point x="305" y="515" type="curve" smooth="yes"/>
			<point x="152" y="515"/>
			<point x="58" y="401"/>
			<point x="58" y="264" type="curve" smooth="yes"/>
			<point x="58" y="126"/>
			<point x="129" y="55"/>
			<point x="267" y="13" type="curve" smooth="yes"/>
			<point x="353" y="-14"/>
			<point x="383" y="-38"/>
			<point x="383" y="-88" type="curve" smooth="yes"/>
			<point x="383" y="-128"/>
			<point x="367" y="-167"/>
		</contour>
	</outline>
</glyph>
<glyph name="phi" format="2">
	<unicode hex="03C6"/>
	<advance width="744"/>
	<outline>
		<contour>
			<point x="338" y="-189" type="line"/>
			<point x="355" y="-200" type="line"/>
			<point x="403" y="-183" type="line"/>
			<point x="395" y="5" type="line"/>
			<point x="392" y="675" type="line"/>
			<point x="352" y="675" type="line"/>
			<point x="349" y="5" type="line"/>
		</contour>
		<contour>
			<point x="360" y="-8" type="curve"/>
			<point x="360" y="31" type="line"/>
			<point x="197" y="31"/>
			<point x="117" y="111"/>
			<point x="117" y="251" type="curve" smooth="yes"/>
			<point x="117" y="392"/>
			<point x="197" y="472"/>
			<point x="360" y="472" type="curve"/>
			<point x="360" y="511" type="line"/>
			<point x="167" y="511"/>
			<point x="58" y="408"/>
			<point x="58" y="249" type="curve" smooth="yes"/>
			<point x="58" y="89"/>
			<point x="167" y="-8"/>
		</contour>
		<contour>
			<point x="384" y="-8" type="line"/>
			<point x="577" y="-8"/>
			<point x="686" y="95"/>
			<point x="686" y="254" type="curve" smooth="yes"/>
			<point x="686" y="413"/>
			<point x="577" y="511"/>
			<point x="384" y="511" type="curve"/>
			<point x="384" y="472" type="line"/>
			<point x="547" y="472"/>
			<point x="627" y="392"/>
			<point x="627" y="251" type="curve" smooth="yes"/>
			<point x="627" y="111"/>
			<point x="547" y="31"/>
			<point x="384" y="31" type="curve"/>
		</contour>
	</outline>
</glyph>
<glyph name="chi" format="2">
	<unicode hex="03C7"/>
	<advance width="536"/>
	<outline>
		<contour>
			<point x="56" y="-187" type="line"/>
			<point x="98" y="-187" type="line"/>
			<point x="272" y="164" type="line"/>
			<point x="466" y="487" type="line"/>
			<point x="451" y="506" type="line"/>
			<point x="410" y="506" type="line"/>
			<point x="251" y="210" type="line"/>
			<point x="42" y="-167" type="line"/>
		</contour>
		<contour>
			<point x="445" y="-195" type="curve" smooth="yes"/>
			<point x="483" y="-195"/>
			<point x="510" y="-176"/>
			<point x="528" y="-154" type="curve"/>
			<point x="515" y="-124" type="line"/>
			<point x="500" y="-133"/>
			<point x="486" y="-139"/>
			<point x="462" y="-139" type="curve" smooth="yes"/>
			<point x="415" y="-139"/>
			<point x="383" y="-118"/>
			<point x="352" y="-28" type="curve" smooth="yes"/>
			<point x="280" y="185" type="line"/>
			<point x="242" y="133" type="line"/>
			<point x="269" y="133" type="line"/>
			<point x="317" y="-48" type="line" smooth="yes"/>
			<point x="347" y="-160"/>
			<point x="380" y="-195"/>
		</contour>
		<contour>
			<point x="240" y="172" type="line"/>
			<point x="277" y="229" type="line"/>
			<point x="250" y="229" type="line"/>
			<point x="209" y="379" type="line" smooth="yes"/>
			<point x="187" y="468"/>
			<point x="156" y="512"/>
			<point x="91" y="512" type="curve" smooth="yes"/>
			<point x="53" y="512"/>
			<point x="29" y="493"/>
			<point x="11" y="472" type="curve"/>
			<point x="24" y="445" type="line"/>
			<point x="39" y="454"/>
			<point x="53" y="460"/>
			<point x="77" y="460" type="curve" smooth="yes"/>
			<point x="132" y="460"/>
			<point x="154" y="427"/>
			<point x="179" y="354" type="curve" smooth="yes"/>
		</contour>
	</outline>
</glyph>
<glyph name="omega" format="2">
	<unicode hex="03C9"/>
	<advance width="804"/>
	<outline>
		<contour>
			<point x="237" y="-12" type="curve" smooth="yes"/>
			<point x="337" y="-12"/>
			<point x="387" y="48"/>
			<point x="397" y="134" type="curve"/>
			<point x="407" y="134" type="line"/>
			<point x="417" y="48"/>
			<point x="467" y="-12"/>
			<point x="567" y="-12" type="curve" smooth="yes"/>
			<point x="667" y="-12"/>
			<point x="750" y="60"/>
			<point x="750" y="204" type="curve" smooth="yes"/>
			<point x="750" y="357"/>
			<point x="670" y="453"/>
			<point x="571" y="512" type="curve"/>
			<point x="550" y="480" type="line"/>
			<point x="634" y="425"/>
			<point x="693" y="335"/>
			<point x="693" y="207" type="curve" smooth="yes"/>
			<point x="693" y="85"/>
			<point x="636" y="31"/>
			<point x="556" y="31" type="curve" smooth="yes"/>
			<point x="475" y="31"/>
			<point x="428" y="82"/>
			<point x="428" y="175" type="curve" smooth="yes"/>
			<point x="428" y="210"/>
			<point x="432" y="261"/>
			<point x="436" y="335" type="curve"/>
			<point x="422" y="349" type="line"/>
			<point x="368" y="333" type="line"/>
			<point x="372" y="261"/>
			<point x="376" y="210"/>
			<point x="376" y="175" type="curve" smooth="yes"/>
			<point x="376" y="82"/>
			<point x="329" y="31"/>
			<point x="248" y="31" type="curve" smooth="yes"/>
			<point x="168" y="31"/>
			<point x="111" y="85"/>
			<point x="111" y="207" type="curve" smooth="yes"/>
			<point x="111" y="335"/>
			<point x="170" y="425"/>
			<point x="254" y="480" type="curve"/>
			<point x="233" y="512" type="line"/>
			<point x="134" y="453"/>
			<point x="54" y="357"/>
			<point x="54" y="204" type="curve" smooth="yes"/>
			<point x="54" y="60"/>
			<point x="137" y="-12"/>
		</contour>
	</outline>
	<anchor name="aboveLC" x="406" y="523"/>
	<anchor name="belowLC" x="402" y="-20"/>
</glyph>
<glyph name="kai" format="2">
	<unicode hex="03D7"/>
	<advance width="628"/>
	<outline>
		<contour>
			<point x="294" y="-199" type="curve" smooth="yes"/>
			<point x="432" y="-199"/>
			<point x="543" y="-125"/>
			<point x="608" y="32" type="curve"/>
			<point x="591" y="56" type="line"/>
			<point x="578" y="47"/>
			<point x="563" y="40"/>
			<point x="544" y="40" type="curve" smooth="yes"/>
			<point x="494" y="40"/>
			<point x="462" y="82"/>
			<point x="334" y="317" type="curve"/>
			<point x="314" y="287" type="line"/>
			<point x="425" y="44"/>
			<point x="458" y="-9"/>
			<point x="529" y="-9" type="curve" smooth="yes"/>
			<point x="547" y="-9"/>
			<point x="561" y="-5"/>
			<point x="587" y="17" type="curve"/>
			<point x="568" y="17" type="line"/>
			<point x="580" y="0" type="line"/>
			<point x="512" y="-99"/>
			<point x="420" y="-148"/>
			<point x="297" y="-148" type="curve" smooth="yes"/>
			<point x="158" y="-148"/>
			<point x="74" y="-87"/>
			<point x="50" y="30" type="curve"/>
			<point x="17" y="21" type="line"/>
			<point x="36" y="-115"/>
			<point x="126" y="-199"/>
		</contour>
		<contour>
			<point x="173" y="-9" type="line"/>
			<point x="219" y="0" type="line"/>
			<point x="221" y="46"/>
			<point x="222" y="102"/>
			<point x="223" y="161" type="curve"/>
			<point x="221" y="161" type="line"/>
			<point x="224" y="241"/>
			<point x="223" y="333"/>
			<point x="223" y="413" type="curve" smooth="yes"/>
			<point x="223" y="484"/>
			<point x="187" y="514"/>
			<point x="129" y="514" type="curve" smooth="yes"/>
			<point x="91" y="514"/>
			<point x="66" y="497"/>
			<point x="50" y="485" type="curve"/>
			<point x="65" y="455" type="line"/>
			<point x="74" y="460"/>
			<point x="91" y="469"/>
			<point x="113" y="469" type="curve" smooth="yes"/>
			<point x="145" y="469"/>
			<point x="167" y="455"/>
			<point x="167" y="408" type="curve" smooth="yes"/>
			<point x="167" y="146" type="line"/>
			<point x="159" y="1" type="line"/>
		</contour>
		<contour>
			<point x="213" y="96" type="line"/>
			<point x="243" y="156"/>
			<point x="277" y="219"/>
			<point x="312" y="274" type="curve"/>
			<point x="325" y="274" type="line"/>
			<point x="383" y="358"/>
			<point x="446" y="420"/>
			<point x="504" y="465" type="curve"/>
			<point x="450" y="432" type="line"/>
			<point x="525" y="432" type="line" smooth="yes"/>
			<point x="571" y="432"/>
			<point x="590" y="451"/>
			<point x="590" y="476" type="curve" smooth="yes"/>
			<point x="590" y="496"/>
			<point x="576" y="507"/>
			<point x="564" y="512" type="curve"/>
			<point x="529" y="509"/>
			<point x="489" y="497"/>
			<point x="433" y="448" type="curve" smooth="yes"/>
			<point x="395" y="415"/>
			<point x="350" y="368"/>
			<point x="309" y="311" type="curve"/>
			<point x="229" y="172" type="line"/>
			<point x="206" y="172" type="line"/>
		</contour>
	</outline>
</glyph>
<glyph name="Dje" format="2">
	<unicode hex="0402"/>
	<advance width="727"/>
	<outline>
		<contour>
			<point x="23" y="493" type="line"/>
			<point x="65" y="493" type="line"/>
			<point x="92" y="660" type="line"/>
			<point x="63" y="631" type="line"/>
			<point x="551" y="631" type="line"/>
			<point x="522" y="660" type="line"/>
			<point x="549" y="499" type="line"/>
			<point x="592" y="499" type="line"/>
			<point x="581" y="674" type="line"/>
			<point x="33" y="674" type="line"/>
		</contour>
		<contour>
			<point x="260" y="0" type="curve"/>
			<point x="322" y="0" type="line"/>
			<point x="322" y="101"/>
			<point x="322" y="203"/>
			<point x="322" y="304" type="curve" smooth="yes"/>
			<point x="322" y="370" type="line" smooth="yes"/>
			<point x="322" y="472"/>
			<point x="322" y="572"/>
			<point x="322" y="674" type="curve"/>
			<point x="260" y="674" type="line"/>
			<point x="260" y="572"/>
			<point x="260" y="472"/>
			<point x="260" y="370" type="curve" smooth="yes"/>
			<point x="260" y="304" type="line" smooth="yes"/>
			<point x="260" y="203"/>
			<point x="260" y="101"/>
		</contour>
		<contour>
			<point x="476" y="-67" type="line"/>
			<point x="600" y="-26"/>
			<point x="672" y="59"/>
			<point x="672" y="191" type="curve" smooth="yes"/>
			<point x="672" y="329"/>
			<point x="595" y="394"/>
			<point x="429" y="394" type="curve" smooth="yes"/>
			<point x="370" y="394"/>
			<point x="321" y="385"/>
			<point x="297" y="378" type="curve"/>
			<point x="297" y="338" type="line"/>
			<point x="321" y="344"/>
			<point x="370" y="353"/>
			<point x="423" y="353" type="curve" smooth="yes"/>
			<point x="559" y="353"/>
			<point x="609" y="299"/>
			<point x="609" y="187" type="curve" smooth="yes"/>
			<point x="609" y="75"/>
			<point x="555" y="4"/>
			<point x="460" y="-32" type="curve"/>
		</contour>
		<contour>
			<point x="148" y="0" type="line"/>
			<point x="282" y="0" type="line"/>
			<point x="282" y="43" type="line"/>
			<point x="271" y="43" type="line"/>
			<point x="148" y="43" type="line"/>
		</contour>
	</outline>
</glyph>
<glyph name="Ieukran" format="2">
	<unicode hex="0404"/>
	<advance width="636"/>
	<outline>
		<contour>
			<point x="386" y="-16" type="curve" smooth="yes"/>
			<point x="474" y="-16"/>
			<point x="546" y="5"/>
			<point x="576" y="24" type="curve"/>
			<point x="580" y="176" type="line"/>
			<point x="539" y="176" type="line"/>
			<point x="517" y="27" type="line"/>
			<point x="556" y="27" type="line"/>
			<point x="556" y="65" type="line"/>
			<point x="522" y="43"/>
			<point x="465" y="27"/>
			<point x="393" y="27" type="curve" smooth="yes"/>
			<point x="230" y="27"/>
			<point x="126" y="116"/>
			<point x="126" y="337" type="curve" smooth="yes"/>
			<point x="126" y="558"/>
			<point x="233" y="647"/>
			<point x="389" y="647" type="curve" smooth="yes"/>
			<point x="452" y="647"/>
			<point x="503" y="634"/>
			<point x="546" y="607" type="curve"/>
			<point x="546" y="645" type="line"/>
			<point x="507" y="645" type="line"/>
			<point x="529" y="500" type="line"/>
			<point x="570" y="500" type="line"/>
			<point x="566" y="648" type="line"/>
			<point x="526" y="673"/>
			<point x="461" y="690"/>
			<point x="386" y="690" type="curve" smooth="yes"/>
			<point x="195" y="690"/>
			<point x="61" y="564"/>
			<point x="61" y="335" type="curve" smooth="yes"/>
			<point x="61" y="105"/>
			<point x="192" y="-16"/>
		</contour>
		<contour>
			<point x="114" y="323" type="line"/>
			<point x="407" y="323" type="line"/>
			<point x="407" y="364" type="line"/>
			<point x="114" y="364" type="line"/>
		</contour>
		<contour>
			<point x="393" y="227" type="line"/>
			<point x="434" y="227" type="line"/>
			<point x="434" y="460" type="line"/>
			<point x="393" y="460" type="line"/>
			<point x="379" y="353" type="line"/>
			<point x="379" y="333" type="line"/>
		</contour>
	</outline>
	<anchor name="aboveUC" x="375" y="694"/>
</glyph>
<glyph name="Lje" format="2">
	<unicode hex="0409"/>
	<advance width="936"/>
	<outline>
		<contour>
			<point x="81" y="-13" type="curve" smooth="yes"/>
			<point x="146" y="-13"/>
			<point x="191" y="26"/>
			<point x="238" y="162" type="curve" smooth="yes"/>
			<point x="278" y="277"/>
			<point x="296" y="449"/>
			<point x="302" y="674" type="curve"/>
			<point x="255" y="674" type="line"/>
			<point x="249" y="441"/>
			<point x="231" y="283"/>
			<point x="197" y="179" type="curve" smooth="yes"/>
			<point x="176" y="117"/>
			<point x="153" y="72"/>
			<point x="115" y="25" type="curve"/>
			<point x="130" y="32" type="line"/>
			<point x="84" y="32" type="line"/>
			<point x="108" y="25" type="line"/>
			<point x="93" y="56"/>
			<point x="78" y="70"/>
			<point x="53" y="70" type="curve" smooth="yes"/>
			<point x="29" y="70"/>
			<point x="11" y="56"/>
			<point x="7" y="34" type="curve"/>
			<point x="12" y="4"/>
			<point x="38" y="-13"/>
		</contour>
		<contour>
			<point x="264" y="631" type="line"/>
			<point x="272" y="631" type="line"/>
			<point x="272" y="674" type="line"/>
			<point x="134" y="674" type="line"/>
			<point x="134" y="631" type="line"/>
		</contour>
		<contour>
			<point x="279" y="633" type="line"/>
			<point x="493" y="633" type="line"/>
			<point x="493" y="674" type="line"/>
			<point x="279" y="674" type="line"/>
		</contour>
		<contour>
			<point x="365" y="0" type="line"/>
			<point x="496" y="0" type="line"/>
			<point x="496" y="43" type="line"/>
			<point x="485" y="43" type="line"/>
			<point x="365" y="43" type="line"/>
		</contour>
		<contour>
			<point x="477" y="0" type="curve"/>
			<point x="539" y="0" type="line"/>
			<point x="539" y="101"/>
			<point x="539" y="203"/>
			<point x="539" y="304" type="curve" smooth="yes"/>
			<point x="539" y="370" type="line" smooth="yes"/>
			<point x="539" y="472"/>
			<point x="539" y="572"/>
			<point x="539" y="674" type="curve"/>
			<point x="477" y="674" type="line"/>
			<point x="477" y="572"/>
			<point x="477" y="472"/>
			<point x="477" y="370" type="curve" smooth="yes"/>
			<point x="477" y="304" type="line" smooth="yes"/>
			<point x="477" y="203"/>
			<point x="477" y="101"/>
		</contour>
		<contour>
			<point x="517" y="0" type="line"/>
			<point x="603" y="0" type="line" smooth="yes"/>
			<point x="792" y="0"/>
			<point x="891" y="73"/>
			<point x="891" y="198" type="curve" smooth="yes"/>
			<point x="891" y="321"/>
			<point x="797" y="386"/>
			<point x="632" y="386" type="curve" smooth="yes"/>
			<point x="571" y="386"/>
			<point x="532" y="378"/>
			<point x="505" y="370" type="curve"/>
			<point x="505" y="330" type="line"/>
			<point x="532" y="337"/>
			<point x="576" y="345"/>
			<point x="627" y="345" type="curve" smooth="yes"/>
			<point x="765" y="345"/>
			<point x="827" y="292"/>
			<point x="827" y="195" type="curve" smooth="yes"/>
			<point x="827" y="97"/>
			<point x="760" y="40"/>
			<point x="598" y="40" type="curve" smooth="yes"/>
			<point x="517" y="40" type="line"/>
		</contour>
		<contour>
			<point x="516" y="631" type="line"/>
			<point x="525" y="631" type="line"/>
			<point x="667" y="631" type="line"/>
			<point x="667" y="674" type="line"/>
			<point x="516" y="674" type="line"/>
		</contour>
	</outline>
</glyph>
<glyph name="Nje" format="2">
	<unicode hex="040A"/>
	<advance width="1045"/>
	<outline>
		<contour>
			<point x="45" y="0" type="line"/>
			<point x="330" y="0" type="line"/>
			<point x="330" y="43" type="line"/>
			<point x="202" y="43" type="line"/>
			<point x="173" y="43" type="line"/>
			<point x="45" y="43" type="line"/>
		</contour>
		<contour>
			<point x="156" y="0" type="curve"/>
			<point x="219" y="0" type="line"/>
			<point x="219" y="101"/>
			<point x="219" y="203"/>
			<point x="219" y="304" type="curve" smooth="yes"/>
			<point x="219" y="369" type="line" smooth="yes"/>
			<point x="219" y="471"/>
			<point x="219" y="572"/>
			<point x="219" y="674" type="curve"/>
			<point x="156" y="674" type="line"/>
			<point x="156" y="572"/>
			<point x="156" y="472"/>
			<point x="156" y="370" type="curve" smooth="yes"/>
			<point x="156" y="304" type="line" smooth="yes"/>
			<point x="156" y="203"/>
			<point x="156" y="101"/>
		</contour>
		<contour>
			<point x="173" y="631" type="line"/>
			<point x="202" y="631" type="line"/>
			<point x="330" y="631" type="line"/>
			<point x="330" y="674" type="line"/>
			<point x="45" y="674" type="line"/>
			<point x="45" y="631" type="line"/>
		</contour>
		<contour>
			<point x="191" y="333" type="line"/>
			<point x="591" y="333" type="line"/>
			<point x="591" y="376" type="line"/>
			<point x="191" y="376" type="line"/>
		</contour>
		<contour>
			<point x="468" y="0" type="line"/>
			<point x="599" y="0" type="line"/>
			<point x="599" y="43" type="line"/>
			<point x="588" y="43" type="line"/>
			<point x="468" y="43" type="line"/>
		</contour>
		<contour>
			<point x="580" y="0" type="curve"/>
			<point x="642" y="0" type="line"/>
			<point x="642" y="101"/>
			<point x="642" y="203"/>
			<point x="642" y="304" type="curve" smooth="yes"/>
			<point x="642" y="370" type="line" smooth="yes"/>
			<point x="642" y="472"/>
			<point x="642" y="572"/>
			<point x="642" y="674" type="curve"/>
			<point x="580" y="674" type="line"/>
			<point x="580" y="572"/>
			<point x="580" y="472"/>
			<point x="580" y="370" type="curve" smooth="yes"/>
			<point x="580" y="304" type="line" smooth="yes"/>
			<point x="580" y="203"/>
			<point x="580" y="101"/>
		</contour>
		<contour>
			<point x="595" y="631" type="line"/>
			<point x="627" y="631" type="line"/>
			<point x="770" y="631" type="line"/>
			<point x="770" y="674" type="line"/>
			<point x="468" y="674" type="line"/>
			<point x="468" y="631" type="line"/>
		</contour>
		<contour>
			<point x="620" y="0" type="line"/>
			<point x="713" y="0" type="line" smooth="yes"/>
			<point x="901" y="0"/>
			<point x="1000" y="73"/>
			<point x="1000" y="198" type="curve" smooth="yes"/>
			<point x="1000" y="321"/>
			<point x="906" y="386"/>
			<point x="742" y="386" type="curve" smooth="yes"/>
			<point x="678" y="386"/>
			<point x="637" y="379"/>
			<point x="609" y="370" type="curve"/>
			<point x="609" y="330" type="line"/>
			<point x="637" y="337"/>
			<point x="683" y="345"/>
			<point x="736" y="345" type="curve" smooth="yes"/>
			<point x="874" y="345"/>
			<point x="936" y="292"/>
			<point x="936" y="195" type="curve" smooth="yes"/>
			<point x="936" y="97"/>
			<point x="869" y="40"/>
			<point x="707" y="40" type="curve" smooth="yes"/>
			<point x="620" y="40" type="line"/>
		</contour>
	</outline>
</glyph>
<glyph name="Tshe" format="2">
	<unicode hex="040B"/>
	<advance width="800"/>
	<outline>
		<contour>
			<point x="23" y="493" type="line"/>
			<point x="65" y="493" type="line"/>
			<point x="92" y="660" type="line"/>
			<point x="63" y="631" type="line"/>
			<point x="545" y="631" type="line"/>
			<point x="516" y="660" type="line"/>
			<point x="544" y="499" type="line"/>
			<point x="586" y="499" type="line"/>
			<point x="576" y="674" type="line"/>
			<point x="33" y="674" type="line"/>
		</contour>
		<contour>
			<point x="260" y="0" type="curve"/>
			<point x="322" y="0" type="line"/>
			<point x="322" y="101"/>
			<point x="322" y="203"/>
			<point x="322" y="304" type="curve" smooth="yes"/>
			<point x="322" y="370" type="line" smooth="yes"/>
			<point x="322" y="472"/>
			<point x="322" y="572"/>
			<point x="322" y="674" type="curve"/>
			<point x="260" y="674" type="line"/>
			<point x="260" y="572"/>
			<point x="260" y="472"/>
			<point x="260" y="370" type="curve" smooth="yes"/>
			<point x="260" y="304" type="line" smooth="yes"/>
			<point x="260" y="203"/>
			<point x="260" y="101"/>
		</contour>
		<contour>
			<point x="610" y="0" type="curve"/>
			<point x="673" y="0" type="line"/>
			<point x="673" y="199" type="line" smooth="yes"/>
			<point x="673" y="335"/>
			<point x="604" y="397"/>
			<point x="447" y="397" type="curve" smooth="yes"/>
			<point x="377" y="397"/>
			<point x="322" y="382"/>
			<point x="298" y="372" type="curve"/>
			<point x="298" y="335" type="line"/>
			<point x="319" y="341"/>
			<point x="371" y="353"/>
			<point x="430" y="353" type="curve" smooth="yes"/>
			<point x="562" y="353"/>
			<point x="610" y="301"/>
			<point x="610" y="188" type="curve" smooth="yes"/>
			<point x="610" y="125"/>
			<point x="610" y="63"/>
		</contour>
		<contour>
			<point x="148" y="0" type="line"/>
			<point x="431" y="0" type="line"/>
			<point x="431" y="43" type="line"/>
			<point x="306" y="43" type="line"/>
			<point x="277" y="43" type="line"/>
			<point x="148" y="43" type="line"/>
		</contour>
		<contour>
			<point x="502" y="0" type="line"/>
			<point x="776" y="0" type="line"/>
			<point x="776" y="43" type="line"/>
			<point x="656" y="43" type="line"/>
			<point x="627" y="43" type="line"/>
			<point x="502" y="43" type="line"/>
		</contour>
	</outline>
</glyph>
<glyph name="De" format="2">
	<unicode hex="0414"/>
	<advance width="752"/>
	<outline>
		<contour>
			<point x="27" y="-182" type="line"/>
			<point x="69" y="-182" type="line"/>
			<point x="86" y="29" type="line"/>
			<point x="57" y="0" type="line"/>
			<point x="685" y="0" type="line"/>
			<point x="656" y="29" type="line"/>
			<point x="673" y="-182" type="line"/>
			<point x="716" y="-182" type="line"/>
			<point x="716" y="43" type="line"/>
			<point x="27" y="43" type="line"/>
		</contour>
		<contour>
			<point x="151" y="631" type="line"/>
			<point x="270" y="631" type="line"/>
			<point x="278" y="631" type="line"/>
			<point x="278" y="674" type="line"/>
			<point x="151" y="674" type="line"/>
		</contour>
		<contour>
			<point x="283" y="633" type="line"/>
			<point x="548" y="633" type="line"/>
			<point x="548" y="674" type="line"/>
			<point x="283" y="674" type="line"/>
		</contour>
		<contour>
			<point x="532" y="0" type="curve"/>
			<point x="595" y="0" type="line"/>
			<point x="595" y="101"/>
			<point x="595" y="203"/>
			<point x="595" y="304" type="curve" smooth="yes"/>
			<point x="595" y="370" type="line" smooth="yes"/>
			<point x="595" y="472"/>
			<point x="595" y="572"/>
			<point x="595" y="674" type="curve"/>
			<point x="532" y="674" type="line"/>
			<point x="532" y="572"/>
			<point x="532" y="472"/>
			<point x="532" y="370" type="curve" smooth="yes"/>
			<point x="532" y="304" type="line" smooth="yes"/>
			<point x="532" y="203"/>
			<point x="532" y="101"/>
		</contour>
		<contour>
			<point x="573" y="631" type="line"/>
			<point x="584" y="631" type="line"/>
			<point x="704" y="631" type="line"/>
			<point x="704" y="674" type="line"/>
			<point x="573" y="674" type="line"/>
		</contour>
		<contour>
			<point x="92" y="28" type="curve"/>
			<point x="136" y="17" type="line"/>
			<point x="136" y="55" type="line"/>
			<point x="194" y="110"/>
			<point x="233" y="173"/>
			<point x="256" y="255" type="curve" smooth="yes"/>
			<point x="291" y="377"/>
			<point x="303" y="520"/>
			<point x="307" y="674" type="curve"/>
			<point x="261" y="674" type="line"/>
			<point x="253" y="401"/>
			<point x="221" y="180"/>
		</contour>
	</outline>
</glyph>
<glyph name="Icyr" format="2">
	<unicode hex="0418"/>
	<advance width="799"/>
	<outline>
		<contour>
			<point x="148" y="0" type="curve"/>
			<point x="211" y="0" type="line"/>
			<point x="211" y="370" type="line" smooth="yes"/>
			<point x="211" y="472"/>
			<point x="211" y="572"/>
			<point x="211" y="674" type="curve"/>
			<point x="148" y="674" type="line"/>
			<point x="148" y="572"/>
			<point x="148" y="472"/>
			<point x="148" y="370" type="curve" smooth="yes"/>
			<point x="148" y="304" type="line" smooth="yes"/>
			<point x="148" y="203"/>
			<point x="148" y="101"/>
		</contour>
		<contour>
			<point x="588" y="0" type="curve"/>
			<point x="651" y="0" type="line"/>
			<point x="651" y="101"/>
			<point x="651" y="203"/>
			<point x="651" y="304" type="curve" smooth="yes"/>
			<point x="651" y="370" type="line" smooth="yes"/>
			<point x="651" y="472"/>
			<point x="651" y="572"/>
			<point x="651" y="674" type="curve"/>
			<point x="588" y="674" type="line"/>
			<point x="588" y="304" type="line" smooth="yes"/>
			<point x="588" y="203"/>
			<point x="588" y="101"/>
		</contour>
		<contour>
			<point x="37" y="0" type="line"/>
			<point x="322" y="0" type="line"/>
			<point x="322" y="43" type="line"/>
			<point x="194" y="43" type="line"/>
			<point x="165" y="43" type="line"/>
			<point x="37" y="43" type="line"/>
		</contour>
		<contour>
			<point x="37" y="631" type="line"/>
			<point x="165" y="631" type="line"/>
			<point x="194" y="631" type="line"/>
			<point x="322" y="631" type="line"/>
			<point x="322" y="674" type="line"/>
			<point x="37" y="674" type="line"/>
		</contour>
		<contour>
			<point x="477" y="0" type="line"/>
			<point x="762" y="0" type="line"/>
			<point x="762" y="43" type="line"/>
			<point x="634" y="43" type="line"/>
			<point x="605" y="43" type="line"/>
			<point x="477" y="43" type="line"/>
		</contour>
		<contour>
			<point x="477" y="631" type="line"/>
			<point x="605" y="631" type="line"/>
			<point x="634" y="631" type="line"/>
			<point x="762" y="631" type="line"/>
			<point x="762" y="674" type="line"/>
			<point x="477" y="674" type="line"/>
		</contour>
		<contour>
			<point x="197" y="62" type="line"/>
			<point x="386" y="290" type="line"/>
			<point x="574" y="534" type="line"/>
			<point x="602" y="534" type="line"/>
			<point x="602" y="611" type="line"/>
			<point x="413" y="384" type="line"/>
			<point x="225" y="140" type="line"/>
			<point x="197" y="140" type="line"/>
		</contour>
	</outline>
	<anchor name="aboveUC" x="400" y="694"/>
</glyph>
<glyph name="Ucyr" format="2">
	<unicode hex="0423"/>
	<advance width="722"/>
	<outline>
		<contour>
			<point x="119" y="-13" type="curve"/>
			<point x="125" y="-33"/>
			<point x="147" y="-52"/>
			<point x="208" y="-52" type="curve" smooth="yes"/>
			<point x="300" y="-52"/>
			<point x="349" y="-3"/>
			<point x="400" y="115" type="curve" smooth="yes"/>
			<point x="643" y="674" type="line"/>
			<point x="593" y="674" type="line"/>
			<point x="378" y="151" type="line"/>
			<point x="366" y="151" type="line" smooth="yes"/>
			<point x="319" y="35"/>
			<point x="288" y="4"/>
			<point x="263" y="-17" type="curve"/>
			<point x="231" y="-17" type="line"/>
			<point x="265" y="-28" type="line"/>
			<point x="223" y="8"/>
			<point x="207" y="20"/>
			<point x="174" y="20" type="curve" smooth="yes"/>
			<point x="140" y="20"/>
			<point x="126" y="6"/>
		</contour>
		<contour>
			<point x="15" y="631" type="line"/>
			<point x="119" y="631" type="line"/>
			<point x="155" y="631" type="line"/>
			<point x="282" y="631" type="line"/>
			<point x="282" y="674" type="line"/>
			<point x="15" y="674" type="line"/>
		</contour>
		<contour>
			<point x="471" y="631" type="line"/>
			<point x="590" y="631" type="line"/>
			<point x="613" y="631" type="line"/>
			<point x="708" y="631" type="line"/>
			<point x="708" y="674" type="line"/>
			<point x="471" y="674" type="line"/>
		</contour>
		<contour>
			<point x="348" y="74" type="line"/>
			<point x="377" y="122" type="line"/>
			<point x="154" y="674" type="line"/>
			<point x="88" y="674" type="line"/>
		</contour>
	</outline>
	<anchor name="aboveUC" x="364" y="694"/>
</glyph>
<glyph name="Che" format="2">
	<unicode hex="0427"/>
	<advance width="735"/>
	<outline>
		<contour>
			<point x="144" y="631" type="line"/>
			<point x="173" y="631" type="line"/>
			<point x="299" y="631" type="line"/>
			<point x="299" y="674" type="line"/>
			<point x="24" y="674" type="line"/>
			<point x="24" y="631" type="line"/>
		</contour>
		<contour>
			<point x="369" y="278" type="curve" smooth="yes"/>
			<point x="450" y="278"/>
			<point x="512" y="292"/>
			<point x="541" y="303" type="curve"/>
			<point x="541" y="339" type="line"/>
			<point x="514" y="333"/>
			<point x="451" y="322"/>
			<point x="379" y="322" type="curve" smooth="yes"/>
			<point x="236" y="322"/>
			<point x="190" y="368"/>
			<point x="190" y="473" type="curve" smooth="yes"/>
			<point x="190" y="540"/>
			<point x="190" y="607"/>
			<point x="190" y="674" type="curve"/>
			<point x="128" y="674" type="line"/>
			<point x="128" y="606"/>
			<point x="128" y="537"/>
			<point x="128" y="469" type="curve" smooth="yes"/>
			<point x="128" y="338"/>
			<point x="200" y="278"/>
		</contour>
		<contour>
			<point x="387" y="0" type="line"/>
			<point x="690" y="0" type="line"/>
			<point x="690" y="43" type="line"/>
			<point x="564" y="43" type="line"/>
			<point x="531" y="43" type="line"/>
			<point x="387" y="43" type="line"/>
		</contour>
		<contour>
			<point x="516" y="0" type="curve"/>
			<point x="579" y="0" type="line"/>
			<point x="579" y="101"/>
			<point x="579" y="203"/>
			<point x="579" y="304" type="curve" smooth="yes"/>
			<point x="579" y="370" type="line" smooth="yes"/>
			<point x="579" y="472"/>
			<point x="579" y="572"/>
			<point x="579" y="674" type="curve"/>
			<point x="516" y="674" type="line"/>
			<point x="516" y="572"/>
			<point x="516" y="472"/>
			<point x="516" y="370" type="curve" smooth="yes"/>
			<point x="516" y="311" type="line" smooth="yes"/>
			<point x="516" y="203"/>
			<point x="516" y="101"/>
		</contour>
		<contour>
			<point x="533" y="631" type="line"/>
			<point x="562" y="631" type="line"/>
			<point x="690" y="631" type="line"/>
			<point x="690" y="674" type="line"/>
			<point x="408" y="674" type="line"/>
			<point x="408" y="631" type="line"/>
		</contour>
	</outline>
	<anchor name="aboveUC" x="357" y="694"/>
</glyph>
<glyph name="Shcha" format="2">
	<unicode hex="0429"/>
	<advance width="1079"/>
	<outline>
		<contour>
			<point x="156" y="0" type="curve"/>
			<point x="219" y="0" type="line"/>
			<point x="219" y="101"/>
			<point x="219" y="203"/>
			<point x="219" y="304" type="curve" smooth="yes"/>
			<point x="219" y="369" type="line" smooth="yes"/>
			<point x="219" y="471"/>
			<point x="219" y="572"/>
			<point x="219" y="674" type="curve"/>
			<point x="156" y="674" type="line"/>
			<point x="156" y="572"/>
			<point x="156" y="472"/>
			<point x="156" y="370" type="curve" smooth="yes"/>
			<point x="156" y="304" type="line" smooth="yes"/>
			<point x="156" y="203"/>
			<point x="156" y="101"/>
		</contour>
		<contour>
			<point x="508" y="0" type="curve"/>
			<point x="570" y="0" type="line"/>
			<point x="570" y="101"/>
			<point x="570" y="203"/>
			<point x="570" y="304" type="curve" smooth="yes"/>
			<point x="570" y="370" type="line" smooth="yes"/>
			<point x="570" y="472"/>
			<point x="570" y="572"/>
			<point x="570" y="674" type="curve"/>
			<point x="508" y="674" type="line"/>
			<point x="508" y="572"/>
			<point x="508" y="472"/>
			<point x="508" y="370" type="curve" smooth="yes"/>
			<point x="508" y="304" type="line" smooth="yes"/>
			<point x="508" y="203"/>
			<point x="508" y="101"/>
		</contour>
		<contour>
			<point x="859" y="0" type="curve"/>
			<point x="921" y="0" type="line"/>
			<point x="921" y="101"/>
			<point x="921" y="203"/>
			<point x="921" y="304" type="curve" smooth="yes"/>
			<point x="921" y="370" type="line" smooth="yes"/>
			<point x="921" y="472"/>
			<point x="921" y="572"/>
			<point x="921" y="674" type="curve"/>
			<point x="859" y="674" type="line"/>
			<point x="859" y="572"/>
			<point x="859" y="472"/>
			<point x="859" y="370" type="curve" smooth="yes"/>
			<point x="859" y="304" type="line" smooth="yes"/>
			<point x="859" y="203"/>
			<point x="859" y="101"/>
		</contour>
		<contour>
			<point x="202" y="0" type="line"/>
			<point x="1012" y="0" type="line"/>
			<point x="983" y="29" type="line"/>
			<point x="1000" y="-182" type="line"/>
			<point x="1042" y="-182" type="line"/>
			<point x="1042" y="43" type="line"/>
			<point x="202" y="43" type="line"/>
		</contour>
		<contour>
			<point x="45" y="631" type="line"/>
			<point x="173" y="631" type="line"/>
			<point x="202" y="631" type="line"/>
			<point x="322" y="631" type="line"/>
			<point x="322" y="674" type="line"/>
			<point x="45" y="674" type="line"/>
		</contour>
		<contour>
			<point x="404" y="631" type="line"/>
			<point x="524" y="631" type="line"/>
			<point x="553" y="631" type="line"/>
			<point x="674" y="631" type="line"/>
			<point x="674" y="674" type="line"/>
			<point x="404" y="674" type="line"/>
		</contour>
		<contour>
			<point x="755" y="631" type="line"/>
			<point x="876" y="631" type="line"/>
			<point x="905" y="631" type="line"/>
			<point x="1033" y="631" type="line"/>
			<point x="1033" y="674" type="line"/>
			<point x="755" y="674" type="line"/>
		</contour>
		<contour>
			<point x="45" y="0" type="line"/>
			<point x="184" y="0" type="line"/>
			<point x="184" y="43" type="line"/>
			<point x="173" y="43" type="line"/>
			<point x="45" y="43" type="line"/>
		</contour>
	</outline>
</glyph>
<glyph name="ghe" format="2">
	<unicode hex="0433"/>
	<advance width="490"/>
	<outline>
		<contour>
			<point x="141" y="0" type="curve"/>
			<point x="196" y="0" type="line"/>
			<point x="196" y="74"/>
			<point x="196" y="148"/>
			<point x="196" y="222" type="curve" smooth="yes"/>
			<point x="196" y="281" type="line" smooth="yes"/>
			<point x="196" y="354"/>
			<point x="196" y="429"/>
			<point x="196" y="503" type="curve"/>
			<point x="141" y="503" type="line"/>
			<point x="141" y="429"/>
			<point x="141" y="354"/>
			<point x="141" y="281" type="curve" smooth="yes"/>
			<point x="141" y="222" type="line" smooth="yes"/>
			<point x="141" y="148"/>
			<point x="141" y="74"/>
		</contour>
		<contour>
			<point x="185" y="463" type="line"/>
			<point x="420" y="463" type="line"/>
			<point x="395" y="488" type="line"/>
			<point x="417" y="334" type="line"/>
			<point x="458" y="334" type="line"/>
			<point x="450" y="503" type="line"/>
			<point x="185" y="503" type="line"/>
		</contour>
		<contour>
			<point x="41" y="0" type="line"/>
			<point x="311" y="0" type="line"/>
			<point x="311" y="40" type="line"/>
			<point x="179" y="40" type="line"/>
			<point x="157" y="40" type="line"/>
			<point x="41" y="40" type="line"/>
		</contour>
		<contour>
			<point x="41" y="463" type="line"/>
			<point x="157" y="463" type="line"/>
			<point x="173" y="463" type="line"/>
			<point x="173" y="503" type="line"/>
			<point x="41" y="503" type="line"/>
		</contour>
	</outline>
	<anchor name="aboveLC" x="245" y="523"/>
</glyph>
<glyph name="de" format="2">
	<unicode hex="0434"/>
	<advance width="628"/>
	<outline>
		<contour>
			<point x="572" y="0" type="line"/>
			<point x="544" y="24" type="line"/>
			<point x="556" y="-151" type="line"/>
			<point x="597" y="-151" type="line"/>
			<point x="599" y="40" type="line"/>
			<point x="35" y="40" type="line"/>
			<point x="37" y="-151" type="line"/>
			<point x="78" y="-151" type="line"/>
			<point x="90" y="24" type="line"/>
			<point x="62" y="0" type="line"/>
		</contour>
		<contour>
			<point x="440" y="0" type="curve"/>
			<point x="495" y="0" type="line"/>
			<point x="495" y="74"/>
			<point x="495" y="148"/>
			<point x="495" y="222" type="curve" smooth="yes"/>
			<point x="495" y="281" type="line" smooth="yes"/>
			<point x="495" y="354"/>
			<point x="495" y="429"/>
			<point x="495" y="503" type="curve"/>
			<point x="440" y="503" type="line"/>
			<point x="440" y="429"/>
			<point x="440" y="354"/>
			<point x="440" y="281" type="curve" smooth="yes"/>
			<point x="440" y="222" type="line" smooth="yes"/>
			<point x="440" y="148"/>
			<point x="440" y="74"/>
		</contour>
		<contour>
			<point x="121" y="463" type="line"/>
			<point x="223" y="463" type="line"/>
			<point x="239" y="463" type="line"/>
			<point x="239" y="503" type="line"/>
			<point x="121" y="503" type="line"/>
		</contour>
		<contour>
			<point x="463" y="463" type="line"/>
			<point x="479" y="463" type="line"/>
			<point x="591" y="463" type="line"/>
			<point x="591" y="503" type="line"/>
			<point x="463" y="503" type="line"/>
		</contour>
		<contour>
			<point x="109" y="22" type="curve"/>
			<point x="157" y="11" type="line"/>
			<point x="157" y="52" type="line"/>
			<point x="190" y="78"/>
			<point x="215" y="122"/>
			<point x="230" y="183" type="curve" smooth="yes"/>
			<point x="252" y="267"/>
			<point x="261" y="376"/>
			<point x="261" y="503" type="curve"/>
			<point x="216" y="503" type="line"/>
			<point x="216" y="294"/>
			<point x="196" y="133"/>
		</contour>
		<contour>
			<point x="234" y="463" type="line"/>
			<point x="456" y="463" type="line"/>
			<point x="456" y="503" type="line"/>
			<point x="234" y="503" type="line"/>
		</contour>
	</outline>
</glyph>
<glyph name="zhe" format="2">
	<unicode hex="0436"/>
	<advance width="845"/>
	<outline>
		<contour>
			<point x="24" y="0" type="line"/>
			<point x="43" y="-3"/>
			<point x="67" y="-5"/>
			<point x="91" y="-5" type="curve" smooth="yes"/>
			<point x="148" y="-5"/>
			<point x="170" y="11"/>
			<point x="186" y="57" type="curve" smooth="yes"/>
			<point x="223" y="162" type="line" smooth="yes"/>
			<point x="243" y="221"/>
			<point x="270" y="242"/>
			<point x="331" y="242" type="curve" smooth="yes"/>
			<point x="413" y="242" type="line"/>
			<point x="413" y="282" type="line"/>
			<point x="342" y="282" type="line" smooth="yes"/>
			<point x="270" y="282"/>
			<point x="236" y="319"/>
			<point x="206" y="400" type="curve" smooth="yes"/>
			<point x="176" y="486"/>
			<point x="134" y="513"/>
			<point x="62" y="515" type="curve"/>
			<point x="43" y="511"/>
			<point x="28" y="499"/>
			<point x="28" y="480" type="curve" smooth="yes"/>
			<point x="28" y="458"/>
			<point x="47" y="441"/>
			<point x="81" y="441" type="curve" smooth="yes"/>
			<point x="114" y="441"/>
			<point x="141" y="455"/>
			<point x="160" y="470" type="curve"/>
			<point x="113" y="478" type="line"/>
			<point x="134" y="459"/>
			<point x="155" y="430"/>
			<point x="180" y="368" type="curve" smooth="yes"/>
			<point x="206" y="305"/>
			<point x="240" y="276"/>
			<point x="302" y="267" type="curve"/>
			<point x="302" y="257" type="line"/>
			<point x="229" y="256"/>
			<point x="191" y="231"/>
			<point x="169" y="171" type="curve" smooth="yes"/>
			<point x="111" y="15" type="line"/>
			<point x="146" y="41" type="line"/>
			<point x="24" y="38" type="line"/>
		</contour>
		<contour>
			<point x="821" y="0" type="curve"/>
			<point x="821" y="38" type="line"/>
			<point x="698" y="41" type="line"/>
			<point x="733" y="15" type="line"/>
			<point x="675" y="171" type="line" smooth="yes"/>
			<point x="654" y="231"/>
			<point x="616" y="256"/>
			<point x="542" y="257" type="curve"/>
			<point x="542" y="267" type="line"/>
			<point x="604" y="276"/>
			<point x="639" y="305"/>
			<point x="664" y="368" type="curve" smooth="yes"/>
			<point x="690" y="430"/>
			<point x="711" y="459"/>
			<point x="732" y="478" type="curve"/>
			<point x="684" y="470" type="line"/>
			<point x="703" y="455"/>
			<point x="730" y="441"/>
			<point x="764" y="441" type="curve" smooth="yes"/>
			<point x="798" y="441"/>
			<point x="817" y="458"/>
			<point x="817" y="480" type="curve" smooth="yes"/>
			<point x="817" y="499"/>
			<point x="802" y="511"/>
			<point x="783" y="515" type="curve"/>
			<point x="711" y="513"/>
			<point x="669" y="486"/>
			<point x="638" y="400" type="curve" smooth="yes"/>
			<point x="609" y="319"/>
			<point x="574" y="282"/>
			<point x="502" y="282" type="curve" smooth="yes"/>
			<point x="431" y="282" type="line"/>
			<point x="431" y="242" type="line"/>
			<point x="513" y="242" type="line" smooth="yes"/>
			<point x="574" y="242"/>
			<point x="601" y="221"/>
			<point x="621" y="162" type="curve" smooth="yes"/>
			<point x="659" y="57" type="line" smooth="yes"/>
			<point x="675" y="11"/>
			<point x="697" y="-5"/>
			<point x="754" y="-5" type="curve" smooth="yes"/>
			<point x="778" y="-5"/>
			<point x="802" y="-3"/>
		</contour>
		<contour>
			<point x="395" y="0" type="curve"/>
			<point x="450" y="0" type="line"/>
			<point x="450" y="74"/>
			<point x="450" y="148"/>
			<point x="450" y="222" type="curve" smooth="yes"/>
			<point x="450" y="281" type="line" smooth="yes"/>
			<point x="450" y="354"/>
			<point x="450" y="429"/>
			<point x="450" y="503" type="curve"/>
			<point x="395" y="503" type="line"/>
			<point x="395" y="429"/>
			<point x="395" y="354"/>
			<point x="395" y="281" type="curve" smooth="yes"/>
			<point x="395" y="222" type="line" smooth="yes"/>
			<point x="395" y="148"/>
			<point x="395" y="74"/>
		</contour>
		<contour>
			<point x="295" y="0" type="line"/>
			<point x="549" y="0" type="line"/>
			<point x="549" y="40" type="line"/>
			<point x="433" y="40" type="line"/>
			<point x="411" y="40" type="line"/>
			<point x="295" y="40" type="line"/>
		</contour>
		<contour>
			<point x="295" y="463" type="line"/>
			<point x="411" y="463" type="line"/>
			<point x="433" y="463" type="line"/>
			<point x="549" y="463" type="line"/>
			<point x="549" y="503" type="line"/>
			<point x="295" y="503" type="line"/>
		</contour>
	</outline>
	<anchor name="aboveLC" x="422" y="523"/>
</glyph>
<glyph name="ze" format="2">
	<unicode hex="0437"/>
	<advance width="478"/>
	<outline>
		<contour>
			<point x="234" y="-12" type="curve" smooth="yes"/>
			<point x="354" y="-12"/>
			<point x="428" y="44"/>
			<point x="428" y="135" type="curve" smooth="yes"/>
			<point x="428" y="221"/>
			<point x="361" y="256"/>
			<point x="269" y="259" type="curve"/>
			<point x="269" y="268" type="line"/>
			<point x="340" y="275"/>
			<point x="406" y="305"/>
			<point x="406" y="388" type="curve" smooth="yes"/>
			<point x="406" y="468"/>
			<point x="339" y="515"/>
			<point x="220" y="515" type="curve" smooth="yes"/>
			<point x="143" y="515"/>
			<point x="92" y="496"/>
			<point x="64" y="482" type="curve"/>
			<point x="61" y="353" type="line"/>
			<point x="103" y="353" type="line"/>
			<point x="119" y="475" type="line"/>
			<point x="92" y="451" type="line"/>
			<point x="123" y="464"/>
			<point x="157" y="477"/>
			<point x="215" y="477" type="curve" smooth="yes"/>
			<point x="307" y="477"/>
			<point x="352" y="442"/>
			<point x="352" y="382" type="curve" smooth="yes"/>
			<point x="352" y="321"/>
			<point x="307" y="282"/>
			<point x="223" y="282" type="curve" smooth="yes"/>
			<point x="179" y="282" type="line"/>
			<point x="179" y="241" type="line"/>
			<point x="236" y="241" type="line" smooth="yes"/>
			<point x="326" y="241"/>
			<point x="371" y="203"/>
			<point x="371" y="133" type="curve" smooth="yes"/>
			<point x="371" y="64"/>
			<point x="324" y="25"/>
			<point x="220" y="25" type="curve" smooth="yes"/>
			<point x="159" y="25"/>
			<point x="114" y="38"/>
			<point x="88" y="53" type="curve"/>
			<point x="137" y="14" type="line"/>
			<point x="108" y="95" type="line" smooth="yes"/>
			<point x="101" y="117"/>
			<point x="89" y="132"/>
			<point x="65" y="132" type="curve" smooth="yes"/>
			<point x="43" y="132"/>
			<point x="32" y="117"/>
			<point x="29" y="97" type="curve"/>
			<point x="49" y="34"/>
			<point x="126" y="-12"/>
		</contour>
	</outline>
	<anchor name="aboveLC" x="234" y="523"/>
</glyph>
<glyph name="icyr" format="2">
	<unicode hex="0438"/>
	<advance width="684"/>
	<outline>
		<contour>
			<point x="40" y="0" type="line"/>
			<point x="294" y="0" type="line"/>
			<point x="294" y="40" type="line"/>
			<point x="178" y="40" type="line"/>
			<point x="156" y="40" type="line"/>
			<point x="40" y="40" type="line"/>
		</contour>
		<contour>
			<point x="391" y="0" type="line"/>
			<point x="644" y="0" type="line"/>
			<point x="644" y="40" type="line"/>
			<point x="528" y="40" type="line"/>
			<point x="507" y="40" type="line"/>
			<point x="391" y="40" type="line"/>
		</contour>
		<contour>
			<point x="139" y="0" type="curve"/>
			<point x="189" y="0" type="line"/>
			<point x="195" y="503" type="line"/>
			<point x="139" y="503" type="line"/>
			<point x="139" y="429"/>
			<point x="139" y="354"/>
			<point x="139" y="281" type="curve" smooth="yes"/>
			<point x="139" y="222" type="line" smooth="yes"/>
			<point x="139" y="148"/>
			<point x="139" y="74"/>
		</contour>
		<contour>
			<point x="185" y="56" type="line"/>
			<point x="333" y="214" type="line"/>
			<point x="481" y="386" type="line"/>
			<point x="499" y="386" type="line"/>
			<point x="499" y="447" type="line"/>
			<point x="351" y="289" type="line"/>
			<point x="203" y="117" type="line"/>
			<point x="185" y="117" type="line"/>
		</contour>
		<contour>
			<point x="490" y="0" type="line"/>
			<point x="545" y="0" type="line"/>
			<point x="545" y="74"/>
			<point x="545" y="148"/>
			<point x="545" y="222" type="curve" smooth="yes"/>
			<point x="545" y="281" type="line" smooth="yes"/>
			<point x="545" y="354"/>
			<point x="545" y="429"/>
			<point x="545" y="503" type="curve"/>
			<point x="495" y="503" type="line"/>
		</contour>
		<contour>
			<point x="40" y="463" type="line"/>
			<point x="156" y="463" type="line"/>
			<point x="178" y="463" type="line"/>
			<point x="294" y="463" type="line"/>
			<point x="294" y="503" type="line"/>
			<point x="40" y="503" type="line"/>
		</contour>
		<contour>
			<point x="391" y="463" type="line"/>
			<point x="507" y="463" type="line"/>
			<point x="528" y="463" type="line"/>
			<point x="644" y="463" type="line"/>
			<point x="644" y="503" type="line"/>
			<point x="391" y="503" type="line"/>
		</contour>
	</outline>
	<anchor name="aboveLC" x="343" y="523"/>
</glyph>
<glyph name="che" format="2">
	<unicode hex="0447"/>
	<advance width="609"/>
	<outline>
		<contour>
			<point x="286" y="200" type="curve" smooth="yes"/>
			<point x="352" y="200"/>
			<point x="415" y="212"/>
			<point x="439" y="218" type="curve"/>
			<point x="439" y="254" type="line"/>
			<point x="408" y="247"/>
			<point x="355" y="239"/>
			<point x="300" y="239" type="curve" smooth="yes"/>
			<point x="199" y="239"/>
			<point x="169" y="268"/>
			<point x="169" y="344" type="curve" smooth="yes"/>
			<point x="169" y="397"/>
			<point x="169" y="450"/>
			<point x="169" y="503" type="curve"/>
			<point x="113" y="503" type="line"/>
			<point x="113" y="448"/>
			<point x="113" y="392"/>
			<point x="113" y="336" type="curve" smooth="yes"/>
			<point x="113" y="237"/>
			<point x="161" y="200"/>
		</contour>
		<contour>
			<point x="425" y="0" type="curve"/>
			<point x="480" y="0" type="line"/>
			<point x="480" y="74"/>
			<point x="480" y="148"/>
			<point x="480" y="222" type="curve" smooth="yes"/>
			<point x="480" y="281" type="line" smooth="yes"/>
			<point x="480" y="354"/>
			<point x="480" y="429"/>
			<point x="480" y="503" type="curve"/>
			<point x="425" y="503" type="line"/>
			<point x="425" y="429"/>
			<point x="425" y="354"/>
			<point x="425" y="281" type="curve" smooth="yes"/>
			<point x="425" y="222" type="line" smooth="yes"/>
			<point x="425" y="148"/>
			<point x="425" y="74"/>
		</contour>
		<contour>
			<point x="22" y="463" type="line"/>
			<point x="130" y="463" type="line"/>
			<point x="152" y="463" type="line"/>
			<point x="268" y="463" type="line"/>
			<point x="268" y="503" type="line"/>
			<point x="22" y="503" type="line"/>
		</contour>
		<contour>
			<point x="315" y="0" type="line"/>
			<point x="580" y="0" type="line"/>
			<point x="580" y="40" type="line"/>
			<point x="464" y="40" type="line"/>
			<point x="442" y="40" type="line"/>
			<point x="315" y="40" type="line"/>
		</contour>
		<contour>
			<point x="326" y="463" type="line"/>
			<point x="442" y="463" type="line"/>
			<point x="464" y="463" type="line"/>
			<point x="580" y="463" type="line"/>
			<point x="580" y="503" type="line"/>
			<point x="326" y="503" type="line"/>
		</contour>
	</outline>
	<anchor name="aboveLC" x="298" y="523"/>
</glyph>
<glyph name="shcha" format="2">
	<unicode hex="0449"/>
	<advance width="941"/>
	<outline>
		<contour>
			<point x="139" y="0" type="curve"/>
			<point x="195" y="0" type="line"/>
			<point x="195" y="74"/>
			<point x="195" y="148"/>
			<point x="195" y="222" type="curve" smooth="yes"/>
			<point x="195" y="281" type="line" smooth="yes"/>
			<point x="195" y="354"/>
			<point x="195" y="429"/>
			<point x="195" y="503" type="curve"/>
			<point x="139" y="503" type="line"/>
			<point x="139" y="429"/>
			<point x="139" y="354"/>
			<point x="139" y="281" type="curve" smooth="yes"/>
			<point x="139" y="222" type="line" smooth="yes"/>
			<point x="139" y="148"/>
			<point x="139" y="74"/>
		</contour>
		<contour>
			<point x="443" y="0" type="curve"/>
			<point x="498" y="0" type="line"/>
			<point x="498" y="74"/>
			<point x="498" y="148"/>
			<point x="498" y="222" type="curve" smooth="yes"/>
			<point x="498" y="281" type="line" smooth="yes"/>
			<point x="498" y="354"/>
			<point x="498" y="429"/>
			<point x="498" y="503" type="curve"/>
			<point x="443" y="503" type="line"/>
			<point x="443" y="429"/>
			<point x="443" y="354"/>
			<point x="443" y="281" type="curve" smooth="yes"/>
			<point x="443" y="222" type="line" smooth="yes"/>
			<point x="443" y="148"/>
			<point x="443" y="74"/>
		</contour>
		<contour>
			<point x="746" y="0" type="curve"/>
			<point x="801" y="0" type="line"/>
			<point x="801" y="74"/>
			<point x="801" y="148"/>
			<point x="801" y="222" type="curve" smooth="yes"/>
			<point x="801" y="281" type="line" smooth="yes"/>
			<point x="801" y="354"/>
			<point x="801" y="429"/>
			<point x="801" y="503" type="curve"/>
			<point x="746" y="503" type="line"/>
			<point x="746" y="429"/>
			<point x="746" y="354"/>
			<point x="746" y="281" type="curve" smooth="yes"/>
			<point x="746" y="222" type="line" smooth="yes"/>
			<point x="746" y="148"/>
			<point x="746" y="74"/>
		</contour>
		<contour>
			<point x="852" y="-151" type="line"/>
			<point x="894" y="-151" type="line"/>
			<point x="901" y="40" type="line"/>
			<point x="179" y="40" type="line"/>
			<point x="179" y="0" type="line"/>
			<point x="875" y="0" type="line"/>
			<point x="845" y="24" type="line"/>
		</contour>
		<contour>
			<point x="40" y="463" type="line"/>
			<point x="156" y="463" type="line"/>
			<point x="178" y="463" type="line"/>
			<point x="273" y="463" type="line"/>
			<point x="273" y="503" type="line"/>
			<point x="40" y="503" type="line"/>
		</contour>
		<contour>
			<point x="364" y="463" type="line"/>
			<point x="459" y="463" type="line"/>
			<point x="481" y="463" type="line"/>
			<point x="576" y="463" type="line"/>
			<point x="576" y="503" type="line"/>
			<point x="364" y="503" type="line"/>
		</contour>
		<contour>
			<point x="668" y="463" type="line"/>
			<point x="763" y="463" type="line"/>
			<point x="785" y="463" type="line"/>
			<point x="901" y="463" type="line"/>
			<point x="901" y="503" type="line"/>
			<point x="668" y="503" type="line"/>
		</contour>
		<contour>
			<point x="40" y="0" type="line"/>
			<point x="172" y="0" type="line"/>
			<point x="172" y="40" type="line"/>
			<point x="156" y="40" type="line"/>
			<point x="40" y="40" type="line"/>
		</contour>
	</outline>
</glyph>
